<mxfile host="65bd71144e">
    <diagram id="wRbkJBC915SIKVVtEFDw" name="Page-1">
        <mxGraphModel dx="397" dy="1014" grid="1" gridSize="10" guides="1" tooltips="1" connect="1" arrows="1" fold="1" page="1" pageScale="1" pageWidth="1100" pageHeight="850" math="0" shadow="0">
            <root>
                <mxCell id="0"/>
                <mxCell id="1" parent="0"/>
                <mxCell id="2" value="" style="group" vertex="1" connectable="0" parent="1">
                    <mxGeometry x="10" width="70" height="55" as="geometry"/>
                </mxCell>
                <mxCell id="3" value="" style="group" vertex="1" connectable="0" parent="2">
                    <mxGeometry x="10" width="50" height="55" as="geometry"/>
                </mxCell>
                <mxCell id="4" value="4&lt;br style=&quot;font-size: 7px;&quot;&gt;" style="text;html=1;align=center;verticalAlign=middle;resizable=0;points=[];autosize=1;strokeColor=none;fillColor=none;fontSize=7;" vertex="1" parent="3">
                    <mxGeometry x="10" width="30" height="20" as="geometry"/>
                </mxCell>
                <mxCell id="5" value="3" style="text;html=1;align=center;verticalAlign=middle;resizable=0;points=[];autosize=1;strokeColor=none;fillColor=none;fontSize=7;" vertex="1" parent="3">
                    <mxGeometry x="20" y="35" width="30" height="20" as="geometry"/>
                </mxCell>
                <mxCell id="6" value="" style="group" vertex="1" connectable="0" parent="3">
                    <mxGeometry y="13.918021306431228" width="42.19624544701863" height="27.816055047083545" as="geometry"/>
                </mxCell>
                <mxCell id="7" value="2" style="text;html=1;align=center;verticalAlign=middle;resizable=0;points=[];autosize=1;strokeColor=none;fillColor=none;fontSize=7;" vertex="1" parent="6">
                    <mxGeometry y="1.0819786935687716" width="30" height="20" as="geometry"/>
                </mxCell>
                <mxCell id="8" value="" style="shape=stencil(lVhJchsxDHyNriiAC0ieHecfrrIcq+JYLtnZfh9MVByL4KgT37R0c7CjObt48/p497LfBX59Ox2/7n8e7t8ed/HTLoTD8+P+dHizT7t4u4s3D8fT/svp+P35/vz95W5BLp++HX8sJ/w681qjFhZW4N/nX5ia/v3h8xn/dHi+xBcqOuATxQzwiaQO+EpVAF6IZcBLoJCuE6pSzSNBSQMgCOlICEIFPKHk/vdKKJSAz9oojjGKkRIwSQNVHgmNEl8nZKXcxiwkahUQmOrog/3CgJDM6TgSEmkBBKHoCJUyiFIsPnEqPQzbhEw8+qCph2GbYGEda1sVRilOxWepFPCE0LxJRSiD9glWrWUkrA2yTbCojyYV7R27TQiUxoYrjQpInDU8jybVAPtBSs/rSsiUIyBY4sbyrhX2tLV8Hn1oTAVMDeE+hFZC6IHeHgIUx/6xOVWAC0pl9KApBZBn8bVtcxaNPaua5PENRYjCaI8w9yBvEqb+Xx4A6o4py+QAxIfp/ALKdCo6w2dovyshw6MEGH5KAEN7gvO3wmHElNTjFRSQ1W/z+AzsEZLk8QlMIun/Xp6PerKX46X9aHBN8ay9oq7gpU3xh+f7+NsSBQ1j50ePR9tGqE34AvE61U+DDRzDhAf5WlXW/zewTgFCe4A3DCqwgWU6P0M8zwkDAeXefhd4gf7KXHBgopu/xeMV2v8xfCZx9mdKoCBs0bsGiHDg1glvJQ78FdMqjmAhRh0f/YiotsjRE7SftxJSN3KbUP3SMCUhoCaWrTSaZFolIHET/RgyNRQRIfcpshIiLOtF2jv5ZK2KfDCl7lRpxapUvEmmSiNInF0e8jgr1EoJCWXtl4cLZY3Eflxn26rdC9x+dtuI4xNy7AN2m9D6BWi9sDTodLZ+c/fMRAEpNPESMOKNpqUHcSUEUpA4U+rBXRwVisbKfonbmkAixHR0GPvBpDOSgXUKq+D7hw2V7KQ4vH7YkGsuqlSByzZEeUwbw5tvq/71gAkxMJMM77LMcMIsKsjbw/h8p9PWPbeNb35G4i2+qNbi8SiezeeL+9i/hldvP7rALqrexxPN00V0eHxCO4Qn4W5CBlT0u2x6x6NJ9OH3V//E24f3l2UPh6en87u2y//9yzX76fxiLt7+AQ==);lineShape=1;fontSize=7;" vertex="1" parent="6">
                    <mxGeometry x="19.564740664598645" y="0.16814491020784317" width="4.077038719613128" height="5.973885570734757" as="geometry"/>
                </mxCell>
                <mxCell id="9" value="" style="shape=stencil(lVnJUhsxEP0aX7taa0tnQv6DKkxwhWDKkO3v0xOX5FHL84CbPdab3l5v8i7cvD7evex3nl/fTsfv+9+H+7fHXfiy8/7w/Lg/Hd700y7c7sLNw/G0/3Y6/ny+P39/uVtOLp9+HH8tb/hzxjFFWUCe/7YHXP8/+Ho+/nR4Xh13lPNw3FECxyN5Ho5HinH7eCGfhuOFsgPKOBKjjaOaASBTGAXoEw8Aal7xA0CfBA8AQtUAMlXeBgT1yAgIngQAoiMejQ6FIgIIxTIGIVAp24AUrJdioQIkJFVgVElf4UHgspo4SkjqpQAAmVwdAZUKklBs4FQmp22AcHtfBwSqgKviyccRkCiCXBB1q5GQoQ2i2WNsKMSAfJIsNXIlJxBQRmqoGxCXJJOMKkmvCNcBQtlI8DDSoik/FiR1g0NeqpOERB4YXZjyyCW1KgIJxU0qCSXApeIpj/RWqxJSKdh8WKwCbi2xObFXSuUvkqAJZAC+ses6QCxbVcmMareaaCQkcsgGzWBT7ZVdgBrV2XxQmciGqnEwAJUJUrRqyo9cUpkJSVCqGUAgB7xUs+23NTZ2XQcIyRgHfYUDKVqrzelaqCIJtdW5DqhwBlgAxQI8yAfHOlSwRUQUahVRLQCNAgsgWYBgq62bKmzUtdoGcfHDFsDUypUfthA5TCJACunPKVsAKgMLYAqEIL5W29qXV2AJMyBgNsWZTSjnqi00C1+xl7IxujS2bAKmFIJ1o3Pt4wBT+xaVcBzMXLkYjW2oMrkVkO96koZ3CseUpKgvXti8Zh8OdZ1yruBQl89mkOm8H0nSyYh36kCaKw2uZZ8ESNuqOkCIkUraQoyE1FrlVp+z3Ii4C4WpbXk4HevPZumojEPNluDa3NHSUSa36oyDNq0yr6PqNzwzsRmBIuxaOiGVkUsFL07L+8aU0+EU7XL6vmTGOG7FbWt2jWOkpfttazoOZpzWSRANitxa/2qcRvO3KhBHG3Rg90AlVcCqlGDgVIFgdoiAt5TcKuNqrckIkGzT0sUpoMUptr68Ws0ckhBsh9BtEZU+BRi2ZoEjk2ps6r0usBHFgW3G5QhVUo3NwK5LOBpFdeU2o2jm1lm3bh7S6NYkcDpOUxFIsS3+W7cnztyeaFMCgChtXe2A2EJ5HcB2eAgVXquF2IpKBwQ49XmxZWa510KAfg3YAR7S2/VK2vuu5iAaT/oi1gFKDVQqp44FN+ope/BljrPdysPlmC0nHLyX6Xewl+OonevxkdMMs4yb3y7HC6DbNBYyXFivHEcbNNsixHDmZHvDxTAZ2bIM11C2YxHDxYJtaWDISG43x6vjgPFsG3F31dbxz1zkv3tcP1z+M3g4PD2d/3JY/27/Y9BH5/8nwu0/);lineShape=1;fontSize=7;" vertex="1" parent="6">
                    <mxGeometry x="27.34329623413376" width="13.43037879425657" height="6.528432542546019" as="geometry"/>
                </mxCell>
                <mxCell id="10" value="" style="shape=stencil(lVfbctpADP0av2pW2vtzmv5HZkIKUwoZQtrm7yPXtfFq4bS8GXPk1eVIRzv4h7ft0+tmEPd2Ph2/b37tns/bwX8ZRHaH7ea0O+vT4B8H//ByPG2+nY7vh+fp9+vTiByffhx/jl/4PdnVSjWNVuI+pjeOsvvz4uuE3+8Oa3yhUhq8UEwAnyjUBh8pI7xQcA2eHRXgUCmUYmsQKQRg4Cm2JwhTktsGOZNIa1CoAoOkOQ2Ngc/EIOjEVNoYQiIHYojeZilGEnBCCJTasqUAg/aJfMuL7EnKbQPNSeLGoDA5BgY8E2ExyJRA0FpXk1YlSwEnMJO0LikbI+BSpthyVdlegUeOXBuBdlMCOVK8s/gIAlC8t3gP/eFo8VwR3nd4lxE+uS4/8PtmVox4wFKeu+Q/v88U+B7/ufMf50cZKvfkX/FdPlF91Z9q8Yg/TLH7fgFNzOQ7/lSP8H+zt8bD+ua2vuwWit8wiF3BakR46RwqgEDaAF2BMwjYzRNqXTDYAD0+wHh7fwQ2cB8vwwHR5xPN3K5gY4PBhrGEUDwkaE84pGPXCM2AD9caRmAD34dPVlY1Xg8arBP6GnGDLaK7kjDkkFbMeKQiiTKkGiatS0VJAlzyYa7oIvRYVcOyB6xWCQYkimJlLwZ4QtKgWxqFOCvzdYNCsU2rri8ZrXTRNoKuLwGcUMRKsXJL0FqarZbp+uIQlVQsW67q4utBWmuYqXbZrD3arPs1Fs4ipb60zenw98usjRe8AKYqPhSDR8yu3aLvoNiPN5UOjwpQ7bDDWjaOEus/mr2jVFSLR/HqLmD9Yex/EZt/7I/hj8OzbtkFLviAZrXr1l0HxfXuq+g/8fpwufe+7Pb76dq8/t/ek/XVdMf2j58=);lineShape=1;fontSize=7;" vertex="1" parent="6">
                    <mxGeometry x="8.538293097297753" y="16.56522440687911" width="4.592531380150672" height="7.765862021405667" as="geometry"/>
                </mxCell>
                <mxCell id="11" value="" style="shape=stencil(lVjbchoxDP0aXjXyXX5O0//ITEhhSkOGkF7+vtpSA5Z3D+Rt2dXBuuvIq/Dwvnl6W688vx8P++/rX9vn42YVvqy8375u1oftUZ9W4XEVHl72h/W3w/7j9fn0++1pkpyefux/Tv/w+4RjimUCef7TXjj378XXk/hu+3ol7im6TtyT5GXxRCV04rm9mBUXKrkTd0wM/t7p6b4HxGbPPKBQjT2gUgEAH4n7E9SE/29mAYFJ+hOCp5oAQMhJB4gMbYjq1NoDhDzwagoUekBKUKXMlHtADhQjABRKvZeK2sDLgBIoG4BmBnBrEZLUAcTDRJVArk89ye3MeUCm1J9QtRRAHKSS72uhaqQBoDryfa3VRCwA4K3RVZUEcaiarQagkQFemhQwNkjz2xJAxAISskHjGi2ggtSYNDaACitOP+dgTxBkQ7Vd6TZARgAyulId3ForBhRrNIqDY+2MbBEB+bU2Da4A8YYR2QIyyj5103ACaq4TYLBBMKAMAJhMqvF4AjY6jQBUQerEMHgJhzqIBSScfWGIQwBTcfYEh1UabWCskvWStIy/Nw7S5uS9kZY26+/NJYHUZCZbBU7F2XqA7Xuu4jwwer6oI7Z67BvpRqNxFoAo2UzvqzcjNwBu1OgnAaX1rQtNPDtuaQgZujEZgfyaGhu5DgSevOOIqMivwfJEBXgUOT+UUMEN3w2zPUGj5Zz/Z0BoVbhEmbxpNAzbgHI26dNV1AZQc0r7Ul9CcuZES8TSNMui2YK4biFvAI4c4rpsm2WOjcEv0W/DRFOGE0IJfuoBSvARsQy61fTZGl3jpktLSurjEHCkvX7uU2Pa5PCilfsTdLFMIPl0lTO0zyXyKFvt4qq7Isru1BrpOc4UQRB8WzzPHoJ9VVeFvjgZDh+2/85UQAqxXUJ1QcPiVpmElbHiqNWxbStMATQ6FY9GHIVVxasRRzyYW61exNGFAduVjeFqwba/4TGjjhiUAVXI9i6F2/a2JP6Zm5qb4vpwuRR62e52pzul6+/2EklfnS6gwuNf);lineShape=1;fontSize=7;" vertex="1" parent="6">
                    <mxGeometry x="15.15067034740025" y="16.73338759431124" width="14.4058144281356" height="8.47192522351325" as="geometry"/>
                </mxCell>
                <mxCell id="12" value="" style="group" vertex="1" connectable="0" parent="2">
                    <mxGeometry y="15" width="70" height="40" as="geometry"/>
                </mxCell>
                <mxCell id="13" value="7" style="text;html=1;align=center;verticalAlign=middle;resizable=0;points=[];autosize=1;strokeColor=none;fillColor=none;fontSize=7;" vertex="1" parent="12">
                    <mxGeometry x="40" width="30" height="20" as="geometry"/>
                </mxCell>
                <mxCell id="14" value="1" style="text;html=1;align=center;verticalAlign=middle;resizable=0;points=[];autosize=1;strokeColor=none;fillColor=none;fontSize=7;" vertex="1" parent="12">
                    <mxGeometry y="20" width="30" height="20" as="geometry"/>
                </mxCell>
                <mxCell id="15" value="" style="shape=stencil(lZ3bEt22DUW/xq8a3i/PafofmYnTeJrGGSe9/X3BeqRztCEtxW++EJJIgsAGsMHzIX/3+88//PbxQwq///Hl898//vvTj3/8/CH/5UNKn379+eOXT3/Ynz7k7z/k7376/OXj3758/uevP379+28/rJHrT//4/K/1hP98lUttG3VJpfDfr/8Sw9bm///lr18Ffvn067tA3cZUgRlRIISzQNziAIG8dSfQMwikbcoc0hYaCiQnUCoIxK0GFZgJBGwRx1kgbwWWNc6tt7NA2SLMIQ63SmVfhmuBvjURsK0sINC2Us4Cpiywcfa8JG8YW4BVsjUZ/Swwt0QCaav5JGALXUH5THOSCMRdf68FwhZEIG+p3wvMfYbH+LKv8+V4W5GzYtj5oOPT9wU5xnc8PbZp8v1jyzC+bv28yTajCmpU97fv47OpOnx/2Y/uMd7OEuh12fJ5vvnY88vxeT+Hx/i8VVCh43+P8QW/J++n8BhftwanJm0jnscfFvZmvH7PYNu1JXn+3AodGTXXJfAh3nfzGG9vpAOz5bMpLRn9h9l+GW9mC8abczmbiNLwe4L6s9K3CvsVti7jxzZA32z8eX2qWQywD4c3PcbbisH+OsdR027o/+R49hs2/rye1fQZx/ezflazP7w+8j0Dz5ft1/l81blNHD/Pz2+2nrA+cf/aYzzbk7hr1zE+7ytwM77I95Tdot6dr/N8W909/935le9vON6Qz1mfW98GrE9Se9sGooK0NRk/9x28GS/ntweEKVntSU+7R74Z3+X5ebcwN/4lnde/m8eB59tunvWh1wf/mM/71RuC16r+q3cEKG2r8j1zRxR3+OGsnyPs4PcOn5zXc5iGI56Z5/UcCddnqj6MvM/oDsGFM0AZBQGHYcR4XqFRd5t3h0KzfFJjF1b2GR4CHTFfdCBrjB2m3UHvKQIPwHjopGfYw667eEMmPQ/LfRvRnMH9PIKiu5hJPPFM6Jk81DIBMqV2NovM4bAet7FrVQFyNuv0yBts70GX7DiIeZ8GmGEO2cUbJkDKZ/A5nwHIbPveXwukPfB8E2iEkPM+xUOgbwFOnCHollWAYg6D0GLETKDTG9oenr8J0MZlZ/bmwLApu7jMBEiXTGA4AToPhtMlMpgDkdcC6kEFBoVa/sSZdSbflp3yzd3aXguUHbu+CdCZLlXh9WRDVly8uwTInw8FqEsAjqjhdTWVEyMKA+ySaXkSyBdzIIxqkN2/AQWaZlqWAKiGgfbuNg5XaSoOWwLwSQbD9QCZLhGQSZr8WdoKczBg3Zx6U2hkSLk0FSig3gZ9BfwvqwFv6N56d/ykHvfkwZtAggO00Kyz3h02zuCsvoEDZsOnkp81D0QRsAFUyZ6aQIYz3YdzWQVjGIO0EpSYAPm4hWllHzJn4SwslDckDEtMQBCZCSRwKAaDJfCfnPgaLvJZiIwmbWtyXlYDiZSUNgHxDyZAuSYDzlWCh4FoxoCz+AdDxijQNZ1ljwi0D0Pj+TUresNUuzQyQri1iBI/cAbMtmkIWI+IvU0RxGWZwhPmm0kDjnWkSCDribNDS8bYzpcYgX547jsByQP0A41fC1Td6WXa4ACZgGSSzHiSepudyzKHIzl2JyDgpM3dY1wLmDKfXVZjVGkC1WVvJgsI5mt1m6RLw+V77DzQKg01lSvBRapxqNpbBo3CsoWD5ZMiovvpSlktoBddOPgsYHDlYQ7DZSVRl4aWFCun5afLg9TOdaOhiRADdYVXSQUq1r6WgEsNY2pmqOUzJEu50oXwZB8SG4G5B5Lv2XD6pKnZnwXfH95wtktlYL3Dr5KFII0mfaDUQ6BhMmcO9Q/lsIW35+GsSxZ3UQ50BZLyhoQQbuFgqQpFjEWXEThbDYtOKW23gPP5AFn8S4hsBfRn9c4cHk8X0ljQj160a6p+leZolZy5z5Wtd9NimwlQeGwCArCyRdhkW5ta7/xwRKtavpwwHz0Po3IIREzwrwRXUgFKF01fEg47kr0TEOVLE1Hlyuqd7VIavA9ZqQ6vuvsdIhOrkWxn6JOS5ipTxbyGgUQ5D6s0zgL6hrwr/B1uFXOfHhx7UBbMqjYxMhbrvcplDNal+rzqg7APJiDhsQlQmsLiB0nFR+Y7mIAntVBBf3iezcCk2nDJ/thRW00gnU9cbDzpqhAuVvSiFlOJf1hsJJp01o2LjO4tppK6XXyIp6OeuBgRrJuAblxA9R5BqTMvMtBdmkJDfIzKLGjTqg4nWnwtDm3MivGk9ri7l+vxdT9bB+7G0mMvmqFoqBQ9aXxVeX2iosOChQqL1iQXkPFktq6137y7ruvx1dk7ZAlaICW+NnJCM+2A/zUen++4MxGpGBZFCRYOWA6oDs6z8bUIR44klxAtwJn6PVTPsPim6/dQLGzhjaRvGYhYsKIkTbRZ1TnMiNSrMh3NFMNaCzzE6ibMI5Wq3JCE4LEU5yy5AJV0/ROXk6K6mcy1nrCbs9d4pPpNx8VDZPpi0r3sCcVduV/YH/qeqpFgRSqYYXtNW/B8s0YHDem02XN5+PlxR28vf0G5V3NvUrFh/2LuSrhyA6kq63Hq7yhkTL4qjPbQc3Mm5qUW4Bb7HLDKtshLSQUo+bAOrFgIdgEpaoI9JtwzQ7eK5PKTgL4hI8h/Ubb/vED4tk9yKZp4sMpuBRxdnyzFgvRuWSlKXgIOviKNaajvi5wqiy5VZgKZBQQNLQGmACU3aUpZLl1yy5p4p6v/JCJHTmWSrFWifXAQPDL9bPVZuH2gIsHlGwgVXc6B3ObFKmVum/D7kNGwXuz04xFVXcro2i60NTP/7Oo8ELi7PHFUCL8808Tcv7Qa2FxyZZeIK3lh+RJWzr9Z4IXw3xwKxVzJ1bUjV51fGPBNgBJZq0NDvS42mBVdVeaRrCD0rEnMw0ouCuzoTOxxJcl4dNHTozakqgVlGDeMKgzlSVRXEWMYikxSBkIbnF3uhwuKqx9GUTP5qdzUAmc0j4bKh46nU5ld6S5jrsuiEIkSEq6nRTkStbDntyhKUC07zVXrqTKevIFFgS6KpfNlUaYwfyNHjd4XYFasBs2CcNqtJiWDBgRGK8pPMp4YVKu/Jct4qjasLEWU8ZhFGJp1Y+Z1nUrbCei8W9AqFNvb1Q+j30P2sLmOjoBZyeZoRxH1uTkKaETCTuvaEZf4+x0a4qxDj67DEBvQelYCETf4dEfmrNj52102v2GWonfNSnJXbh9aj+iYFehTnz849R806zYQl43oOJPoT228VgrCU2mhOgHk9uXdAL6BJkpkDpdIewgiRnVnJmNqabHgZA6ci1pFJFfiIbQ7ulvWxry4oWza2DE288w7A8x0Mlf1r6kAQbMZ3LJOnPQMWtxexpTfMJ0A8rGc9V13B3DZVtoCFj6gWnVSmpsZMKQmJQWYy+Jx+VxOdCpYWDEBTURX5gy4Lu/0QMVwqVOzYsj4qoryl1liuqE0xq7sIH2SO6KrEx7Uezo6eo5coG9KHFoZ3gd+orwhM+/B8RPzA9PIg/HyRK/SVeL+psU0kjk0zDIv8pPMgR3cHKqtFjI8CCg1afLGOYhnQcaDgFSKLMogYzwd6FnFGtppl2QqmblMjopRHrhMU3FPadgFtgQc8w45ZVMzOmWwmZma3HhmDyrH8pGfqBzLRwbkt3EsYwiOZMk3VlxJVLwT4+KjHiiN84LtSnmpJSClMkaVa68dxRdZZS5PawLEZpjT0ZS53L1arNzVAxTJTEdOalyG8HzaxrmRORTEtcKn2hE/W8PE7qtt8hBgctLyEOedbnwBzatX9BCY2K89HY1gXSnw4HglAkpsBhwxpmfkrS20IcwbDhJnUeu62rAeKI2uowPp4lnTNhYIIp5xuHIE/qSofKnxYCyDaydKuNNjKiazUI0CgjGUWjqYZWlRkGABC6TIUw/HERjstBZZT5quBsLE4Qi4YyIAsmhUjIAtNLIsi85hRrTeI7s2+MRtXcl1XnJS1TRHO8Izd8sF1wzK5I5F1hsqQBejrLyJb3Nk+p1s3Hy42suRuSe7XTMqAoCWLaQ5ZGWYPXTm96iWb9lzEvDd1AN1qblyyhxoKs1BVde6TC6rOX758tz0huR6O5kT3Hz36OQct79tY2JEvfq1XTc1+bjLjnAqO132nJNtvexqR4GrvnkCJ5ed+SRw2ftPudzi2k3fwPK1RFVlepRwrKGnj3LXV77ilmuBqBz2eTCzrgWC6wmfGC1mx2F4hYPXAv7ek4k+aFX1/P0CLKBOazIbrilyfTA0uSoAmnxLT3Z86Fe241oguzd0ZGBmd1Hpui7ggdInAo3L+dOBB74uILl20Fn5dlaXmZ6cSFisSH/pDt8DpDvNYdOrwvsmgLSKqNmTlVQlgeA27oGn53ovZ0SuYXSZuAWv+TpX8aOGK6nFO1ZV7zH4htnievP5+ozXJbpvYJoCs+g65w1eExCNwU2aObpTm6gGJ0SHAqyR0Ha74t2rvHUNNRS1joDBQHXX7U2kJFUlh/SBN20Ujcg63w1VdgU4xvPlInnX4bdAGi+rUq+wIC8dTHeTArMxkmbUDSHT+kR3XSBX96PLx0zUt+iKxZ3PpJKFGleLg7LsWkVoERQeNS4VuVvkVtMMXm8qFO9FV8DxAr4a5yQc5KwM1lzFcV1viuPFH6/rU/F7fOqWr2f1yeFve37Cckz4xoZ913JUA/q9oOWhwmU6R4YpHfM1jpxQmF0R1P4bnKcssrtOt2S0z0E9XuFUZFRoU5hN5exJ5nu+osaZhrMpo5CULGcwm/QzuZagimlL1zJoIDsRu9G16GcGyGp/FsSmWMvNN/J1dIo3MreMVG3pS3w/XtUMUOLm4qaR3yq0w/NdDivxdbeOFPLQY+XaURYWJ/8VXA8at5BHR49N3MW7rn91rBNq01tMHEeEIYZadHcwGBZH2rdr5I0VtXpd/yp5jfLUyiEZrPX7FHTu3U13kXP3C0k4jhTtw4u2eghErIwmd7Hp+mERmoNjQseAEVByifLIdfwFj92Po5B5SdXlTTB8SE3JmkxSsfGaKuK4tblLGR+DeyXr4y3C3d0Syb+O4BgtD+vjrg+NXMRK7jLDxS58uBLYCZCHShc5R27J6K7Nmxm8a1Ed4ZFA6do1J9BoG775V4KeBewPrx8l+unTL798/U2j9//XHzGyf/r6A0j5+/8B);lineShape=1;" vertex="1" parent="1">
                    <mxGeometry x="41.08373450400431" y="3.399178887483771" width="9.841712144737855" height="10.274853865820953" as="geometry"/>
                </mxCell>
                <mxCell id="16" value="" style="shape=stencil(lVrbkts2DP0av3LAm0g+p+l/ZCabrqfb3cxm0zZ/H6guFeuAOtS+2dYBDYK4HIC6xA/fHj99fbgE+fb2+vLnwz/Xz2+Pl/jbJYTr8+PD6/VNP13ix0v88OXl9eGP15fvz59v379+WpHrp79e/l5X+Pcml5oLfpUK8uP2i3fS/vvh9xv+6fp8j08uZcBHgo/NtQj4XAl+cQuuvzB8cBn1LwQfqpMA+Er0D9HlBvj/NzTEe7WnID4TfHZ+jw9dwTHeu1QB78l+q4sLwDNZfkHrROfJbhMaP1LjxP7fHZ5cLcT26DrZNQrPe88pLhJlgot7eHUtMTjGibiyMLwHfHALxQv4fXKLUDysr5FDHFndcO83vrpK9yvgZ566gtpnf1h62omun/a+oKfLAl2tt9+vHm+j9qngmtIj7cA3wZ6aWQLRP6I/xNQj/wAP+9VMx9eHWIm1e9QRfu8/SZzw9ffnm3hiM3kwRVdY4u/eu+Fzz+xH+L09U3GZ2nOBXNJ6QJ/DZz85L9Anx4n9Yb85OyHxbuyZi/NUfzivrPsl2dDgFy2MdL+IT85z/cser/mH6wP45jz1H8AX1Z/7J+BVf+7/gF96hJ7EV5e5Pnt7Vpmsv+zzZ90y8AG+7P2tbh51hAd9Es2f0dU9cahLr1AHeCjWtUzs3/b+X+uEakB9rI3GS+o0tuObuEDxfp8fmhJbYv/NuzZ8oPbX6rC3Z1MLE/sn5MGNk6WMVKxlyk+2bLPhl15Bhnjl8aA/p1dKX5KgQGMESHr93wRq7zWOqDy0IipQmMsVjEkVqOyMizkEThJzRRaxCpBTW4YCxI1KMX7XnBA/0rBFx2v9P8cH3UwkTAXwpBulHvoYzdpobdXH1QgE4nz6uBUUYNXSi3Qr3kmw/L7+hTkIRmD1cWkoUElFWBWoKNC4QPRGgKsk0QgQ71sDzBwEa29VIBtnqiQLqEA0/8DqvgoEI8AmDKuACQhWmYcqBeJMw02zWjg0KyOPw4ObxKh1DTZnGDof4yND92aTiWEARaLSOEYTO4hRGlh4UNtEw8ZJw1TG5knDZMkqxDAd0xh9r8CwQryvBt0dzckyN5NYK6m8S2It1saf2DZWOmAFGEOpnfHcHzabSCnlN1G3kETgY+cj96mGxLWSBUMfFoLPLsD6hWbXYFjfQueHHqcuykJZl7cNj+9ZMYk33xPvSdateFifs3rfM9DJrsHjeHXSlXh0iEnXY6a9k67K4xRo0rV503XyrlB7cNCfd53edJ28q1X/AX141+z7DPNkV27xvOu3eD5VsHg+tTD4yVTE2GcydbF4PtWxeD418p3BnpxKWTyfepl8Mpmq+d5Tn5zaGf+cTAU9kpzJ1NHi+VTT6D+Zmlo8n8oae06mvnZ9meSTss+H69Saxgv0/OtUnOoP+TBuc5Vz9WKd6tP1BfQX6p+CfHG9laB44ChakVl+kH6HsuFjt8ABHpqh9daG2EeQK05uhQSnapNbJ0F7Tm61BPua9daM2tOwxIk94X6z0m5U8DK30DskweqY6UjNY++QaMMUkXVHmgpzv17aXIF68uBePLPAVeYDPQAlqj73kdAvPJsR+a0Odrxwbm7uv4Rf5xbsPoUST80bKQKejVc1j2VcnzH/aNpnofZPmvcC4CPDV7z/nXRTza4/wSe0v7Bxfuu34Xd4Nj5vyEyEBksyrb/QxJ8F7xe23u0Qj/ZksT5an00LR/rT64KBfRrRP5nBhZ+er4lf4v/vfq9oitcPv15i+nJ9erq9A3X/HF960p9uL0zFjz8B);lineShape=1;" vertex="1" parent="1">
                    <mxGeometry x="55.96788851437714" y="4.601294910660911" width="3.8244150805638566" height="6.851712592612587" as="geometry"/>
                </mxCell>
                <mxCell id="17" value="" style="shape=stencil(lVfLctswDPwaXTEkQRLgOU3/IzNxak1dO+O4bfL3hauRK1DRprnJMlbEY3dJDnz3sn943g0pvFzOp++73+PjZT/wlyGl8bjfnceLPQ18P/Dd0+m8+3Y+/Tw+Tr+fH66R16cfp1/XL7xOOKYsV1AKb9OLKlT175uvU/xhPC7io5AkD1DSvA1IjVQ9oMEV2FaIfUpctwG5Us0eYFWBlEoh8SkVpQJSqpm0eUAkKdsAYUq+SzlRlG2ABsrsABwpghpaIfZFR0oRxFdiX0KgEEC89MSwDNH3lXJ18YkYtLQ1Sj6+zMTaitfg67UCQEdjuBV4Q2RqOCUtHtCoMQSw71HKlFFTlaqndhJqaMrSU5sDRaAFG3ORHqCohkKlS6nNZH8fkPsVrIaMVuC+rWY6gqhk6k39HCLiBq+0kLF4mKqnhrER1xw7w6CAmGR/dxVQA3ZhUwu+gEAJtVQoxi4+oPyVYsdsKohFrc8/z26wFV/9981PsXCa51C0ESJKtFkmN4B+BOhZytjvtLf4VLEOZDaThXDQJvJpgKbZTG77WoBjk9zvzRJgDbVQ8wDbhwroUjF76QBCCuaQhZJnRkvQ8Vh717a+BSD+9fmiKZz0+gTT8AlmdURabC3vp0TV7+VXNgI5xHn5RUIR2EXs1Wx+g3pqM/XUNv9DLTXz8SPQm5o24ruRqe3lgHbr+AhpuspHdPa//6vXhFGBblb9FDvdgX6u5lXxfFd8qHi+nz2TfxxvD/8uAE/j4TDdH5b/9xcGezVdNvj+Dw==);lineShape=1;" vertex="1" parent="1">
                    <mxGeometry x="58.87846674506224" y="7.765447235598238" width="1.2782388813949863" height="0.27621684996637197" as="geometry"/>
                </mxCell>
                <mxCell id="20" value="" style="shape=stencil(lVvZbhw3EPwavRIkm+ez4/yHAcuxEMcyZOf6+xQjcDQs7tTCb9Iuezjso7q6m/tg775//vDt8SH67z9enn9//Pvp44/PD/bLQ4xPXz8/vjz9wF8P9v7B3n16fnn87eX5z68fX///9mGsHH/98fzXeMI/r3JWXelDKvp/Xz+p0aX0/ye/vgp8efp6Fsiut1XAXPVCILlIAtmFIATitkNxpnYIzsoqUF0VO8TuUl0FuvNNCEBLfhFo3qUoBLLLeRUIrgq1RnM5rgJQg9ohuLweupnr4tChu5JWgeSKOHSorq12aNlFYYdQXIwsYCYEkqu27VCEgLm4naFWIRBcN9ZSFWoN3rXAdkhih+4qGdq7Lo7Q+MhwvSCeX+f5Tr7thSMV1yieYWXx/OLC6tkVKhPrYdHVKQpCJ1+vx+6rfgoARKw3fv8Sncn1cX3/3Gbo3Y4bDsycnCkPYgdKfb7hxXpb7ZWyxFP4Gz0/SPt6fr4VV0UUe+dpfZRwjfWrPuGxTcCKn297rNfo7meAH+uDa/J9yro+4H2EfoILqz6BSkH4Q5hwcKy3ifUX/pPofcLMb1f+ua7vLgp3Sy5QKnMmvA1wuaJVnun8ItgpeJPUTWUshOuIp3eXV1eDbhWYB5fWtwFyKssahy5iQa3PDJ2Hb1/lu955vUrZfirvbX1UyAMgi7Re5d+4EacgaRCsy6E7nemS1Kzvby4J88K+YdXPkQtue75nf6gzlq9oXKdQ9NO9bwvYpiCTwQUqSh4EcFAmANmlbDR8TjAa0GkjGyT9Sm2+wAlvszh0glOuAAc1BHGGtGUk7Kn8IkUmigmOoVI8cvYKWsiRKtKQEsOWhFUSSBtwFS/pdKqT9BwCRSJjalvREaUdMnyTiFyV6JjD5AEnZpkFFc2wA3HXogWMuUTr8tDQel/t0KPzagdAzJoRuk0QuS1Q5/MOAU1Hc2dQ6lkeugTWEgRUGinGMNOLZJjwnNxYQNUQYMSFdoAaRMShgg6JBRS0oiDmM1SXBS41zzDTq6Q5qKt8315J7VCZigwtCbV2P+uGk+EUs4ZvJrJ0kmfA15Rw+9FauC0AVyM7BGk4HJHYXWt6h7KFaJHlB7QeVzuggDWBS8OuBDNexjQECL3hXQr5emPKD6hsaofGNVppslUBAWrolKRd48iZp/zQhLcOgXUHIFXQZ0hEfmzSm8szrM6HpNj1KxG2IutldejK/AqJOAvkGyhEAl6iBgKor1pC8agoNwQaUcowP7kUMBaQ7p2YkYFmqvoXMc18SVM4CFCPCcT3DmqQa4ymkDJc5p7REFC+tDP7O760deJw6KgMtxEs08UJBKgOhuGCOnSZHPIkoCjceKXN+e6cgWAGAopr9K2VPVrPCu4zNwsG91YZKG9aMp1QtoIeryQDKDNqQEBVcSOAtkPL/HArRO/tQIf2suU3YGZzPtlzzbNlehJQ/fthhy2AVBcJAtR2GiGqDUeMbOygqQPVQDiDzEBlwtZJQDHjnxdonFCs6/zQmcKN2lG5RmeoRI5TPRYIVOpYHWOMKwFKWVl3NYLfOp65yrZD79wSRg3itZqoj1Z0j7R3HsqhpFCNOghQY2OUFMrUnZsCbyXFlUBY/Ru0Us3Y4EyVBilJznYgQJ1blBQyBVX2766bAiNBrIdG9SrVmmbMn0oUKRA5QbwR/qsiiBL1UIM4NHRiVGbp0SW0zrWlbgqMUpHauF43TofreN5CzZDgnFxc6qFK2VrL4xDCmUrhgmBAj+4KUJaDgGIbiPm8HVoNwnLn/s8IEXGGvPWwRiGldihcK96p2XPefCPLtJjT1s4xyb5zZLqOiloBUw7cqIDHq3lV9swrUSBn1Q/tHHK1yTOkOp35BK6KniCnUQle6mxSXfVDjYakQbbVUpr548hZWfpSOir0czWqzhD4xgP2zKpFewxjTuRBtso7511Lss1s27ziThVkhecDMUsybRvVjVHSE7D5tKo1NKklcO1AI4ssK2pQNqLrQfeloRMyXDhGwLcFGnPjKstdfE3gXWYn/Pb6vI0TpNXwtadpgsw+MBGXTLNwvL3ec+yYtDEsuo3VVJEYtkrAZIIOW+YxyXBDYI9Isy96QXD5hkeWI+XG/qO743X3nqQSMyOdxt7M4B68vjvGTATaNZFujHMBrKfo1zYaC1WGb+QEG7o8b2DSPIbGambN+BPvXNFikB76l7cjyFyjAaicjZ1nYLBCqxsdSdUOj1yWIyupKsSYEY3JpPCHxN0UVI/KvmkWHKfaUdkr85WH0aeWt7MogxU9Tq6MnaXKdmrl22hg2l2CQ1r1U+80hDnd1TQ1cLG+b7MIFb8Aw0rw0yX675dIWpD5NKQbFwIlnm9tSAhE1YHYruC2O0HWuVnbwr27onxtMkzguy1gWy1+525L5qQ6btSqwK/bvcMqpx1wPZpVwzUUVI+5AAkkib0D2rabzcqXzLjarxqtbQv/6jUhrdvkrMuR57h/UllA9fwgQPFQdM8PAnTot3H3lQDxFQioyx62DcKqvog17rNsAvLOaOP+MQRUT8TahmNBFvtvV2xOAkklqsasGgIqM9t2W63eqVUqz+YgEFU8/PRPA+4L4I+3XyJ8evry5fWHDOfv+ZcL+Oj1Vw/2/j8=);lineShape=1;" vertex="1" parent="1">
                    <mxGeometry x="61.894667410138055" y="6.12443510743163" width="5.939689484530721" height="2.9043383337722104" as="geometry"/>
                </mxCell>
                <mxCell id="21" value="" style="shape=stencil(lVfZbttADPwavxK75J7PafofAeI0RtM4cJwef1+qxsoiZU2RN1keiteQO7uTu/fnh7f9jsP7+XT8vv91eDw/7+TLjvnw+rw/Hc76tJP7ndw9HU/7b6fjx+vj5ffbw4Scnn4cf05f+H2x65Vynqw4/Lm8KdT7vxdfL/iXw+sC3zrFYPCVat3G106hGnwMlAswCBTEGiRKwKAkYuehUWjbBrlQtSkzU8zbBqlTtSFp0gEkncQbCFMO2wbSqNqqSqUGQhKtiTVQn5GBQfR9SI04bRtoisXmkGVQ5bZBom5Dyo0EeWBKNqSiHkAOsQ9qzgaNGqBGrKOvM1kTCfKQqDRrMPf+NvlIrAOdp464R9lm0HU+EPWoBI+viBeDZtdp03kCzGOSVUAVJBA97xQf4zY+UGGLb3B0AkXLul5gwnN2Mz6TgHwDsfu+UAP5BqquPjwy2qhPSRavbwBF2RNO8aiesopHBxvg08hugRew3zO16PONAF884bSeaOgLNTvzPVEF9Syr+AtFwB+Nx9W/wuMmr+JpcOB1ybmB7/D7svq+LjEQP/uzacKD/kaq0eMF8rlln2+C88XF15PhvK/nsQL+hMH2BR8Qf1Q8uHoK5P9n8Xqg2H1VMwV0xES/4EonBglPasZuoKuA2TzEbImynhlgZKYe2Jz15Ba0g2QogYU2SIBEk0a0OSTsQZR2dm2p4kE5SPbqQxUU0pkpjjYtNFpCg1z95ppmCXjIyY9yLHB0CvuyRh7TdNug+eWluwhJ5TaoPLcBBtSaP5wiMWiCjrqrKdYSinfLaNbyt/GzPrziGcSveKcwVV2Ajl1X4SJf9P2Vzo/UQf2n1WzjZ9ivhRabWT303aYDp/IpgeWo+GK3e8YN7v7qlIfDrQZUp9hxPI1ic/gGlu9nL6P/x+vD9eb7dHh5uVycl//7m7K+utyy5f4v);lineShape=1;" vertex="1" parent="1">
                    <mxGeometry x="65.11205395703195" y="6.7505159734795726" width="1.5841287000592983" height="1.2179613848888047" as="geometry"/>
                </mxCell>
                <mxCell id="22" value="" style="shape=stencil(lVfLbhsxDPwaXwlSD0o6p+l/BIhTG3XjwHFff18uFruxKO8Uua3XHC3FGQ6lXXx4Pzy97XeB36+X8/f97+Pz9bCLX3YhHF8P+8vxak+7+LiLDy/ny/7b5fzz9Xn+/fY0RU5PP86/phX+zLiiVMqECvx3fiOk84uvc/zp+HoTX5U4dvGVhLfjm1AL/fqJqgBAJq49oFGOAFB9RiFTTtsAYSbmDhEDZbDp1qj2RUpMAj7RClXtAXXZ1n1Aopg7QM5UEYAp9ClppNQAcYmkJ6IIhbwNKNmnVCoVkJIm0p65akuEbUCOxP0XbFcRiEl4oWkFNGqAh0LahnhAdKIWfbzqdrzJZlifQT5MTfp46x5QUhNqLyMTloD8TZUuf4XdKSQunwzjw5B/WmR4n2GKLp9IBaxfh/xN1KiVxXeyATKQnETS5AFIQZKpNL9lBW0jhcJQU2QuBiiOZCVFeygU+z4zVSDPllUEN7JTYKlm0Tz0WQQ6NR4ye0AFVapLDVeT/zDlDSXVMHwAxEeK4uMD2sFQ0wrt1Ow3eQ4yGGvDyDGSEygQD86VKQFRBAqucxJshETJMRyXkbXhpDLEo/p8Nt4GqvaE2UlDQEGzeWnfNjVAL1X246lgCrR6UatNA6C5YlbSq1rDMkPvA4qfHzktDnu/bZhSv4dkSwDaqnj7mk4uqDFlcYb1bLS20v09NE9csCMlAuSFprX3FQ6Fwv4wNdk+0JKKF3eCGZkyijsPUkPrGwuuRkv3bSqv30CgBEjTwYyMRbS+HUOcm+L6JD/2GU4ozV7X5n6AMC3UqotnpAj2R348C0rwR1mGnT/1pV8f3ShMoVl9PdEp85N3qP/H28PHhe3leDrN973b//0Fz17Nl8P4+A8=);lineShape=1;" vertex="1" parent="1">
                    <mxGeometry x="70.3942505110576" y="8.583447081072777" width="0.5469206967840478" height="1.480099480418806" as="geometry"/>
                </mxCell>
                <mxCell id="23" value="" style="shape=stencil(lVvbchwnEP0avVJA09A8O85/uMpyrIpjuWTn9vdpomJ2Oeyctd5WK3oG+nr6NPsg775//vDt8SHH7z9enn9//Pvp44/PD/LLQ85PXz8/vjz98E8P8v5B3n16fnn87eX5z68fX//+9mGsHJ/+eP5rPOGfVznRkOqQyvHf12+aBOv/f/Prq8CXp6/XAhKKrgIWaiECKWhbBCwHy0Qg4pZM5yNuCmQLklYB4wI1pL4IdN8k2VJ2naxn6CWkRARSKCBQ56luCqQeoqwCLdRIBGqotgr4oYnhUtm21EMhZ0g5yCqQYgyR7SkGjfiKTgxhwWTbEvGlFqTjmQt5fg0xoxWMrC+hrZ7nZhZyYAkNzptCZm6BbmSNmiCHvO5/hI4RA4QKwWzc6zAOPPgjWR+DrbFfWzBirxjquv+aQyP6j6Gs/qAWMtF/DHk9r0qowtbH9bylzyecrV/tWzRkov+I/lbSPNHJetC/tDv7h/iSEiLxn4j+JpHuJwVZ9ekR1JSt7+v+PSKEPD9jfA2NEX26Ndfne9brxN8K5kRPeon4mwZb9ZlSaGT/x9uPeA9K1GOozjb3d5Y+wX0qzT6+WVvVozNf3F4vuP0ya/lZiRGB9ZFoM1no4J6hk/O6+4A7l1lxbq93Y0Y4L/W2OivoRZ+NVXnf/3peRzZkPx5MfU2HbhEWjpI3/xTqbyO8QaDxgFHMKJecfVugItgaQcTwX5sV4hDgYMsFQKsXNdwWsNAgK3rVJlla+gSgV2mXOWrxurQCRs/rhXhG2QqrF45OLF3yzJuHqxYam0XmEa9KXyF2KGVu4Kq2smTkR4Tor5UWs9Kw+lVHZyQfFZvg58h3mduhI35qhb5BPWNARq1BSQDpBtxHt0LsoBXbG4sUYuqhkyuMxjDgMBMIeBJgAore6v0Qaz6qYTyYn4oEUPO6v6YZ482Hw0Rwb++46BsUkaALNPaGFrKggLA3HLn6+gxES27XuGmJ+ZI5lrPNDqz8C6ZK/4ZpybYWbbyTJAHfgK1baj0I29LWQbmiE7GDbS2ahyhLxtYRE3oSEJJmvGVKgHocVRHD9RzSlsjYobvbAdoWmY84E+jrlpSne28ToT54HmHNeFeMOM1Tb7cF6taKdArlXUDXN3gBYL1vb6glL2IsHvrmS3LHcG3q5KqwK3E+F4A0I0KTgAsgAo00RIfA6kv5SDynAuuWBmjlh25rAKVO+TIXyNCU6Kx6Z5bO0CUl7kuKEdcp7vZwABzdaFfeIwao8izWsS1U2vdYR5qgUBbC1ycIBcqK+HqoDO51/PnQt2XaV439rOsTTRa+Xtb9xHspuOJ6IZjH7RUTrI8sBiIG/t31YN87+znQ+9V5WRCniWN/Tp++HvafKes41gONQvvOsZ/VvtzfXD+9Pfy8P/v6ivGV2XljyA3W34lHQBU6FXa2XoG2mwFxtj5DpaEs6Igv1D/D8GP96s/ejd2JXyC6aaXc959oU77rh7cUu/4jxWi7fTlN/+b1Zarvok/mD16QKjS/NJ8PXLA+v1HWrm8EQUpUob3jgOhChZ0JAJ5Lde7xTABhQaJV/mqUcgUkWBTceEWj3YQLAKXgYKhyAaBb5a6aysZfMz7dBYAhGFQMS+2bqQdRwroJQ98ujTcHbYPukaOnjRbRQlvZgc8gHIzjZEV8U/McXJwFqK4FpyrvuQQjrhol+r3nKhu1k3nNTEC8KIXuI+kByDSaBQYfsB56MDUszdc5dr5ialg8mCL/bXd6350WqaEzgYwDKT8VY19tn7AeNMYZLYIji0SLc2uYK8dsnPiS21U3AUabN8ELAf2YQ57RU+BLA4ESb3VnBm8dJZvNdbZ23NqkAM5IvLxZmrHg2pHJt6MLOyMi30YeqSBKtUR59pHnIKY7jYdiwUCgUSDgqTeBQKFVsSim+8YvZpSCJcttHxkLvo0U6x1iPmN9qJGi+ZI2NKy0ZHkJBAZZ+aGlY8M/qHo2RrKZq6+pHT6zQWrHaEGRigVFCq0Pokj9OzhhdpCjJzrgT6WzgoFdYFCVaZ12gbgxNZlpKSHb5CiRwR8/IgyEHYeyiBujtW1AzVi/MTGGZMxfIHgE489PCE0aff4YCeMInDF+rkBAlI1feCkI94wWq5Qx0XfaCqe43UCIdDLSEZSMGwWst0Vqyj2C9Xpto46U5rs66c9jfaN4QbfWll8SK5i7LneWbocATsAz378gQHKNsRF7xlmZ3AkYbEhGnmF3HLA198TIoHnCqVRJlMxNSJEXPmNKOFfzIs26l7TNpYVCqS3FKQ/IjDDHkRLL0hkhdm0052Zk0+/0IYI3xFqjN9wE7Wsc/RbMV6Z06rhR72MOygbYmD8vZORJvMMNPW/1WILbBibeS9LuF+OxV6rPcSVUUaDxDA2D38tg6rQEGL6BXoQ9huGHgFK+1YtYy6gkliQGHyibFZiA3Gi6CguzrelyP+pES6PuQi9beSLtk7O76j9YphvkEoROpKVP8oYl+P2scRtq6w46Q3Rlu5CS6P1KF8Abe4lyCi6g2xvYbEC2K4pD4E24tyXadEnZBvCJXgySLSe5QGNvUJxveBJmoEUUG5bGJ2QuIBvdZEytit7ahN7CkQ3oXGiJUy297YcS9wX8w+V3GZ+evnx5/VnH9f/xdxz+1etvQOT9fw==);lineShape=1;" vertex="1" parent="1">
                    <mxGeometry x="73.20165965055008" y="5.841551923202765" width="5.611015117596787" height="2.4354778173363743" as="geometry"/>
                </mxCell>
                <mxCell id="24" value="" style="shape=stencil(lVjZctswDPwav2JAgudzmv5HZuI0nrp2xkmvvy9UD2UDkrbTNx9YkQQWi6V28vD++vS230V+/7icv+5/Hp4/XnfyaRfj4fS6vxw+9NNOHnfy8HK+7L9czt9Pz9fvb09T5PTp2/nH9IRfV1xvFPqEivz7+kuhUP/+8Pkafzyc7uOFQjbxlXrYjm/6t31+YIoIkKhGC4gUCwAw1WYBiXLfBtRCyR4hVIoMAJFStYBOHWypNCr2DFGIBQASdbslLQODMpRAxaY1drhCbtTEACSMNdcBmUqxgDQSvQ6I/gxSKScAUCIkA0hMCVAjaZlsWpNQigCQiN0KZTxiHRCIgwVoWgE1pBHbLWkaGBxak1jsljTRArikZQqWfFrKCs6gDSkWUCIFsKWoWXISkCkhAHsuTYQHgKBZcqIRqIG0BiWfXaFmSO8gXsZqgzKjKiRsAE2ogbRm6rbQvcK6Za8ZqrQJxGtzufhOAvaju20+voF+jkOmbzrMkNrBt7MuUMECylP28Yh2PNJxlyBUMd1t8wVgoEfsW7lnmCAeU2aOT0MBN+KbO68M0m7kJ7sCR2pA4nXodB+PCCQLwsUx5zYIl8JiP7AB4uK8GQ0Qqot8ZjQ0vVZrvSrgTxnsneMLHMoqKY7Pan0A32bBueMzwwZ2CjT1C3i++Omn8R3YlrjgZx8SsME3WQoK7JdlflB92c8l7ccE+Mwr9UK+jod63PEBTdbVeMjPYAVdjSS0XH4AqI8UUK/up2rVGQXOG8JI9wzgIanrgDQGxDyGC2XECC2Qm9uCnQF7H1sY5nSyElaks24JmxXnYzPekizGjDo0JBNquMSuoB4wAZ1W1+q8R5rvPOuNrxcQt4KaC+Rjharz4pUaAhQqttf0VEgrNCeOSxIHHbfMe17cJ9A0VtearRxpg1R8Aal23qgCQn2PXlCVjsiAqGvtVgGU8Mgp17nh726OaMTWRNFdNQPsODWh1blMaqAMLXoR1sqD5zeVIMdVGN+DNy0B8kglutmi8VDN9fjqTQX2mDpieBEPCjCNpObiUaf1hQgznMkan51LhjNqGsE+vqP86Ii3+58LvnFLWUxNgVfkmye4EQJpl8Y7hU/UQFNqfLSEy/AGrgWr2cUj0/Lfr6P+Ga8fbu++Xg7H4/XV2f3//l2Z/nR9zyaPfwA=);lineShape=1;" vertex="1" parent="1">
                    <mxGeometry x="75.88975787922499" y="5.855011978949236" width="2.030335797835115" height="1.6191673063926963" as="geometry"/>
                </mxCell>
                <mxCell id="25" value="" style="shape=stencil(lVnJcls5DPwaXVEEV/CcSf4jVXHGqvHYKcfZ/n7AUVF6BPRa1k2WGxSJpdEgD+nD98fP3x4OMXx/e3355+HX8cvb4yH9dYjx+Pz48Hp800+H9PGQPnx9eX34+/Xlx/OX09/fPg/k+PTvy8+xwu+THVOQYRTDn9MXgUL4/4tPJ/jT8XkD75Sahcd9OAtFh0/7+JipJYvP+/gUKRaLL/v4HCi69RFeKLDF1318KZTCHfjK1OI9+EYx34FvcUbzgmfgz1ZIrH+SALxQt/sR3scLU1njxVRBukmitq4fqXWAL5TXeGWKaD+V6pqf6gDgT2lU6oJvJCD/RYjNeTUAwKFqUI1BnFu8btBtRrD6ALioB5sSWqQZnFkNZN2SBq2ALXV2QcvQS12PaAzUb+gMyYYh6ZZAXvdMaf2FlGemXzcoFFcvJYGZpAZ9zaTMFEGke7VnyJkYxaFSX+OQK3Zrs2Sdlb7RL5yT+VwNDMutyzzi2SBPQt4zMPxe6oz9dYM++e1sINMNewYm0sqx8NCdSl8NEglqgd1yZK3zN/cMujHokLWHwRq4xpCWhsF6hpapgmzl4Figtdmq323RqeFIyHoKibD5q4ERC5JnFe7la1uTQ/kcFmm2oVNCh9kU3JY6ZUT4ifragAZ9AgPtuCb9lA0ZeKmWmZ1ng0QZeEk1Ca+HVjdUJHqULFeiUXJDZ0jJJvjgKpCv2sWrOYNA3uBEcY30JVmuu5VysfgOmKxNWXTp01gIK/Vm9wPgBMr2YvGopJVSusU3lBYUHR416Wv4DEqnTh24DQA+b7N4huub1jOYH9UNscHLJM29hMgOj5StbVRjP0g5z4Tfnhf4R1xR9hmRHbzRIyNeeH3n/4qIa55um2/Qn+L2L7DAii9IuH60wvlWQXZfkLAAqgtYh+t7RmkggbRg2AUAF7ArMCTLq9U5Q/nA/ReXQChB67UCAPg2y/XdBXYfXucgIydGz8BNxpbMeXrea2PFuLRATs/J6rQhMADJqTo24772biR/tdnbVhxhs1c5EYwBw4lfBQuveSdn3bY7cK6dQ2fWgmSdyhMnulAchtfNLxSsyN2go8IRkbUaGLKQiK+9lB6NIr8hfr0B1tfDwNwsYAk/DNZI3xoSxAr4MYagCbVNQtwOOmgcbJZTxyiFB05zXaPDGpLX3em00vFM4XSFDpwNpUad0+JmpE0o0sV6SYdm1AnVwHSSjFu5Ghiq1MEftaqh71cvqaSHdxHZ5lK+EYdku1US7KUzbW0uYNCIoLRV19RITA0dOlBdt6SaBo3lSmRmeowZdiDlOaP5I8NcugyXm6s2KMKcquUCRYPOu3k9w2iT6EK12C7KAV6PqIHtD7ifZNseKl4/2Rv5DHNb2FJ3wvejerzVpRF23CYWz3A/fn7HlaMkbXNiKvV33vgrHsk896KA8f7FguGc5l9EbuDdiwvG+xcdnjVxXeW5FyOM9y9SDK9b3IMXQ9XsntNwdIPtTnj1YC8RcGyDbWUMR+pgKz3Mu6wduBEsAd4Vu+vDAC+hrsDLfZtB71ZhPi9c4Ogywzky3BemMMXg+5LgxpvqfS+2N+H64fI4/PX49HR6W97+3z4m61enh+j08T8=);lineShape=1;" vertex="1" parent="1">
                    <mxGeometry x="78.46588478744314" y="3.650760212570674" width="3.428427600974498" height="6.404657514798587" as="geometry"/>
                </mxCell>
                <mxCell id="27" value="har node ka ek range hoga&lt;br&gt;which is sent as variables&lt;br&gt;int mini and int maxi" style="text;html=1;align=center;verticalAlign=middle;resizable=0;points=[];autosize=1;strokeColor=none;fillColor=none;fontSize=6;" vertex="1" parent="1">
                    <mxGeometry x="67.83" y="-12.94" width="100" height="40" as="geometry"/>
                </mxCell>
                <mxCell id="28" value="" style="group" vertex="1" connectable="0" parent="1">
                    <mxGeometry x="170" width="102" height="75" as="geometry"/>
                </mxCell>
                <mxCell id="29" value="" style="group" vertex="1" connectable="0" parent="28">
                    <mxGeometry x="10" width="50" height="55" as="geometry"/>
                </mxCell>
                <mxCell id="30" value="4&lt;br style=&quot;font-size: 7px;&quot;&gt;" style="text;html=1;align=center;verticalAlign=middle;resizable=0;points=[];autosize=1;strokeColor=none;fillColor=none;fontSize=7;" vertex="1" parent="29">
                    <mxGeometry x="10" width="30" height="20" as="geometry"/>
                </mxCell>
                <mxCell id="31" value="3" style="text;html=1;align=center;verticalAlign=middle;resizable=0;points=[];autosize=1;strokeColor=none;fillColor=none;fontSize=7;" vertex="1" parent="29">
                    <mxGeometry x="20" y="35" width="30" height="20" as="geometry"/>
                </mxCell>
                <mxCell id="32" value="" style="group" vertex="1" connectable="0" parent="29">
                    <mxGeometry y="13.918021306431228" width="42.19624544701863" height="27.816055047083545" as="geometry"/>
                </mxCell>
                <mxCell id="33" value="2" style="text;html=1;align=center;verticalAlign=middle;resizable=0;points=[];autosize=1;strokeColor=none;fillColor=none;fontSize=7;" vertex="1" parent="32">
                    <mxGeometry y="1.0819786935687716" width="30" height="20" as="geometry"/>
                </mxCell>
                <mxCell id="34" value="" style="shape=stencil(lVhJchsxDHyNriiAC0ieHecfrrIcq+JYLtnZfh9MVByL4KgT37R0c7CjObt48/p497LfBX59Ox2/7n8e7t8ed/HTLoTD8+P+dHizT7t4u4s3D8fT/svp+P35/vz95W5BLp++HX8sJ/w681qjFhZW4N/nX5ia/v3h8xn/dHi+xBcqOuATxQzwiaQO+EpVAF6IZcBLoJCuE6pSzSNBSQMgCOlICEIFPKHk/vdKKJSAz9oojjGKkRIwSQNVHgmNEl8nZKXcxiwkahUQmOrog/3CgJDM6TgSEmkBBKHoCJUyiFIsPnEqPQzbhEw8+qCph2GbYGEda1sVRilOxWepFPCE0LxJRSiD9glWrWUkrA2yTbCojyYV7R27TQiUxoYrjQpInDU8jybVAPtBSs/rSsiUIyBY4sbyrhX2tLV8Hn1oTAVMDeE+hFZC6IHeHgIUx/6xOVWAC0pl9KApBZBn8bVtcxaNPaua5PENRYjCaI8w9yBvEqb+Xx4A6o4py+QAxIfp/ALKdCo6w2dovyshw6MEGH5KAEN7gvO3wmHElNTjFRSQ1W/z+AzsEZLk8QlMIun/Xp6PerKX46X9aHBN8ay9oq7gpU3xh+f7+NsSBQ1j50ePR9tGqE34AvE61U+DDRzDhAf5WlXW/zewTgFCe4A3DCqwgWU6P0M8zwkDAeXefhd4gf7KXHBgopu/xeMV2v8xfCZx9mdKoCBs0bsGiHDg1glvJQ78FdMqjmAhRh0f/YiotsjRE7SftxJSN3KbUP3SMCUhoCaWrTSaZFolIHET/RgyNRQRIfcpshIiLOtF2jv5ZK2KfDCl7lRpxapUvEmmSiNInF0e8jgr1EoJCWXtl4cLZY3Eflxn26rdC9x+dtuI4xNy7AN2m9D6BWi9sDTodLZ+c/fMRAEpNPESMOKNpqUHcSUEUpA4U+rBXRwVisbKfonbmkAixHR0GPvBpDOSgXUKq+D7hw2V7KQ4vH7YkGsuqlSByzZEeUwbw5tvq/71gAkxMJMM77LMcMIsKsjbw/h8p9PWPbeNb35G4i2+qNbi8SiezeeL+9i/hldvP7rALqrexxPN00V0eHxCO4Qn4W5CBlT0u2x6x6NJ9OH3V//E24f3l2UPh6en87u2y//9yzX76fxiLt7+AQ==);lineShape=1;fontSize=7;" vertex="1" parent="32">
                    <mxGeometry x="19.564740664598645" y="0.16814491020784317" width="4.077038719613128" height="5.973885570734757" as="geometry"/>
                </mxCell>
                <mxCell id="35" value="" style="shape=stencil(lVnJUhsxEP0aX7taa0tnQv6DKkxwhWDKkO3v0xOX5FHL84CbPdab3l5v8i7cvD7evex3nl/fTsfv+9+H+7fHXfiy8/7w/Lg/Hd700y7c7sLNw/G0/3Y6/ny+P39/uVtOLp9+HH8tb/hzxjFFWUCe/7YHXP8/+Ho+/nR4Xh13lPNw3FECxyN5Ho5HinH7eCGfhuOFsgPKOBKjjaOaASBTGAXoEw8Aal7xA0CfBA8AQtUAMlXeBgT1yAgIngQAoiMejQ6FIgIIxTIGIVAp24AUrJdioQIkJFVgVElf4UHgspo4SkjqpQAAmVwdAZUKklBs4FQmp22AcHtfBwSqgKviyccRkCiCXBB1q5GQoQ2i2WNsKMSAfJIsNXIlJxBQRmqoGxCXJJOMKkmvCNcBQtlI8DDSoik/FiR1g0NeqpOERB4YXZjyyCW1KgIJxU0qCSXApeIpj/RWqxJSKdh8WKwCbi2xObFXSuUvkqAJZAC+ses6QCxbVcmMareaaCQkcsgGzWBT7ZVdgBrV2XxQmciGqnEwAJUJUrRqyo9cUpkJSVCqGUAgB7xUs+23NTZ2XQcIyRgHfYUDKVqrzelaqCIJtdW5DqhwBlgAxQI8yAfHOlSwRUQUahVRLQCNAgsgWYBgq62bKmzUtdoGcfHDFsDUypUfthA5TCJACunPKVsAKgMLYAqEIL5W29qXV2AJMyBgNsWZTSjnqi00C1+xl7IxujS2bAKmFIJ1o3Pt4wBT+xaVcBzMXLkYjW2oMrkVkO96koZ3CseUpKgvXti8Zh8OdZ1yruBQl89mkOm8H0nSyYh36kCaKw2uZZ8ESNuqOkCIkUraQoyE1FrlVp+z3Ii4C4WpbXk4HevPZumojEPNluDa3NHSUSa36oyDNq0yr6PqNzwzsRmBIuxaOiGVkUsFL07L+8aU0+EU7XL6vmTGOG7FbWt2jWOkpfttazoOZpzWSRANitxa/2qcRvO3KhBHG3Rg90AlVcCqlGDgVIFgdoiAt5TcKuNqrckIkGzT0sUpoMUptr68Ws0ckhBsh9BtEZU+BRi2ZoEjk2ps6r0usBHFgW3G5QhVUo3NwK5LOBpFdeU2o2jm1lm3bh7S6NYkcDpOUxFIsS3+W7cnztyeaFMCgChtXe2A2EJ5HcB2eAgVXquF2IpKBwQ49XmxZWa510KAfg3YAR7S2/VK2vuu5iAaT/oi1gFKDVQqp44FN+ope/BljrPdysPlmC0nHLyX6Xewl+OonevxkdMMs4yb3y7HC6DbNBYyXFivHEcbNNsixHDmZHvDxTAZ2bIM11C2YxHDxYJtaWDISG43x6vjgPFsG3F31dbxz1zkv3tcP1z+M3g4PD2d/3JY/27/Y9BH5/8nwu0/);lineShape=1;fontSize=7;" vertex="1" parent="32">
                    <mxGeometry x="27.34329623413376" width="13.43037879425657" height="6.528432542546019" as="geometry"/>
                </mxCell>
                <mxCell id="36" value="" style="shape=stencil(lVfbctpADP0av2pW2vtzmv5HZkIKUwoZQtrm7yPXtfFq4bS8GXPk1eVIRzv4h7ft0+tmEPd2Ph2/b37tns/bwX8ZRHaH7ea0O+vT4B8H//ByPG2+nY7vh+fp9+vTiByffhx/jl/4PdnVSjWNVuI+pjeOsvvz4uuE3+8Oa3yhUhq8UEwAnyjUBh8pI7xQcA2eHRXgUCmUYmsQKQRg4Cm2JwhTktsGOZNIa1CoAoOkOQ2Ngc/EIOjEVNoYQiIHYojeZilGEnBCCJTasqUAg/aJfMuL7EnKbQPNSeLGoDA5BgY8E2ExyJRA0FpXk1YlSwEnMJO0LikbI+BSpthyVdlegUeOXBuBdlMCOVK8s/gIAlC8t3gP/eFo8VwR3nd4lxE+uS4/8PtmVox4wFKeu+Q/v88U+B7/ufMf50cZKvfkX/FdPlF91Z9q8Yg/TLH7fgFNzOQ7/lSP8H+zt8bD+ua2vuwWit8wiF3BakR46RwqgEDaAF2BMwjYzRNqXTDYAD0+wHh7fwQ2cB8vwwHR5xPN3K5gY4PBhrGEUDwkaE84pGPXCM2AD9caRmAD34dPVlY1Xg8arBP6GnGDLaK7kjDkkFbMeKQiiTKkGiatS0VJAlzyYa7oIvRYVcOyB6xWCQYkimJlLwZ4QtKgWxqFOCvzdYNCsU2rri8ZrXTRNoKuLwGcUMRKsXJL0FqarZbp+uIQlVQsW67q4utBWmuYqXbZrD3arPs1Fs4ipb60zenw98usjRe8AKYqPhSDR8yu3aLvoNiPN5UOjwpQ7bDDWjaOEus/mr2jVFSLR/HqLmD9Yex/EZt/7I/hj8OzbtkFLviAZrXr1l0HxfXuq+g/8fpwufe+7Pb76dq8/t/ek/XVdMf2j58=);lineShape=1;fontSize=7;" vertex="1" parent="32">
                    <mxGeometry x="8.538293097297753" y="16.56522440687911" width="4.592531380150672" height="7.765862021405667" as="geometry"/>
                </mxCell>
                <mxCell id="37" value="" style="shape=stencil(lVjbchoxDP0aXjXyXX5O0//ITEhhSkOGkF7+vtpSA5Z3D+Rt2dXBuuvIq/Dwvnl6W688vx8P++/rX9vn42YVvqy8375u1oftUZ9W4XEVHl72h/W3w/7j9fn0++1pkpyefux/Tv/w+4RjimUCef7TXjj378XXk/hu+3ol7im6TtyT5GXxRCV04rm9mBUXKrkTd0wM/t7p6b4HxGbPPKBQjT2gUgEAH4n7E9SE/29mAYFJ+hOCp5oAQMhJB4gMbYjq1NoDhDzwagoUekBKUKXMlHtADhQjABRKvZeK2sDLgBIoG4BmBnBrEZLUAcTDRJVArk89ye3MeUCm1J9QtRRAHKSS72uhaqQBoDryfa3VRCwA4K3RVZUEcaiarQagkQFemhQwNkjz2xJAxAISskHjGi2ggtSYNDaACitOP+dgTxBkQ7Vd6TZARgAyulId3ForBhRrNIqDY+2MbBEB+bU2Da4A8YYR2QIyyj5103ACaq4TYLBBMKAMAJhMqvF4AjY6jQBUQerEMHgJhzqIBSScfWGIQwBTcfYEh1UabWCskvWStIy/Nw7S5uS9kZY26+/NJYHUZCZbBU7F2XqA7Xuu4jwwer6oI7Z67BvpRqNxFoAo2UzvqzcjNwBu1OgnAaX1rQtNPDtuaQgZujEZgfyaGhu5DgSevOOIqMivwfJEBXgUOT+UUMEN3w2zPUGj5Zz/Z0BoVbhEmbxpNAzbgHI26dNV1AZQc0r7Ul9CcuZES8TSNMui2YK4biFvAI4c4rpsm2WOjcEv0W/DRFOGE0IJfuoBSvARsQy61fTZGl3jpktLSurjEHCkvX7uU2Pa5PCilfsTdLFMIPl0lTO0zyXyKFvt4qq7Isru1BrpOc4UQRB8WzzPHoJ9VVeFvjgZDh+2/85UQAqxXUJ1QcPiVpmElbHiqNWxbStMATQ6FY9GHIVVxasRRzyYW61exNGFAduVjeFqwba/4TGjjhiUAVXI9i6F2/a2JP6Zm5qb4vpwuRR62e52pzul6+/2EklfnS6gwuNf);lineShape=1;fontSize=7;" vertex="1" parent="32">
                    <mxGeometry x="15.15067034740025" y="16.73338759431124" width="14.4058144281356" height="8.47192522351325" as="geometry"/>
                </mxCell>
                <mxCell id="38" value="" style="group" vertex="1" connectable="0" parent="28">
                    <mxGeometry y="15" width="102" height="60" as="geometry"/>
                </mxCell>
                <mxCell id="39" value="7" style="text;html=1;align=center;verticalAlign=middle;resizable=0;points=[];autosize=1;strokeColor=none;fillColor=none;fontSize=7;" vertex="1" parent="38">
                    <mxGeometry x="40" width="30" height="20" as="geometry"/>
                </mxCell>
                <mxCell id="40" value="1" style="text;html=1;align=center;verticalAlign=middle;resizable=0;points=[];autosize=1;strokeColor=none;fillColor=none;fontSize=7;" vertex="1" parent="38">
                    <mxGeometry y="20" width="30" height="20" as="geometry"/>
                </mxCell>
                <mxCell id="97" value="less than 4 wala area" style="text;html=1;align=center;verticalAlign=middle;resizable=0;points=[];autosize=1;strokeColor=none;fillColor=none;fontSize=6;" vertex="1" parent="38">
                    <mxGeometry x="-25" y="40" width="80" height="20" as="geometry"/>
                </mxCell>
                <mxCell id="116" value="more than&amp;nbsp;&lt;br&gt;4 wala area&amp;nbsp;" style="text;html=1;align=center;verticalAlign=middle;resizable=0;points=[];autosize=1;strokeColor=none;fillColor=none;fontSize=6;" vertex="1" parent="38">
                    <mxGeometry x="55" y="-15" width="60" height="30" as="geometry"/>
                </mxCell>
                <mxCell id="41" value="" style="shape=stencil(lZzJkt3GEUW/preImoe1LP+HIkSZDNOkgqJt6e+d5Q7gNW4+HDR35OtMoIYcbt7Kwkv+6Y+Pv/z+4SWFP75/+/rPD//99Ov3jy/5by8pffry8cO3T9/tXy/555f8029fv334x7ev//7y6+v/f/9lSa5//evrf9YT/nzVq2lLfWml8NfrL3kr5f8//P1V/vOnL2/lwzaCyudr+TL2Pz/kMzy/NC+fSD5vM4p8pPHELej4Q7qWz33r6SSftgHjyWXLKl8byNt4isinei2f+jbHST5uE8af6r6dD/kG41nLrc8vEeTtz1Pk4wD5oPO1BYD9inP/8xt5eH7sW3PzhfWJbatD1r/B/saq62/2H1A+n+3TDAT2N5atnu3HNhD2K+Z9ert82zqNx6Z33q/DoJ7Lx63Xk/zk8bv4YL90MKCp/msjDPCCuf/1kOcNGBrfbIU7GJzZj9hb2yPGhbyOp28J5M3eRH7ggrYtivzcKqxn3bf/sGdb/0nySeJP2mKHALr183qaAzQYf9nS2d7sjZEC7jYkftqKwfjzHp4O+bEFkE/bPK+nWRTZZ9qK+HvcPfpCPkg+tYRBDrb18/qvDALrH/fdP+TrvmIX8rmd5TsmmKj2kMe+4xfy8Sxfwp4Br+TP9mkZmezzCPeHfL55vsqXm/VR+bZb7DvlDSFQgHby8+b5UeK/RVSUT2d7NkSX0d7EX6ohKErAGg/rTULa5tkeasf4mRQv1bFVSMBJ80sL6O9Z7b8dM7qQl/zebgDl1s7r2Qrag+EBGb/ZG8rreCxDgT+2PRof8hPzadf16ea/sJ5HdD3kGVCObZztp6f9l4v8Lnim5z1iXwEOKRh62SHFFaIRRNArKyRNwb2xglnM2Sa6gSwCZUVBcR8cVOpetBwKE8uMBWLOZjQC1nmGYuLZLkbkvDHUkUdCx1k45mxJI2MpsEKdDKnsO3NVy0R5Q8Xic2Hts3OOhstq3jNkSB2jaT6c61CwdEBwKGv9M8OOSJ4r1B3OHAoRA4bl93Kew0yYMS3BC2SfeS8qrmp02YdZtkKY0YHSWRmUWo6JqkBRqQyFXbOhtdag5m0KFVapxm10VaBAVl3lPTsizVq01J0da9da3cZ1xBaWugXczbGHtucKZktdFcjj6tT0YAqVyicLAlEVKJ+3pGFmKcCkm0MAptBhp1vdAddbBRpS2xHvexWGc6DDfp8rTGVlbuZgSb+5faBVsqyvYWZgmLG0/0QB5tAds7EUqBIvWhotW6JJV4UOpkBcguV9v9OJyIS+W/8bj5u0SsO9oe8A87nCdJM+MvdzPGY7LW9ouKyW94coWBwhhJgVa8wD9D5XKAqwZkGOw9J4OufplYFo0k2rpMko1NK4DikhOHnk/Tdpl3igMZSoscROhb8BBWFyBzNB9jyhph7vvFIQF12zAgeaB/R/g5cInNgiRoGhdaswaVMQ+t2MpRI9mNU0zBypXl2WI0NKe7R9rlAUnDxc6kpBKDNz2gCRb1aNGhZHCJwshzyvkoU2YskXdjmvkoVn8mkLKlpwBEQzpiA8tiUxKppWYDxP2tLkpI0byixaIkbm+Egf7yztp6td28GmXSnM805XJhfnVNxqCAqHNHUfamN/8AoFM9AThbzlmyHJHJjRWwrnfTBwTZTYWtbzPhh8p0O4tXHnyGcFApFi0wVjK0HQvIfSwqVgFl3Wel5Wq4qonn5A80Mh7Qt9pSCYzwo1wnzTFU15IvZ+VDxvuGHiYmdzh60dyX8LZOW8cVbOEnNisXXKGwrCUFMQ/s0qbKpFV35whH6iObiK3Yp+jK1p969dIU3ErZZ2q5zZDDYNh+5Tw6Q4piKBVNAfFrKQYx5Ou8MxJ4s5Bhc1ZCEwNAVcJUMWXU6y5342cwVDpeBYh8k0pKxgPTb0h4Us5LCzIhIYQeFPzBhbDVnIcXNMSKf3rtAhRoSh3QWByNHboIgWr0gwL75XIB/XiUlNbyBSX5WrMN68QkGTCRdYVntPOXFA4NOmkr8Nrc6TAYwAWldSsyHzayhKsm3DDpBWlNK8eX7U/b2Vb+75zBBVnW+iA5OoaLthmGj+xA1LySUvgAo55ebOJyr61xr/FPnAz69n+yxIApq8lC8FQ9Da36nytJ5JGb2C4M7kxZ4rHjAuAjDrepI9Jy0T6k5qvlseuTk3Hm4w8fNtd+OX9WxYtPj9uvVHsQeTh6Tn7Y2TpLfnhqc8z/wF4+0Tf6QGlmf+TrWEjycVSzofr8peCb8zHpq/8Hwl3t7444/Ku/hfduB1mV80nmD8bNqBVrChxvJd1edTwWv51MVPtLepFURF/zL84OyHuMru7LNhh6rhn6j5qzC+iop/iCvqroOroz0Y3pOOyoEUX2/akcVV6KLIpaMvYIeYYWItBCJa6IiKsCKfTBuu18qhMOPtMK4VAkTzDweirdRAEr6pVUc+27CCTNKSlUvkZ2O4KpTZseEOpRIfNM+gjPejm/CqMNZmwIo7PV1uXf0wRHa5Q9p0cE1XfINSIIF5n6INPDmiP0/XUZQTApDpAH4uiEBm043LFZvyF7Mkb2iIoaaL2avvnhiNoUVTHnxUMbTvttzsg+NyC3eSz6lxsiQmsKc6UClML0+tXEvF1G8KyiFyS8F0tWsZ3J0Zwo+SuVPh5j1drKT6LSEtk1iUN0WB6XoWG59KuXVdtD2/YQhHPjn0TWXsWuTDvulQc77bamnkM2B24xCCwwxpUSGyWj9kDpNP1hwn2ONdnBEo0Lk52CKZdiNWvL5kCsKn9c77ULV/vc/b8C2ntBF7CixBaM/Z0RN7SXmfV2kduNOQsjJeBj+IAvJZ8f4cuJ/3weAH7sNxKeFQGIiwFkcuQ5oIow1sTHe8jscnDtfbL0TELfwjzVERJz2GHj3YMpBpLFLd9UXQecsi1YsqUBodVQPZOt0mBrvoTq/OPJpD1o2bXM+Y9YsDTb7hsOB9VgWatHmwoPUHmrgqUXTSEzm53rWL3BToVKq7a0STrXVVZW5IRPutbqqhCgRnfL/WG3Bwydy7WWN3lG86m8iVPGlrm3dkvDbOcRX0pDVv7o2fl3SGVyB+zrcX3ihkBUxLgRiNpAzdnHeUtvaFTuQEVhuE2wdsVR2ucW5iBVGbwsrJjdW1ug7gwf25xfVJ88FUddcAVhMAXfWIriWsoy0Z1JasuJoA6Lb0cDvdsWemOMA0jwuzzxXczYTZkF5aRZLvFqReb9/AWJA7scrQdwtSrMy+LzRhPZAdnJkRzzhz0FuChh2IJE5d2zwH8w6puua/jrRa8seoDRFWCgoFFklFV0qmXv0zcHBzl1tOGgwcUMURm7tSkvi2clVIZuCAmgqiI7tX8x+9IbsSZSJaj46SMjSBF0gd6dU75odFl4pC42JUHc7ABE3BX/m6wYiutzAzvNJqoyckBJryLIYjqF3GlXBtIvNTlVBv3BVeFGMYJqD1zO7Ajek3l3cMEVCiSuoELeEtj6gFaAtYE0cF6JbdqakrKD9ZO1JKwR3AVuygCOqSleNQ0PxRE87XBfcaEKU6Cu3mirCX5yvIQfv8bq44B/XHwieMQdnewtST60svx0cmLuT1ynjANBD0ANwQAMXooDxV7nil2MXPXBETBfXfxbfjFWq5Am74ApOSlnar4RDlBXGtjiwCH+5UpeM9gqTxf53gY7wS4jxxD2dWIvJx0fMi3oo9JL4RWZR2WRZFMFyroTiQb65a7C+gg/lLUH7kW6muwozcsdC1l3ndR6ZGSd0vwyx4r8R9wiTipcDoAgozD9FTd+iP9nrf0UfjSVoq8rGLYT6BoWX30EtQqd/gwk84VE3wCc+NogM0ETseH+a1ywcGlF1J8sDfRBo6/oAdF/4bUMwrrcclladb3I4rDoiv1vZUnS/4y2r40/niJ2eGJsiA8SS7b6pErNyys7fIBXTXgBuRlihR9ythl3PJCvgS2kNpysQk/kacu+Ge+GK1+4ZVQkbCf0PvVl4YPf5kS3XfIEp4blAdn5ew9K9JL5InvMtS3TfEEtpzdTwvf0PvmTzRwn48GfGbn2/Gq5p+PTP6l9+v/IP2kLGj8oe/2Xgrb/94fCDyt0+fP79+X/Lt3/WDkvbT68co88//Aw==);lineShape=1;fontSize=6;" vertex="1" parent="1">
                    <mxGeometry x="189.0106105176581" y="19.71751639239767" width="11.536236033993118" height="9.599535997928085" as="geometry"/>
                </mxCell>
                <mxCell id="42" value="" style="shape=stencil(lVrZchw3DPyafWVxSPB6dpz/cJXlSBVFcsnK9ffBZM3ZYWOmqX1brRpcEMTRAHmJn348fvn+cAn+x/vb6+8Pfz99fX+8xF8uITy9PD68Pb3rp0v8fImfvr2+Pfz29vrny9fr39+/rMj10x+vf60r/HOVa835uEoF/+/1m+Ri+P+LX6/456eXPT65JohfCH5xrQE+tHN8bW7xd6xfkyvLPesHu36o5/hSXQqILwSfnM+IzwS/uFIQn87xubpS79AnJ1fNfol9cnAB/SEQ+6fqIq7vif4pujzaR1wh+kjt27vhhfinhK5ux0fXiD5R/ScDPhJ/CK0fZ8cHV8j6upwvgF+IPZeC/rx0BzzGB9cy4D2xp4bXqI53jaiTneDqP8Pn2PquovKZGd9VtGUivhz7znZHS5QJqHtymZ0sBm7pmevY8K6Ohly8K+ygMG6X2D3vDD/m2SW7Fil+NL2e7MLXH+NWrckCS09yNL76xk8Nz+wzrh99rzQnePDjGGmghJ4mN3ye4DPoU3liQGcT3RHZr+a18bxEusVOQgXylBSXyPpi8rinhXEraxted0SixdbR7ZuTzOBBn0qJQ3ZhtE/2fUcn+Dieb449QM/w43lp5VtYIXUy7jcX54n9FQ/6b5X4DD/mh+J7PjrBp1GfEmghVfxYp4t6ICMCBq/EiusDeLUP3S/wJGVOlfpDGv2nepcpXkZ/ViYn/HxH+1fpzOaD+ETzv9W/TPRPoz+vTJfiIV813z3kDD+ur8y70vOt43m1SIlDwXzbZIJvBs+YhpbPCgKaYphAxIhpm8+eUatgBBoJmbWGjTHQSme7xwIFybAKMPa21riMAoykRKWf5hcqKzOCdbVVSuG0rOBB88SepLOwnQCrZKka16u9CTrrSYC0qkBjsSPYpK4CLBj0mOo9AsVj26wClfWFAeN/sum1kWwowMi05ue8oICw1ra5ZjbNej3NuKhSoQy8RiS9azzwbh5YdUs0q1YzjlABYSopS4wosLCBgSn8KsCIggpAE9Q2dzwWKNhyrwJs03rSVoD4Ui04hGmJJu9ascttfMygAkCn1nMgzrcKmHNgfFMFovkF1hCpgAfny7TiqpWg5VIBNotRgWhKVmQqbS3cXoCplHsm/ahK+aDGsbZoDaBqzMojzoZoYRGXTH1InWud7cEnFGAztLoZce/ezPlyL7IfDyDMfNMQBXq4CnBfquYcaJrRMm4EAjsHDSBzcDRV1oPMl3nE3SkghrTyoqgVCKaHTVk0s5I3ean1xHNWRdG9G2VkWqehsVUBNihQJpDNLzBfUq4BI+u2Ve5TNjOadfGeNv9KmKqxK6tZSsmQ//Bdp2qOutH5iNLKYlRiFUWJK1b2RmuWUuNqTs6z+aO5m5iQPqX3WIIqzZXaQGBQ185Mz1oUbBO3SnzcBOU+bt/3AyQxLQEvKJTDsRhtLhmSyBrvYqhGpoOS1Mes+zRG8LYBEhfpoA1pdKQGElOieeMtxj68sTc5cjI4EBzUTgYTgvacDD4UP4bZZLBi1+eDG8HB9GQwJFjLJ4MnwfQ7GWwJlpzJ4Myuzwdz5rxKoINOY//JYFH6/dQHB5cm704Go4KseR28cn3G881xZn/Ab5OiE3yEa5+N+Jzg8cI20RvJiM1X4oMzM+JJnmbo7Q5sdzGQ6UUL9HbCb1QXJGmyUPrhcZCnZZDN5Tzmt/VihviD7/fRGz5SSmfK/HqxRPEeLsb4xZXHi43JxZjF84s3g59c7Bn914tD4v8e/XnxlGj5Pv7Y8gmd6Xi8F9DqS71tGbN/pDPa0EvtpjyloREZnKemyTho8bSyN5w4cBKt52KXZ6apyKE97ZZuLxNuxmHjupWJwRUyTZwap6BPoH26bHX8dra0UFS8Yom9ST4mehHH75Hqr3leRl/jNxTrUxfInL2VO8abpzTCn9KYpzpCbw/sUyChwyH71EjojbB9ysTx9qkU198+xRL6tMo+9RI65rFPyfj69qnaZH3zFE7orO3WXu7wrDFqPVN+zP63wcMOz/bbMF6ENsy3Fv+Gzyy/eVO6hD95ORJgEXykERt02B3zsba1KJ/92xPjg0jrEZPHkfc+vpzi9cPtpee3p+fn60PR/f/xZah+dX1VGj//Bw==);lineShape=1;fontSize=6;" vertex="1" parent="1">
                    <mxGeometry x="167.1157751247052" y="20.635435892269584" width="3.2244115819969705" height="5.856429289632364" as="geometry"/>
                </mxCell>
                <mxCell id="43" value="" style="shape=stencil(lZbdUttADIWfxrdnpNX+XlN4D2YIjYc0YUKg5e3R1mOIlkSd3vnv88pHR8c7yc3L9v55MwV6OR0PT5vf88NpO8mPKYR5v90c55MeTXI7yc3j4bj5eTy87h+W8+f7/mQ/+nV462/4s3CNUEKnAr0vV2JCan+v3C3Abt6fAxmlGCAJWnWAhsoGyIKaXSCJAUoEeyUltGyAqis4QG2IFmiMFh1AVbIltYLE14FCyFYlJgLRdSITJNolGtiRKRGq7ZzqQE4jooBtI2oFO4BUkAVK84EMsrrmBhIHKGMjUkV1VIphXCGqW5zO6W1pFggITklaQK4G0CKzs0KuaMkCGSE53lARrZlU6OB8dG+TXUFbGfyBoGFG6V8zykPjCLFcB87c/OkNWoPh8hI6MBbQofJa3UdysGtbX3FZJh36YUg1GJySeqzYkr6i53KrBeXbjFYnBjQa6wBofHozmhCHoVZZHTN1QP4HkDima09Dx0whrm7+BBKyE0yc1rQ+i43ofHRBtW4tDHHaEMYwzrym7cXn1ar2AxKvKXLteWuLSODg1ZNsYgRfUc0TWz831xQcR4GYkZweBxmBBHEmRz0x/Bm0AY6garpBofHfpgdfO47HebdbNizn98cdil5adjdy+wE=);lineShape=1;fontSize=6;" vertex="1" parent="1">
                    <mxGeometry x="198.10056967078066" y="14.043962616006183" width="0.44116188425210057" height="0.44251522133396193" as="geometry"/>
                </mxCell>
                <mxCell id="44" value="" style="shape=stencil(lZbdUttADIWfxrdnpNX+XlN4D2YIjYc0YUKg5e3R1mOIlkSd3vnv88pHR8c7yc3L9v55MwV6OR0PT5vf88NpO8mPKYR5v90c55MeTXI7yc3j4bj5eTy87h+W8+f7/mQ/+nV462/4s3CNUEKnAr0vV2JCan+v3C3Abt6fAxmlGCAJWnWAhsoGyIKaXSCJAUoEeyUltGyAqis4QG2IFmiMFh1AVbIltYLE14FCyFYlJgLRdSITJNolGtiRKRGq7ZzqQE4jooBtI2oFO4BUkAVK84EMsrrmBhIHKGMjUkV1VIphXCGqW5zO6W1pFggITklaQK4G0CKzs0KuaMkCGSE53lARrZlU6OB8dG+TXUFbGfyBoGFG6V8zykPjCLFcB87c/OkNWoPh8hI6MBbQofJa3UdysGtbX3FZJh36YUg1GJySeqzYkr6i53KrBeXbjFYnBjQa6wBofHozmhCHoVZZHTN1QP4HkDima09Dx0whrm7+BBKyE0yc1rQ+i43ofHRBtW4tDHHaEMYwzrym7cXn1ar2AxKvKXLteWuLSODg1ZNsYgRfUc0TWz831xQcR4GYkZweBxmBBHEmRz0x/Bm0AY6garpBofHfpgdfO47HebdbNizn98cdil5adjdy+wE=);lineShape=1;fontSize=6;" vertex="1" parent="1">
                    <mxGeometry x="192.71109041845057" y="12.52817324940122" width="0.44116188425210057" height="0.44251522133396193" as="geometry"/>
                </mxCell>
                <mxCell id="45" value="" style="shape=stencil(lZbdUttADIWfxrdnpNX+XlN4D2YIjYc0YUKg5e3R1mOIlkSd3vnv88pHR8c7yc3L9v55MwV6OR0PT5vf88NpO8mPKYR5v90c55MeTXI7yc3j4bj5eTy87h+W8+f7/mQ/+nV462/4s3CNUEKnAr0vV2JCan+v3C3Abt6fAxmlGCAJWnWAhsoGyIKaXSCJAUoEeyUltGyAqis4QG2IFmiMFh1AVbIltYLE14FCyFYlJgLRdSITJNolGtiRKRGq7ZzqQE4jooBtI2oFO4BUkAVK84EMsrrmBhIHKGMjUkV1VIphXCGqW5zO6W1pFggITklaQK4G0CKzs0KuaMkCGSE53lARrZlU6OB8dG+TXUFbGfyBoGFG6V8zykPjCLFcB87c/OkNWoPh8hI6MBbQofJa3UdysGtbX3FZJh36YUg1GJySeqzYkr6i53KrBeXbjFYnBjQa6wBofHozmhCHoVZZHTN1QP4HkDima09Dx0whrm7+BBKyE0yc1rQ+i43ofHRBtW4tDHHaEMYwzrym7cXn1ar2AxKvKXLteWuLSODg1ZNsYgRfUc0TWz831xQcR4GYkZweBxmBBHEmRz0x/Bm0AY6garpBofHfpgdfO47HebdbNizn98cdil5adjdy+wE=);lineShape=1;fontSize=6;" vertex="1" parent="1">
                    <mxGeometry x="182.26899243667975" y="13.033437263929727" width="0.44116188425210057" height="0.44251522133396193" as="geometry"/>
                </mxCell>
                <mxCell id="46" value="" style="shape=stencil(lZbdUttADIWfxrdnpNX+XlN4D2YIjYc0YUKg5e3R1mOIlkSd3vnv88pHR8c7yc3L9v55MwV6OR0PT5vf88NpO8mPKYR5v90c55MeTXI7yc3j4bj5eTy87h+W8+f7/mQ/+nV462/4s3CNUEKnAr0vV2JCan+v3C3Abt6fAxmlGCAJWnWAhsoGyIKaXSCJAUoEeyUltGyAqis4QG2IFmiMFh1AVbIltYLE14FCyFYlJgLRdSITJNolGtiRKRGq7ZzqQE4jooBtI2oFO4BUkAVK84EMsrrmBhIHKGMjUkV1VIphXCGqW5zO6W1pFggITklaQK4G0CKzs0KuaMkCGSE53lARrZlU6OB8dG+TXUFbGfyBoGFG6V8zykPjCLFcB87c/OkNWoPh8hI6MBbQofJa3UdysGtbX3FZJh36YUg1GJySeqzYkr6i53KrBeXbjFYnBjQa6wBofHozmhCHoVZZHTN1QP4HkDima09Dx0whrm7+BBKyE0yc1rQ+i43ofHRBtW4tDHHaEMYwzrym7cXn1ar2AxKvKXLteWuLSODg1ZNsYgRfUc0TWz831xQcR4GYkZweBxmBBHEmRz0x/Bm0AY6garpBofHfpgdfO47HebdbNizn98cdil5adjdy+wE=);lineShape=1;fontSize=6;" vertex="1" parent="1">
                    <mxGeometry x="173.34266508265017" y="14.380804400031707" width="0.44116188425210057" height="0.44251522133396193" as="geometry"/>
                </mxCell>
                <mxCell id="47" value="" style="shape=stencil(lZbdUttADIWfxrdnpNX+XlN4D2YIjYc0YUKg5e3R1mOIlkSd3vnv88pHR8c7yc3L9v55MwV6OR0PT5vf88NpO8mPKYR5v90c55MeTXI7yc3j4bj5eTy87h+W8+f7/mQ/+nV462/4s3CNUEKnAr0vV2JCan+v3C3Abt6fAxmlGCAJWnWAhsoGyIKaXSCJAUoEeyUltGyAqis4QG2IFmiMFh1AVbIltYLE14FCyFYlJgLRdSITJNolGtiRKRGq7ZzqQE4jooBtI2oFO4BUkAVK84EMsrrmBhIHKGMjUkV1VIphXCGqW5zO6W1pFggITklaQK4G0CKzs0KuaMkCGSE53lARrZlU6OB8dG+TXUFbGfyBoGFG6V8zykPjCLFcB87c/OkNWoPh8hI6MBbQofJa3UdysGtbX3FZJh36YUg1GJySeqzYkr6i53KrBeXbjFYnBjQa6wBofHozmhCHoVZZHTN1QP4HkDima09Dx0whrm7+BBKyE0yc1rQ+i43ofHRBtW4tDHHaEMYwzrym7cXn1ar2AxKvKXLteWuLSODg1ZNsYgRfUc0TWz831xQcR4GYkZweBxmBBHEmRz0x/Bm0AY6garpBofHfpgdfO47HebdbNizn98cdil5adjdy+wE=);lineShape=1;fontSize=6;" vertex="1" parent="1">
                    <mxGeometry x="171.9952979465482" y="14.886068414560214" width="0.44116188425210057" height="0.44251522133396193" as="geometry"/>
                </mxCell>
                <mxCell id="48" value="" style="shape=stencil(lVbLctswDPwaXXf4JnB2k//ITOxaU9fOOE6b/H3B0cg1KAtJbrK8SxJY7IpD3Lzun162Q3Cvl/Pp1/bv+HzZD/HHEMJ43G/P40WehvgwxM3udN7+PJ/ejs/T75enhmxPv09/2grvE48Tkmus4D6mNzHBT28eJ8JhPN4QSgFpQiZwWSf4jKAJTKhkEDwKK4J3Ds44E8EHvQMjGjskUNH4AuZ1fEDo8BGuruMdMik8EVyy8E53iAJS+Mb69SrK2vmrxntTAemPXr9UkFGv9D9pfEayFa5eE5K5QZshrbCMoTWlnhD0DBU2JZCeFn2kGs0ZCh6si66EYtQgKvioVU6IhnFkB69lIwYZNXiGz3pOE3I2CKXvElewJVzoJ0OcZk0eLzZgVMNpGbQ8kNFU8WFcVGw4x8OFRUuN84sztfObZqYzu6RoQ2FJhqKd36bOUCyCOx/wXNFdfO2TRXzjjP5/F5/zXN5MEMkt67dk00MdkI0NKPeKOTO6qKLWDm99OliytHT4YKwvyd8lkZ+D4z4+97lylfA+vi6yfR7B+3ju++Pd/HVbI5BWTMLVkvjm43tlMLJVs4yAdrEUbcW7XAiitrFUzZZqpfdN9GZaSyxEfaRPrjlfuBfJw/9b1W48HKZL2e3//S1MXk03uPjwDw==);lineShape=1;fontSize=6;" vertex="1" parent="1">
                    <mxGeometry x="169.90329179525315" y="15.468565256911802" width="1.0675988029843688" height="0.6736457156950979" as="geometry"/>
                </mxCell>
                <mxCell id="49" value="" style="shape=stencil(fVbLciMhDPyauapAAgHnPP4jVXHWU+vYKcfZx9+vvFNDLGz3DY/VSOpuBJM8fG5fPjYTh8/T8fBz83t+PW0neZyY5/12c5xPtprkaZKHt8Nx8+N4+Nq/Lr8/Xs6R59X74dd5hz8LLjdiPaM4/F2+1EIx///yvAB28/4SIFSaAzQhrvcBSSkOgEIKAFLGklqjCgBcqPEIUNBDbBTLWFJgAIjUogcwMcigY3zNVBWQROo5KpVyBCpQqj4+UAP7t1EDTbhhS5AdIFdKAWgglH2G3Hu6rTJT8RqYsxgAEq8VX2SQBDgKJEOGQgU0nU215FkSiqBpjRS8U9WcCnpQXlvsuhVIqwbKwRspURXQQ16PSndqpASclOqVtZUSoDUZrVenDWUQY8lniCFQQGaKq5l7igqHUkwUhybM3wBQRx2qJUC0rj7o8b2pO+d5UKEIJLWs86obSYnB/jfjgbWZRPxRUFKgQNdnjbcpzoCfQNXHS6YC+VHPjzEMJ7aZ2JsuWgOgIKtIfcd9BN4zafGWs3sOFJTSeIVYQjRb+q36HY+OgA2S5uvvV9BtQ1v9nlGFF5TdX4PCsQ/k2wqEK09YScEhbPH9znibd7vlmXL5//gusU/Lm0ae/gE=);lineShape=1;fontSize=6;" vertex="1" parent="1">
                    <mxGeometry x="164.35990541921655" y="19.209960940627866" width="0.47543651640624596" height="0.5862199805617644" as="geometry"/>
                </mxCell>
                <mxCell id="50" value="" style="shape=stencil(lVbLcsIwDPyaXDW25ZfOlP4HM4SSKSUM0NffV2kmNHKIUm7B8cZa7a5whavLfnOqK2cu13P7Wn822+u+wqfKuea4r8/NlZ8qXFe42rXn+uXcvh+3/e/TptvZPb21H90XvnocERB1KGe++5UUILrflececGiOY0AGkwQgI3gN4MBnASAD3swD+HsZJSAMK3cBCcFYCSCwYR4QLdgoANYYMEpNniAUR2RABYA0vL4BPDiFBFoIsk05g7PzAJfAFkIYyEkBRAiyr8kBZQVAkJwAxAConIARvOxSyKpyPgDJLgUPJs4DQgJXAOzA6r7U7AQ3AXjFfWbCQS8p04QDk1ZOINaBJm1VdGA3J2mNTjhSAVYq3VlDO8GXSi+YL6chLv+0d4olh4UAcU+sfyijAcHJvnZ9UITwPJlkghYGDfJkkm3iUYaKEC4PTRkPSy3UEVC6b2EcPwyw3FepXMyQFA4RYuFWnTPHK8g4sPeU/aZ0kuf9yvB2ZaCR9yv5TKXxuEKv1c+Eiz8HVJ3aiSwZs9cVAt4O9d4qUqMT+HNSYj0HyQL5Yr9VCGcmHIp6NEOMcnjzHESRM374u3DsmsOhv6+M35cXFF7qLze4/gE=);lineShape=1;fontSize=6;" vertex="1" parent="1">
                    <mxGeometry x="161.34581290002734" y="27.649660681552973" width="0.3775164476859285" height="0.5697767706957771" as="geometry"/>
                </mxCell>
                <mxCell id="51" value="" style="shape=stencil(lZbLbhsxDEW/ZrYXkihK1DpN/yNAnHpQ1w4cp4+/LwcDpaFs0/VOI/EMKT4uNNHD2/bpdTOl8HY6Hr5vfs3Pp+1EX6aU5v12c5xPuprocaKHl8Nx8+14eN8/r9+vT4vlsvpx+Ln84ffKtYbWFiqFP+uOJJR15+sK7Ob9Z0CQB0CwfF4FMiIboBGiXAekIicLVIR8HagNIViggZw7lIYqBogh9H9cJgIqWReC6rjgNLpojOZ4yOUMiChOXjOBbF6lIEcHSJABCBAPYJC9dGXXAwfwAGjeigNUNFvqUkHVqYNmyZa6MNhpJo24yT2A5B7xf4bUEmI+u7QH1LFwN9Kq3Sw2rUvhvJHT9rdpXVrDAxhih3ppPnKypCHd1d4S0WyWdIDEAWoaPdycUUKxlbshA8xIgzL5QpMFPCiTL2VZta/eI5Y6o8XeWj527gCcS6c6qkCtbpaizssABESvDuBhRCOS00t6Go09x96+F+3DqPY5oDn/T/2021PojXJ5GCC2UzXC6MSjAQ0yGbV3HQdEo9SXrgiXa9y6PHw46KJ2TSTJ2vuDIwQe7dkrWDgrAQ2ALv69OF7m3W59sHw+H18ourW+bujxLw==);lineShape=1;fontSize=6;" vertex="1" parent="1">
                    <mxGeometry x="161.2674479503632" y="29.591528201665255" width="0.4440624225812746" height="0.7339928063977328" as="geometry"/>
                </mxCell>
                <mxCell id="52" value="" style="shape=stencil(lVbLctswDPwaXXdIgM9zmv5HZuLUmrp2xnFff19oVCUGLUPhjaKwJIDFAhz44W3/9LobyL1dzqfvu9/j82U/8JeBaDzud+fxIquBHwd+eDmdd9/Op5/H5/n79WmynFY/Tr+mE/7MuFoQy4Qi93feScjzxtfZ/jAer+0jIit7CgjVAGQkfQEnUDYABTUpQKhwdB/gnYNzOgaPnEyfsgZUBjszamoAESHcB5SMmjUggw2XsqS9ARSUeB+QaAnxHVCXI1YBISOQAlwlbhXBBA7tFf/ZX2eiwlMbRPBGXuF1MdVkEsdtCDUgGzRQW9z1fWc9qche2zsEw95HsGatFCRDDSRq0KxJpbBxQyBQ1YC0CGoVEKW2qQeQheXY41IJSKEnaBFXE8OUVrtntDzbvEnZtERLYRjqEQdKIze78sotoCxOrpdSbrO0IZ4oIeobNvWZQdxeYQUh+qEbfVpNxtPSeT/ZxiTrDdN2n6Sl7X6yEffa904GD6dJ25g94o/Oz8Zwk1mpOd6Ynr4Vgj2dCUUXRIS3ZgiqZouRjG7tuS1paU7G8fI76Hbq4a3uTktwi70DG8kJYYnuw97SS4woqcM+3ejL9ieL5F1HvNKYOXXkU2q9UaPNl2jV62qzy6H7LbhpL4uPh+fLeDjM79br/+1DVbbmRy4//gM=);lineShape=1;fontSize=6;" vertex="1" parent="1">
                    <mxGeometry x="161.4524184293419" y="31.633428183262822" width="0.2636062522673966" height="1.8745012912461931" as="geometry"/>
                </mxCell>
                <mxCell id="53" value="" style="shape=stencil(fZZNctswDIVPoy2GJEiCWKfpPTITu9bUtTOO0yS3D1SVskgrbydR+oi/B5ADP7wenl52Q3Cv18v59+59fL4eBv4xhDCeDrvLeLWngR8HftifL7tfl/Pb6Xl+f3ma/pye/pz/Tjt8zJwWKnGigvucV6SQ438rP2fgOJ5WgHeOnGuIwsT5e8JMiLaArTgAJOLUAMoUBQCuurwAQh4A5nFsY1ClCKKWTJ57QPV7IGufpSnTHgCBJLdAJgeAZHXqsuSpFABYWqWtQ6aSINBX2lNEQCZtLVjeQgRBe3KtNMSTgBiyWQgNkAulAArHNcQFyLAOFqLPdwCQhonZyZ1LSK3mkvRBF9RAQpr6tDKog2nzvxBWhUvIgqm/DdqkoQjIJF0/eFJQuNvntbwBUBKJv2sg4JIsWa/AalRtE564M6F1LmyrL9a5tZ4zqEdtv86CzUrUo0vPr2ZlAnNmE8gghuir/FelzkDfwfZr1VcCBWDBC3GbJUmwIUodvUsDWVZBTwdKrUPJLIIpc3dgRTwCHGnrDy/Tf7sGFFpp24oC/33oS+BzPSK3A+Z+xCgF0P+c6nG5REAC/o/aR+CghrJtF7r/20azh9uNYz8ej/OFZf29v6HY0ny74ccv);lineShape=1;fontSize=6;" vertex="1" parent="1">
                    <mxGeometry x="161.591027970298" y="35.809618425770054" width="0.5513199636431653" height="0.744688647157665" as="geometry"/>
                </mxCell>
                <mxCell id="54" value="" style="shape=stencil(lZbdUttADIWfxrdnpNX+XlN4D2YIjYc0YUKg5e3R1mOIlkSd3vnv88pHR8c7yc3L9v55MwV6OR0PT5vf88NpO8mPKYR5v90c55MeTXI7yc3j4bj5eTy87h+W8+f7/mQ/+nV462/4s3CNUEKnAr0vV2JCan+v3C3Abt6fAxmlGCAJWnWAhsoGyIKaXSCJAUoEeyUltGyAqis4QG2IFmiMFh1AVbIltYLE14FCyFYlJgLRdSITJNolGtiRKRGq7ZzqQE4jooBtI2oFO4BUkAVK84EMsrrmBhIHKGMjUkV1VIphXCGqW5zO6W1pFggITklaQK4G0CKzs0KuaMkCGSE53lARrZlU6OB8dG+TXUFbGfyBoGFG6V8zykPjCLFcB87c/OkNWoPh8hI6MBbQofJa3UdysGtbX3FZJh36YUg1GJySeqzYkr6i53KrBeXbjFYnBjQa6wBofHozmhCHoVZZHTN1QP4HkDima09Dx0whrm7+BBKyE0yc1rQ+i43ofHRBtW4tDHHaEMYwzrym7cXn1ar2AxKvKXLteWuLSODg1ZNsYgRfUc0TWz831xQcR4GYkZweBxmBBHEmRz0x/Bm0AY6garpBofHfpgdfO47HebdbNizn98cdil5adjdy+wE=);lineShape=1;fontSize=6;" vertex="1" parent="1">
                    <mxGeometry x="163.4058311154078" y="39.643962294768585" width="0.44116188425210057" height="0.44251522133396193" as="geometry"/>
                </mxCell>
                <mxCell id="55" value="" style="shape=stencil(lVbLcsIwDPyaXDW25Yd8pu1/MAMtmVLoUPr6+yrNBLBCl+nNSbSxdrWS3fHibbN8XXfBvR0P++f1Z786bjq+60Lod5v1oT/qquP7jheP+8P66bB/363G59flEDmsXvYfwx++RhwLuTCggvse3xTK8vviYYzf9ruL+Jop+zZeKEQAqMQtQAIxAHjnyLkWkUkYbCGUW0D1OKdEIbWARN4BgCNuVaon3a4CJM4AFepaCkmxgAp2KJ5ytCkVwCFnWwitpc8AECgaQKCEAKpSK6uoNwDpAdCSFqZyI6WWdKkUKyadW0CiClRSWYvpB56S/Ktw1aQUyAPAYI1qARHZ280AkbyH9jaV1iQd6gdtoJa0OKpgh2s9mibH/zUGQktCKgkikSevndzHsHJqTm/sWnAhMkUzNiq0q4piZuWFDtfNwZTTbAtkcHVTmpEApctMyVuZJGFAmAFASjNZg6MA7OqmhjyJhM03c5JnOCnd9PVcBGKQjzZXG6+Cgokx651IEcgpVFu2AdZXuZlzwVFBh6FM2p3jkeF0exEbD3pAxUjJxFeQD+t4tHwT+D8neyREaLb/Xkdux+vifPd57Lfb8ep0+d3elfTVeM/i+x8=);lineShape=1;fontSize=6;" vertex="1" parent="1">
                    <mxGeometry x="164.14723963484698" y="41.229487073765426" width="0.656422538404513" height="0.9392204133526224" as="geometry"/>
                </mxCell>
                <mxCell id="56" value="" style="shape=stencil(lVbZchpBDPyafVXNSHM+O85/uMo4bIWAC5PE/vuIbHZBgm1X3oZlenR06xjk4W379LoZOLydjofvm9/j82k7yJeBedxvN8fxpKdBHgd5eDkcN9+Oh5/75+n369P55vn04/Dr/ML7hItMtZ5RHD6mL0xB/n74Ot3fjfur+9yoNHM/Vkp1HZCEJBuAREpxHZATVTaAFKn3dUCp1KMB6BMprwN6pRIMoBUKDACdgk1SaxSQhU7NAnqgBGJQQE8WIBQwgB0gUwY8aNDepTpTeR+QqRcLUJsBAIRq9IB/T9wHRJIbCw241DpFq6XeqCNAJWEftADizkIoPq0RxNA061ZLnamAAlJA6V4aIUGXio1BoyrIpUbRWlCbFbikDjgttU8KiClbHppgptPM65UFQRVX5pK/iiEhtWpfyj5L0EL3PKi6Cgg6BuXphmrGJlyaNA8VByFOGxVqQ9NUXBdocz9fIyJZItTJivoMU7QWrvKwVqTtpqoF+KREOXFo1EhN9wHAQq5+aOnMQM0yaZrEAHSkNDC0ROYsLkNLINVRW5mtasbNkv1UjNqYQAg6ZB1vAuUdKNuIY6QGpLc0rYUDaqDH3NROpQqiDfOKsOSfKnAm+gYmcI7w3N0uOw+DGpBZXEtqKIDXsx+DgQTUy6LEy3VUXt3zGuBQVhbZe9PR/f/cBz+/r4fL8vky7nbT7nr9v19W9dO06MrjHw==);lineShape=1;fontSize=6;" vertex="1" parent="1">
                    <mxGeometry x="166.1792608296139" y="44.94450923802367" width="1.5589491258428447" height="1.4098863566669662" as="geometry"/>
                </mxCell>
                <mxCell id="57" value="" style="shape=stencil(lVbLctswDPwaXTEkwRfOafofmYlTe+raGcdpm78PVFWOAVmbyU2mscQCWAAc+O5l+/C8GVJ4OZ+OPzd/do/n7cDfhpR2h+3mtDvr18D3A989HU+bH6fj6+Fx+v38MFqOX7+Ov8cb/k64WKjJiErhbTpJJPXfwffJfr87XNmnThKNfawkaR2QmWo2AI4UyjqgNM8oZ8ptHSCFxAKaUO0A0CmyAfQ0n9wGCBUbdC+UZB0QQ6AQLKJTz9hFMQBJxDiIZD1oHgpKU6Vg06RXBFBqYcqOkpIEUUugUq02PvJwE9G11sG7SEAcmvfogmiUgfw6z4W6APLs8zYgLTxEYpBXBYRkS61Rgcop4P/fF0AmjgCg+ndiUkpAr71Ss3rVjkAC7zJ32AXQ4BgYxSkLANK3Fq56SgHJVesqPugEKq3KidmnNaIOkpnxVeEq7tHu1KqU0Nzo1KwHFd8nPdptHTQNqNJ6H1stjQ0E5K2MC3uAgKbWuVUXgIq0pOPYxdDnyqwC+lcAWQedrUNl2HG6cYqtQwlQfLoVxfY0Z7jl2G+UFGaOtx1QdVu0w2kf/HZQhh3au/UTGQ6ApX0gBvwXk77NBNfCtekp8AmgXG20Cc6Wy2UX8rBnml+cGirqesrdmaOVFiO16q9HqWGS4Nkj+y8+2D6314+P1+HTbr+fHpfX//vXpB5NL1G+fwc=);lineShape=1;fontSize=6;" vertex="1" parent="1">
                    <mxGeometry x="169.20432080594327" y="46.958690773465264" width="1.345312421062054" height="1.092375285034793" as="geometry"/>
                </mxCell>
                <mxCell id="58" value="" style="shape=stencil(lVbZctswDPwavWII8AKfc/xHZuLUmrp2xnHS9u8LVSNVoOPt5I2WucS1WGCId2/7p9fdIOHtcj593/0cny/7Id4PIuNxvzuPFzsN8WGIdy+n8+7b+fR+fJ5/vz5NN6fTj9PH9MKvGceFSphQEn7PXyIV/fvhcb5/GI+b+zGTqL8fKPBtQA7E1QGSUC63AY2JiwOURBwBIFHsAJm0AUCl4F0qjWICgEbBJ6maSyBoAzTvUm1UMUCTA2imnAFAqWQHsLwFAYBCOXqAWUBBr0RYAWYTAQIlcQAOYUncpwi1QnQmGiXAPk19IayWDKJWpux9srAYWLA6NW9BdWHLLYA0DxCKwKWJCT7oWmAhLIbOQmWKoCHUKucBpZIgC2Uh56blCuogq6una4nUEF3j4vGmRxlQw+gqnQXF/FZKXcsJJdxytQNUqiDoDZvXUlumkU+tlzI1tgAyGZu7NJm4MQKkvtQNB2Eq0cuA5QFUzujPVz2qQL+/DEi8yPtaCGML4IaNqOT1OxdS0NRpYc46s2QpzOcGeu5JgxMoUPMBSKYE+u1qJApDybjiHVeoqybE3h8WqsB/7u/r0ho30tP86MlQjtIyjNdoqYDrJuj+9UCKeqzfX/DIsUx0IyeQgOc59bLCcEJN+5SXUrxP/X//ssO/5e1lPBzm3W/7f7/s2ad5UYwPfwA=);lineShape=1;fontSize=6;" vertex="1" parent="1">
                    <mxGeometry x="175.090155519328" y="51.83505110923181" width="1.3207693587203226" height="0.7589786656506858" as="geometry"/>
                </mxCell>
                <mxCell id="59" value="" style="shape=stencil(lVbLUsMwDPyaXDWWZcvymcd/MEOhGUrLlPL6exQyLpWbiuHmJNrIq9XKHujqdX33shpieD3sd0+rj/H+sB7oeohx3K5X+/Ggq4FuBrp62O1Xj/vd2/Z+fn65myKn1fPuffrD54xDAo4TKoav+U2AEH5e3M7xm3F7El8DiI2nDBkdQAJCC6hAXoYCWA0gMQRyABUwG0DOLgcMR44NwRlicVNwMoCSobADEEDLWjKQOACtYjGASoDRAUSIYgGa0+EgAmxJn9RhGZGghj5FcvYkCFl6ErleBhSBalmLau1kKAWIrRAM2eGgn6sVgv1u0gxsOWg3FafBS+2V035lByARyDa4OoKdKmnriG1w9Rx7UtdeB1Ipve4jiFZpOpZhGcBAdgwkcnXQzmGrQ8Y2SS5ZriPNCMX3qNiylthGz6UtFWvqSZnkks6WwzQNvQwEyWbQX4jTfHJGWll5pNUu3ZxRAHkW/S8A8cxxAdDjAKkznADly/Hqrm4WpzZsF+Opd0+urXmXCZw1XmyMFuMDJCtBSpCdAp2dJcRufUI7aVp8LK6ZEaKtP+q0cOoZextgdPevZ6WdFdwEWR53bRgetw/ZYYuhL39ofJbj/3kf+TteF7+Xn4dxs5nvTqff+8uSvpovWnTzDQ==);lineShape=1;fontSize=6;" vertex="1" parent="1">
                    <mxGeometry x="178.64287376719597" y="52.69332955441246" width="0.9633906897311374" height="0.34177945265024356" as="geometry"/>
                </mxCell>
                <mxCell id="60" value="" style="shape=stencil(lVbLcsIwDPyaXDW25eeZtv/BTGnJlEKH0tffV27GFNuwkFsIq8harVYeePG+Xr6tBqPeD/vdy+prfDysB74bjBm369V+PMjTwPcDL552+9XzfvexfZx+vy0zMj+97j7zF76nOEfK5SCjfqYXinz8e/EwwTfj9gSuI7Ft8EpdxrMjjhWeSdnLeKfJqwrvyLjL+OTI+QrvKSK8p1SfJ5HWAB9L+oLXjjxKkMjUBEkFIcGAWAdwJOtBC9SR8iNHpnTlUgqfapIcpQCrTnXVIVBCGUJhvQREjzN4crrugyGNMohQYxsQEa/cFh2l1YBX+Z6raY2a2IAA0SrXLCkySEyadKgbd4WlLsDK+OAMzZFE3wHMc1+0TLhHR+po1aoI+MbGBdLAMbIyTIOPqG2d9LRwxHPEbQwpVHI3PmyhiZ2ZUBswq50JeE1uls0ESwaJtTOyaIkRr71TKjxwnRWLVvQs774S0C+HZCmAgH775KqQt3br7aSX58/U7k/pDDINplgPaNYvGFBT1vEJR0hJusVnIwaOocpwHXUUocOIwzWrJJAFquh3lYObpJ8cWxi+7Txsyma5rV5hLKELT8tndpc5/fLEwIw6OcgWBOqZeVu7CpeH/4vh07jZTPfK0//bi6S8mi6hfP8L);lineShape=1;fontSize=6;" vertex="1" parent="1">
                    <mxGeometry x="186.06337135379067" y="54.721569061675496" width="2.186051833214071" height="0.22533818215889734" as="geometry"/>
                </mxCell>
                <mxCell id="61" value="" style="shape=stencil(lVbLctswDPwaXTEkwQd4dtP/yEzsWlPXzjhOk/x9oChSDcrajm+yjBWB3QWIjjcv+8fnbRfcy+V8+r19658u+45/dCH0x/323F/0qeOHjje703n763x6PT6Nv58fh8jh6c/p7/CF9xGXqIYBFNzH+MJRqV8vfo7hh/54Fe4r1dLEO7cez4UCm/hEqazHJ6aYTXylyOvxVT9n82ehCBKqhbwYQPSUQcVVpoRnQCFBKVVK0ZacpzNvc+pmDidETiQAoUdINYCiOnoIaGSQRAEBhJylqQYSBMgtTcr0t7VuAyJJMoArHm4jmLy3RwhWwrfm0ENTAgBHweYkhRIQQtSdVusilIG/FeAtTVmogJSGEywgyUTcWg1szZSUVqScsmTNFJXojHWwAK7ksNTVsqRNCgGZstUhzsqs2dU3AB0MyEvaEA2tjBuiTg02CxfgJBsATY8GyjilZE+QQAHpIC1AtU+IVp191hpD1+LpGu3Y0CQztkaWFoAa6G6AyuSajtNJBuY3Zyqx1YHvuuJypQKKXlyh2tIVOCNStMbIOilBydx6W28HB/LxVO0Vmh0ueBoPcytECnE9Xr9mCY0Z1ru43bT7K8hnGa87Cfx+k08IeIdp6/VpaqQ1PpubjRjQv5Arwv1i4QZPBfn/vn3tv+H68G813PWHw7hZXv/frpL6alxD+eET);lineShape=1;fontSize=6;" vertex="1" parent="1">
                    <mxGeometry x="191.44898012838195" y="54.88496271740519" width="1.9296113183284895" height="0.3374422462836759" as="geometry"/>
                </mxCell>
                <mxCell id="62" value="" style="shape=stencil(rVfZbhsxDPyafSUkUudzmv5HgDi1UdcOHKfH35fbhTam5J2iQN/Wska8hkNpkoe3/dPrbmL3dr2cv+5+HJ6v+0k+TcyH0353OVz1a5LHSR5ezpfdl8v5/fS8/H59mnfOX9/O3+cTfi44phpnELtfy4IjqX8WPi/bj4fTzXYvFJPZryeksg3gQD4YgAilsA0Q385bAZkibwOCoyoGEIRy3AZER6UDJErAQnKUrUuhkAOA7CiEHpBB0EUBnYXa8nYXUDMlW7eQqSJAoeB6C+IBoJLLBhCFOEFAshaiWsgQUNkAUoZp9c6RsyZyhHRVE8UWoggstQK6ytWVLVt5LbYhaiIGDaEAbyunNmEMuf19AyiA3+pAxw09IiILqaV9BXCL6j4g9ipQUotqCyDWQtY0IG4MgFRhU48uJU8ZWRiCjpEcClrTai2okAju0a5ws2ygOgzUUEBEQQ/kix6q8UjvmMkjeg8NlAIJcOlejzJF7FMnA6qGFUU9CE0pmN+DlNVA2f2LWOoKGlqzHNs03eThPyHGGVFx2PMU4iEKUOx5zoXBAlBLbYBsJ6mGhUqns7ob7tpVHsSgt4Fe/DxFEAPr7O/YFCmAtvbcqHAzU9Cc46YSawsFqqBuvi9b5Eb4u/uV/PZ8HdQB9I9r+Vj3K7mB/47YJki0PUDNlJXdBQ7f+Ib+Z1VacNFw5L1thFWkNvaLzY/eSZEiDRzFIuyJrfvS6rGxPXfeEINgubn6cd1GPc89F/Dt/K+Xef34eAi8HI7H5R1x+3//cNCl5dEhj78B);lineShape=1;fontSize=6;" vertex="1" parent="1">
                    <mxGeometry x="194.6626839259951" y="55.07060923100835" width="4.009969728749798" height="0.3633888135865211" as="geometry"/>
                </mxCell>
                <mxCell id="63" value="" style="shape=stencil(rVbLbhsxDPyavRISSb3OafofAeLURl07cJw+/r7cLrQxZXuKAr2t5RlJJIdDTfLwtn163Uwc3s6n49fNj93zeTvJp4l5d9huTruzfU3yOMnDy/G0+XI6vh+el9+vTzNy/vp2/D7v8HPhKeU6kzj8WhYSU5U/K58X/H53uMCzUG2OoIkSIEilxI5gKyHcJ9gFkr+SBGK9T8iNsjhCbFTACU2pqCPYAQ3gM8U24iPAlzECJs4AX6kkh894/zbuHyPlBAnNBxCtBowJPqWzUPAJGsaiVUSopMUTEjWUpNJFsBLsTHRCouqFp4EaIihJGQmC6iAUhisVykh4kdoQtFDEBPYELn3lHiH4oE2rBTTPfIKPISrFimPwla7ECM896WvMWEnae+Wj2SpKUaISBzyyF9NRHAImwUKVwfCwubS+Xce3fsG7rebzGU24oGIxrAGuNWZS1DpXBmk1q6hmdWwdUVLseMMYMZNXbKniY7Bey/+TUK46IUcopCRUfJaKeR4ohFyltcZum7dnp1L10q4NDluTtg/hovY3Cdp1sGqvwUIL8aDVVe23I6A47J96Dm5rldhnyNyjgGYLlHxv1kwN3D9Q5LECyICvOqfY0AG6Dt0KV3yAkzx0a1s1p3ComfX4/bNNHKQgEp+flGH+ZdRDUgogn//6Gvw73j4+np4vu/1+eble/j8+VW1peebK428=);lineShape=1;fontSize=6;" vertex="1" parent="1">
                    <mxGeometry x="200.04008641932427" y="54.976446588819385" width="2.164381188872619" height="0.47508836334073795" as="geometry"/>
                </mxCell>
                <mxCell id="64" value="" style="shape=stencil(lVbLbgMhDPyavVpgg4FzH/9RqWmzappUafr6+7JdsY1JMlVvGzID9oxtGOTqdX33shrYvR72u6fVx3h/WA9yPTCP2/VqPx7q1yA3g1w97Parx/3ubXs//365m5DT1/Pufdrhc+ZlEp1I7L7mBfWUy8/K7YzfjNsjfPKkbAnkED5SyQbP5MNlfPbk7f4O45Wi6/DiLuOLp6hdPIrwkVLq8s0In0ltvp4ppMsE7xw5m4EvbeX8EYViJ2kNkgEhtQgaQTwVRJBWAwtBqUTgQiG2rgVHDMoiCxWxBN+yOl9Hudl0dIKiwpPeOElQJS0txYXAVIBzmigG60NVCdSqLqWzEKpK+IRkffBCCnxIjoKVNTUVzuMDBeubEKP9Sz8uHEWwfw5N8l88Ku184oHH3VnjtwLFVoiXOiF33VkVAwnXXktdQAoVrYTircdC0cOBIfYErlsonEhsPZZIAZTdvwk14k6lqlsEsk5lbHOoMoiAoackvQ+4MqYpWvojApowlLnPIYOQYivkBR/JA9+4H2DTzYISIGc7JydisL87weN75OQWSQkOVEfZ5puYMsxX7bDTDDunqmcd1joLgP7/fYj8ja8fv6+eh3GzmR9Nx//3r6S6NL+w5OYb);lineShape=1;fontSize=6;" vertex="1" parent="1">
                    <mxGeometry x="206.0809408064104" y="54.47008718751704" width="0.8365715150293589" height="0.6681621891101186" as="geometry"/>
                </mxCell>
                <mxCell id="65" value="" style="shape=stencil(lVZdUxsxDPw196qxLX/pmcL/YIZAbkgTJgRa/j26Xn3Eut52eHMuK1vaXcke+OZ1f/+yG4J7vZxPz7tf48NlP/CPIYTxuN+dx4uuBr4d+ObxdN49nU9vx4f598v9hJxWP0/v0w6/57hM2U1BwX38/RBI8p8vdzP+MB6v8MzE0gXESBK3A2ohl7oAT8kDvFDtD3DkAF4C1Wjw7AA+UaodPhCD/KVQ5Q6fSBjghTj39TrKsh3gnRbYa+AzeXxE7ilSTjMQTSrFPifVvSBSM8W+aHZU0AlsWZqMUkGAIwl9QKQAaKq12eDqhIiMlCg6W0NFAZpxWbEEaqihyXSlQ0G94KmulA4opWB1UDOVAmuQvhtyM9e/8eq0VTdgFYxs2m3ISFpxMXiUj8Tmy69pEZGNCvl+ukRKIH/tBMOP4OmymkZebYoSEhIjsbQBtZmR6c1EPuCSjWRCCfWmctpzxAFOpG8HRNdc3AKKUAApebYnTDQAHbxfT1XspGW/5QRVBgiXKbHNqIISok1IZybiKKz2Z8qoYmtsvRgL2N+16bngUxv6G3hz6VQH611u1UViHV1gEnnr0uJJEuSnx+faGNjg30zGnMgBfr770Pk/Xhdfr6rH8XCYH2XX/9tXmH6aX3B8+wk=);lineShape=1;fontSize=6;" vertex="1" parent="1">
                    <mxGeometry x="208.79210563625088" y="53.32438900702573" width="1.1640033984126843" height="0.6169442572336904" as="geometry"/>
                </mxCell>
                <mxCell id="66" value="" style="shape=stencil(lVbLbttADPwaXYldcp/nNP2PALFroa4dOG6b/H0oKJJNJp4ggA+SPLNLcobcHeTueffwtBk4PJ9Px9+b/+PjeTfIj4F5POw2p/GsT4PcD3K3PZ42v07Hv4fH+f3pYUJOT3+O/6YVXmZeotYmEofX+UNlml7193PG78fDFb4kErEEkgzwjUo2eKEkt/E1Ldsv+ECt38a3QCk5fAgAX6g0vz6Iv2s5iosf5dt1fXb14QTwnbgbfGSKQIAY1gRXRqVUwRYqQTUEZqpAg54XiVYCFrkHKlYEwVVtiapVQZhaAbZolBxBKIKk1cbJVkkiVWTUStEKzQ0T1AhWaW2m9yA/J0Rim0PsJF8QbEgxQXNrSGybrVFH+ErB4hMVgK8fmiFSxqqJb86ImjN5HwVYIPVdjlYC7NPs48nUQK9NnWPXjzpuEKFTd92cl+a7RXDjVEsa0A6FqvW15tAjJsTvECRRtuOi68wHOWhjBZtDV18BAhdqjqA+BToz+0NhKjQgXCbiRTh8LujUbclvEdAI83Nek47goMoUkq9qBkKzny5dpwFIICydu7Z+hVb9cIo0WSbmDXy28dcOXcFLtCs+L776FP/di8jXeH243Hq2434/X5qu//e3JP0037Dk/g0=);lineShape=1;fontSize=6;" vertex="1" parent="1">
                    <mxGeometry x="217.71145333696427" y="50.17098516036788" width="0.6358301822357342" height="0.7457376760910911" as="geometry"/>
                </mxCell>
                <mxCell id="67" value="" style="shape=stencil(lVbLbttADPwaXQk+9nlO0/8IEKcW6tqB47bJ35eqIDVkuix6W8szuxxyyN1J7l6OD8+HifHldr18PfycH2/HST5NzPP5eLjON11Ncj/J3dPlevhyvXw/P66/nx8W5LL6dvmx7PC68gQIFxLj2/qhZuD2+8vnFX+az+/wmYHYEDp0DvAFSjH4DJLH+CJ+f4Lex/iK0CwegSnAN+jF4SnYv2n8zccjY3zX+JvTy4HeXqFWl8+GAV7T7eLJWwlHhGwPUMUlIhTI3RIy1EgygSRL0CBTkNMEYjUIh6JrgWRPkAQYVLm0zWQ7QSAFGgpCdwQCCjTkDGh9xxWkBATyxmCGHGhIagQrmipgjU9wrUNQAtE5QSdDKFCj3kSozhlb1kZVIGs9dV4wK7TMnB0eA1uoj9jGrxkISqBGZTvsJJwt2gnJ6t0FDVtNbDwCHBxAuAvcGW3L8WhcNJsiTnH7/y8hFZ9UTVsKQkoM1d0IKbSRfLCFBilBry3TwWrQTFNgbG1FdK2DsZUW56A/ogcEnbpi75HetigHtd68uRMKtCCvGRr5tFJwgE4TlyQMrYSQ7TzSqy7qhg9WbbxdRQN8s3prD0vw15dI0G3/frno4s+z52k+ndZX0/v//TNJP61PLLn/BQ==);lineShape=1;fontSize=6;" vertex="1" parent="1">
                    <mxGeometry x="219.7294576321117" y="47.79250158142872" width="0.5210711473135458" height="0.7696209404366527" as="geometry"/>
                </mxCell>
                <mxCell id="68" value="" style="shape=stencil(lVbLctswDPwaXTEEQRLEOUn/IzNxak1cO+O4r78vVA1TA7HQyU2idkk8diFOdPe2f3zdTTm9Xc6nl93P+emyn+h+ynk+7nfn+aJPEz1MdPd8Ou++nk/fj0/r++vjglyevp1+LDv8WnkILS2knH6vC50hl78rX1b8YT5e4TNDb4ZQGQS3CVygZUMoQCnAM6A9IEOu2/iegG0GutADfIFeHT4FCXcBFIfHvI0XgmzjR0hBvtKgFZdvlQDfQdjVk2kbjymN8weBR0a3DxBoZPACHCWs/bf7Yw4rKgXEVhQJJDoBIaMl1CGS2z1rIMUTWlCknn0TlJADFXEHtirCAhjIlDUA8VWiiEBDxu8EbWQUEvkqMdSgSGrMZHOu8f7NGyFDj/ACxeoIQ9118vgEOTCODipuDh8aDb1x0phMt/HVDy4cut0yJtn4aRy45bNu+9VCQSheLL5Dj+Px8SNQMKlvE4KKVgK0Em01JGjE7EZLDV2jJWGbs45LCYyswzDZHJa2BCpVEXRHUN0GVUL9P4onSOAzHW5unl6N5I2RDYn9ETXIukFPPukaJK1FclWNfwk4jH7VthKknKC6/dXbQTwf/lDqVQqsk8bXdydIeEf47CXn/3h9+Hejep4Ph/VCdv3d38B0ab290cMf);lineShape=1;fontSize=6;" vertex="1" parent="1">
                    <mxGeometry x="220.58417662726947" y="45.0509658907514" width="0.7638611201125394" height="1.3090624991394162" as="geometry"/>
                </mxCell>
                <mxCell id="69" value="" style="shape=stencil(lVbLcsIwDPyaXDV+SzrT9j+YAUqmlDBAX39fp5lQ5BCBb46zclYraePGL07b5WHdOHM6H7u39Ve7Om8b/9Q41+6362N7zqvGPzd+semO69dj97FfDc+HZY/sV+/dZ3/C9xBnwJg+yJmfYYMQIv/tvAz4Xbu/wntAL/DWQozz+AQ2CjwCpXm49WCTwAf1+PzaFHyASaGPkJzAGwhmHh8dRFvgjYJPCNYXeLLzeGRgma8DDPN4YkhSz6iWiyNYFngGgwo+lf1gHZCSMGe95QdsgqBkTH4kfAngUePbEllIKCWygEqNI0IgGeCAlaTDpMh3AhyBdxNKSkCvialJmiZl0FUNlWULY1detYU2lga8bFO97fopkW3qRt+4PZaZrSyZ0elj5Vg68FzgNTkxji7ymK1QAgoVtsUeqMYW81g6OQO97VYHKIysqf0TMI0HXnrIQFRE4lByyjJo5psJBDlm2c5I+QJSOWaMakC26+J3xgxO85bsj5LSlXC3W9WPVvJoRB6GUiedVG7OwlLvpJ3NIWKNsHEik145C6GqNWp77z4+L/6vPJt2txtuTNfvyytS3hquV/75Fw==);lineShape=1;fontSize=6;" vertex="1" parent="1">
                    <mxGeometry x="222.43229926929138" y="40.68579556989084" width="0.24069353070173524" height="0.9626446848060847" as="geometry"/>
                </mxCell>
                <mxCell id="70" value="" style="shape=stencil(lVbLUgIxEPyavU4lmTwmZ9T/oAqQLREsxNffO+vWKpPVRm4h251kprtDOl48b5dP6y6459Px8LB+61enbcc3XQj9frs+9icddXzb8WJzOK7vj4eX/Wr8/bQckMPo8fA6rPA+8hw5P5CC+xgnQiSWr5m7Eb/r92d4T5UN3mdKAF8oBYOvlB1YPpMvBh+niV/xIVOtBu9I0t94FpLY4B04T3IU7fqeCsBnN32e8IkKOH8WirY/XjeooJ+BpBGgkmdAYIpiFS7kAiA4CpbAkTLYITMl26PooWhJNbVNiokqUC1q0Q1B+wZ2YHWBzAgZ+K7OatAjRUBwsxq0aLCDyuBnXQUyqArWGINsHuHFBmfwBVg/tSpfMJ7nKSj/c7YW3BSAk6PtkHxFMmOm4hu8gP4nvYlscPDNkvUmso7Qmwv0v/ipHec3I0oyU7YbXLh6ryZIpGolY08B1FCZuDEpLrpqqpJtqroOELxzMxspA2S/ljbKWQkgmTW0xitCCZxJtGrrDMnQqoPUtmptXAA1JJlO/E0oMDxR12v+dhyOQxByNj61kiAltOrUngmZYyacNppN4HTw88zY9Lvd+Eo5/94+S3RqfNLw7Sc=);lineShape=1;fontSize=6;" vertex="1" parent="1">
                    <mxGeometry x="222.41353802296436" y="37.15429758886762" width="0.37751425831932767" height="0.5697717528360763" as="geometry"/>
                </mxCell>
                <mxCell id="71" value="" style="shape=stencil(lVbbUuswDPyavGrku/XM5T+YodAMPS1Tyu3vUci4VE67B94SZ2WvVivFQ7h6Wd89rwbPL4f97mn1Pt4f1kO4Hrwft+vVfjzo0xBuhnD1sNuvHve71+39/P58NyGnp3+7t2mHjzkuB3I8RXn+nFckUCjfK7dzwGbcngR4KtHgvSMH8EwxGLzLJAHhXYf3FPky3lEtBl+JwfaJYjXwSF7A7kwpWzpt4Tw+U7Zyaj4RqOlJUo9H6leSnk8GfEIgkS7fCOQJhZLv5PQO4IWc1VPLlYCgoVKxhFxpFT8fkFv5TwwXUIAnbyXVnAvSNFOxOfhCDHLQGiXruf+YzsUFJdUZyFopdTmnduT5nEls1dRXqMxM0lWtwiZjYsvH6YmAvyO2AgmkE5vcDa5dCppGLWRHhKcA4Kp+52mdSaBn9HONHZ6BOJNbLF7TRz3j2/ENrxO3wg5Idv9MFfX8H/FyHMgNX0rzx/kAIe6GhGt/kQtTdGGgGtsgvnRE7Y5QTqDIoga2HhJHHmfNtgck4oDFn0+3KAnYtLbRfAzQFdT1cUFJqICAIo3x0XmMvVriQiaBzVC4N7cm4QCnnMnlXiYGlfvzDeQXAfrwc+F5GDeb+b50+r2/IOnSfLkKN18=);lineShape=1;fontSize=6;" vertex="1" parent="1">
                    <mxGeometry x="216.29974027421343" y="25.750595344963585" width="0.6581004335205427" height="0.9207797630481588" as="geometry"/>
                </mxCell>
                <mxCell id="72" value="" style="shape=stencil(fVZdcxshDPw196oBCQQ8p+n/yEyc+qaunXHcr39fXS8kRj7v2xmvQNpdCSZ5eNs/ve4mDm+X8+n77vf8fNlP8mVino/73Xm+2Nckj5M8vJzOu2/n08/j8/r79WlBLl8/Tr+WHf6scUohLkEc/q4LoiTl/8rXFX+Yj1d4ptBGfKCi9/GBIg94ThQhXsKAj4U4o3x03D9aPiB/pSoDPpO0+/DIlOq4PynYPjYKY/6hL2ynn0mbw2dAj0SqOvJPDPI3NR2+UAP5pNDV+ahXqDEIiJScwCYAPiG7gEIZKCz29yiZCBUBAUxl1Exqd8m2CNot0wOsKgWs3ro6MTzBSHRF2wkS7wcUUleC6Qbw5oLRdgsJwKcmQhpFUEqA0+BtbUZ/32G74Ju2ZKoAn4nHfAoFxGegNCrGULCo3hIB0m98Jt+WEdDDravzmQ+acmJTZ2wzpYja2PDZ4ytoMqt35FOgXLlSctcAFZCPNu9PmzMAX1qfOld+QILV6ueuKVCBAi15BexiQo5r1d8E1sMRzKEYbpog210GRp0d4VXO1IBsVoQ7oZQ+abZpKt0GPaB+DPxtIWq/LnqAnamAJi1UR+dd8fAeYR+fz4uX+XBYXyfX//vniC2tTxl5/Ac=);lineShape=1;fontSize=6;" vertex="1" parent="1">
                    <mxGeometry x="213.80836493607484" y="23.521533510502877" width="0.6263528405321395" height="0.6088281603206269" as="geometry"/>
                </mxCell>
                <mxCell id="73" value="" style="shape=stencil(lZbdUttADIWfxrdnpNX+XlN4D2YIjYc0YUKg5e3R1mOIlkSd3vnv88pHR8c7yc3L9v55MwV6OR0PT5vf88NpO8mPKYR5v90c55MeTXI7yc3j4bj5eTy87h+W8+f7/mQ/+nV462/4s3CNUEKnAr0vV2JCan+v3C3Abt6fAxmlGCAJWnWAhsoGyIKaXSCJAUoEeyUltGyAqis4QG2IFmiMFh1AVbIltYLE14FCyFYlJgLRdSITJNolGtiRKRGq7ZzqQE4jooBtI2oFO4BUkAVK84EMsrrmBhIHKGMjUkV1VIphXCGqW5zO6W1pFggITklaQK4G0CKzs0KuaMkCGSE53lARrZlU6OB8dG+TXUFbGfyBoGFG6V8zykPjCLFcB87c/OkNWoPh8hI6MBbQofJa3UdysGtbX3FZJh36YUg1GJySeqzYkr6i53KrBeXbjFYnBjQa6wBofHozmhCHoVZZHTN1QP4HkDima09Dx0whrm7+BBKyE0yc1rQ+i43ofHRBtW4tDHHaEMYwzrym7cXn1ar2AxKvKXLteWuLSODg1ZNsYgRfUc0TWz831xQcR4GYkZweBxmBBHEmRz0x/Bm0AY6garpBofHfpgdfO47HebdbNizn98cdil5adjdy+wE=);lineShape=1;fontSize=6;" vertex="1" parent="1">
                    <mxGeometry x="200.96371814254599" y="15.05448796808264" width="0.44116188425210057" height="0.44251522133396193" as="geometry"/>
                </mxCell>
                <mxCell id="74" value="" style="shape=stencil(lZbdUttADIWfxrdnpNX+XlN4D2YIjYc0YUKg5e3R1mOIlkSd3vnv88pHR8c7yc3L9v55MwV6OR0PT5vf88NpO8mPKYR5v90c55MeTXI7yc3j4bj5eTy87h+W8+f7/mQ/+nV462/4s3CNUEKnAr0vV2JCan+v3C3Abt6fAxmlGCAJWnWAhsoGyIKaXSCJAUoEeyUltGyAqis4QG2IFmiMFh1AVbIltYLE14FCyFYlJgLRdSITJNolGtiRKRGq7ZzqQE4jooBtI2oFO4BUkAVK84EMsrrmBhIHKGMjUkV1VIphXCGqW5zO6W1pFggITklaQK4G0CKzs0KuaMkCGSE53lARrZlU6OB8dG+TXUFbGfyBoGFG6V8zykPjCLFcB87c/OkNWoPh8hI6MBbQofJa3UdysGtbX3FZJh36YUg1GJySeqzYkr6i53KrBeXbjFYnBjQa6wBofHozmhCHoVZZHTN1QP4HkDima09Dx0whrm7+BBKyE0yc1rQ+i43ofHRBtW4tDHHaEMYwzrym7cXn1ar2AxKvKXLteWuLSODg1ZNsYgRfUc0TWz831xQcR4GYkZweBxmBBHEmRz0x/Bm0AY6garpBofHfpgdfO47HebdbNizn98cdil5adjdy+wE=);lineShape=1;fontSize=6;" vertex="1" parent="1">
                    <mxGeometry x="205.17424445833547" y="16.7386995651907" width="0.44116188425210057" height="0.44251522133396193" as="geometry"/>
                </mxCell>
                <mxCell id="75" value="" style="shape=stencil(lZbdUttADIWfxrdnpNX+XlN4D2YIjYc0YUKg5e3R1mOIlkSd3vnv88pHR8c7yc3L9v55MwV6OR0PT5vf88NpO8mPKYR5v90c55MeTXI7yc3j4bj5eTy87h+W8+f7/mQ/+nV462/4s3CNUEKnAr0vV2JCan+v3C3Abt6fAxmlGCAJWnWAhsoGyIKaXSCJAUoEeyUltGyAqis4QG2IFmiMFh1AVbIltYLE14FCyFYlJgLRdSITJNolGtiRKRGq7ZzqQE4jooBtI2oFO4BUkAVK84EMsrrmBhIHKGMjUkV1VIphXCGqW5zO6W1pFggITklaQK4G0CKzs0KuaMkCGSE53lARrZlU6OB8dG+TXUFbGfyBoGFG6V8zykPjCLFcB87c/OkNWoPh8hI6MBbQofJa3UdysGtbX3FZJh36YUg1GJySeqzYkr6i53KrBeXbjFYnBjQa6wBofHozmhCHoVZZHTN1QP4HkDima09Dx0whrm7+BBKyE0yc1rQ+i43ofHRBtW4tDHHaEMYwzrym7cXn1ar2AxKvKXLteWuLSODg1ZNsYgRfUc0TWz831xQcR4GYkZweBxmBBHEmRz0x/Bm0AY6garpBofHfpgdfO47HebdbNizn98cdil5adjdy+wE=);lineShape=1;fontSize=6;" vertex="1" parent="1">
                    <mxGeometry x="207.1953005164495" y="18.591330715821186" width="0.44116188425210057" height="0.44251522133396193" as="geometry"/>
                </mxCell>
                <mxCell id="76" value="" style="shape=stencil(lZbdUttADIWfxrdnpNX+XlN4D2YIjYc0YUKg5e3R1mOIlkSd3vnv88pHR8c7yc3L9v55MwV6OR0PT5vf88NpO8mPKYR5v90c55MeTXI7yc3j4bj5eTy87h+W8+f7/mQ/+nV462/4s3CNUEKnAr0vV2JCan+v3C3Abt6fAxmlGCAJWnWAhsoGyIKaXSCJAUoEeyUltGyAqis4QG2IFmiMFh1AVbIltYLE14FCyFYlJgLRdSITJNolGtiRKRGq7ZzqQE4jooBtI2oFO4BUkAVK84EMsrrmBhIHKGMjUkV1VIphXCGqW5zO6W1pFggITklaQK4G0CKzs0KuaMkCGSE53lARrZlU6OB8dG+TXUFbGfyBoGFG6V8zykPjCLFcB87c/OkNWoPh8hI6MBbQofJa3UdysGtbX3FZJh36YUg1GJySeqzYkr6i53KrBeXbjFYnBjQa6wBofHozmhCHoVZZHTN1QP4HkDima09Dx0whrm7+BBKyE0yc1rQ+i43ofHRBtW4tDHHaEMYwzrym7cXn1ar2AxKvKXLteWuLSODg1ZNsYgRfUc0TWz831xQcR4GYkZweBxmBBHEmRz0x/Bm0AY6garpBofHfpgdfO47HebdbNizn98cdil5adjdy+wE=);lineShape=1;fontSize=6;" vertex="1" parent="1">
                    <mxGeometry x="210.39529880318196" y="21.286070341986147" width="0.44116188425210057" height="0.44251522133396193" as="geometry"/>
                </mxCell>
                <mxCell id="77" value="" style="shape=stencil(lZbdUttADIWfxrdnpNX+XlN4D2YIjYc0YUKg5e3R1mOIlkSd3vnv88pHR8c7yc3L9v55MwV6OR0PT5vf88NpO8mPKYR5v90c55MeTXI7yc3j4bj5eTy87h+W8+f7/mQ/+nV462/4s3CNUEKnAr0vV2JCan+v3C3Abt6fAxmlGCAJWnWAhsoGyIKaXSCJAUoEeyUltGyAqis4QG2IFmiMFh1AVbIltYLE14FCyFYlJgLRdSITJNolGtiRKRGq7ZzqQE4jooBtI2oFO4BUkAVK84EMsrrmBhIHKGMjUkV1VIphXCGqW5zO6W1pFggITklaQK4G0CKzs0KuaMkCGSE53lARrZlU6OB8dG+TXUFbGfyBoGFG6V8zykPjCLFcB87c/OkNWoPh8hI6MBbQofJa3UdysGtbX3FZJh36YUg1GJySeqzYkr6i53KrBeXbjFYnBjQa6wBofHozmhCHoVZZHTN1QP4HkDima09Dx0whrm7+BBKyE0yc1rQ+i43ofHRBtW4tDHHaEMYwzrym7cXn1ar2AxKvKXLteWuLSODg1ZNsYgRfUc0TWz831xQcR4GYkZweBxmBBHEmRz0x/Bm0AY6garpBofHfpgdfO47HebdbNizn98cdil5adjdy+wE=);lineShape=1;fontSize=6;" vertex="1" parent="1">
                    <mxGeometry x="218.14267322067099" y="27.686072269412193" width="0.44116188425210057" height="0.44251522133396193" as="geometry"/>
                </mxCell>
                <mxCell id="78" value="" style="shape=stencil(lZbdUttADIWfxrdnpNX+XlN4D2YIjYc0YUKg5e3R1mOIlkSd3vnv88pHR8c7yc3L9v55MwV6OR0PT5vf88NpO8mPKYR5v90c55MeTXI7yc3j4bj5eTy87h+W8+f7/mQ/+nV462/4s3CNUEKnAr0vV2JCan+v3C3Abt6fAxmlGCAJWnWAhsoGyIKaXSCJAUoEeyUltGyAqis4QG2IFmiMFh1AVbIltYLE14FCyFYlJgLRdSITJNolGtiRKRGq7ZzqQE4jooBtI2oFO4BUkAVK84EMsrrmBhIHKGMjUkV1VIphXCGqW5zO6W1pFggITklaQK4G0CKzs0KuaMkCGSE53lARrZlU6OB8dG+TXUFbGfyBoGFG6V8zykPjCLFcB87c/OkNWoPh8hI6MBbQofJa3UdysGtbX3FZJh36YUg1GJySeqzYkr6i53KrBeXbjFYnBjQa6wBofHozmhCHoVZZHTN1QP4HkDima09Dx0whrm7+BBKyE0yc1rQ+i43ofHRBtW4tDHHaEMYwzrym7cXn1ar2AxKvKXLteWuLSODg1ZNsYgRfUc0TWz831xQcR4GYkZweBxmBBHEmRz0x/Bm0AY6garpBofHfpgdfO47HebdbNizn98cdil5adjdy+wE=);lineShape=1;fontSize=6;" vertex="1" parent="1">
                    <mxGeometry x="218.98477634224446" y="29.875542527087646" width="0.44116188425210057" height="0.44251522133396193" as="geometry"/>
                </mxCell>
                <mxCell id="79" value="" style="shape=stencil(lZbdUttADIWfxrdnpNX+XlN4D2YIjYc0YUKg5e3R1mOIlkSd3vnv88pHR8c7yc3L9v55MwV6OR0PT5vf88NpO8mPKYR5v90c55MeTXI7yc3j4bj5eTy87h+W8+f7/mQ/+nV462/4s3CNUEKnAr0vV2JCan+v3C3Abt6fAxmlGCAJWnWAhsoGyIKaXSCJAUoEeyUltGyAqis4QG2IFmiMFh1AVbIltYLE14FCyFYlJgLRdSITJNolGtiRKRGq7ZzqQE4jooBtI2oFO4BUkAVK84EMsrrmBhIHKGMjUkV1VIphXCGqW5zO6W1pFggITklaQK4G0CKzs0KuaMkCGSE53lARrZlU6OB8dG+TXUFbGfyBoGFG6V8zykPjCLFcB87c/OkNWoPh8hI6MBbQofJa3UdysGtbX3FZJh36YUg1GJySeqzYkr6i53KrBeXbjFYnBjQa6wBofHozmhCHoVZZHTN1QP4HkDima09Dx0whrm7+BBKyE0yc1rQ+i43ofHRBtW4tDHHaEMYwzrym7cXn1ar2AxKvKXLteWuLSODg1ZNsYgRfUc0TWz831xQcR4GYkZweBxmBBHEmRz0x/Bm0AY6garpBofHfpgdfO47HebdbNizn98cdil5adjdy+wE=);lineShape=1;fontSize=6;" vertex="1" parent="1">
                    <mxGeometry x="220.50056838582998" y="32.401857245769065" width="0.44116188425210057" height="0.44251522133396193" as="geometry"/>
                </mxCell>
                <mxCell id="80" value="" style="shape=stencil(lZbdUttADIWfxrdnpNX+XlN4D2YIjYc0YUKg5e3R1mOIlkSd3vnv88pHR8c7yc3L9v55MwV6OR0PT5vf88NpO8mPKYR5v90c55MeTXI7yc3j4bj5eTy87h+W8+f7/mQ/+nV462/4s3CNUEKnAr0vV2JCan+v3C3Abt6fAxmlGCAJWnWAhsoGyIKaXSCJAUoEeyUltGyAqis4QG2IFmiMFh1AVbIltYLE14FCyFYlJgLRdSITJNolGtiRKRGq7ZzqQE4jooBtI2oFO4BUkAVK84EMsrrmBhIHKGMjUkV1VIphXCGqW5zO6W1pFggITklaQK4G0CKzs0KuaMkCGSE53lARrZlU6OB8dG+TXUFbGfyBoGFG6V8zykPjCLFcB87c/OkNWoPh8hI6MBbQofJa3UdysGtbX3FZJh36YUg1GJySeqzYkr6i53KrBeXbjFYnBjQa6wBofHozmhCHoVZZHTN1QP4HkDima09Dx0whrm7+BBKyE0yc1rQ+i43ofHRBtW4tDHHaEMYwzrym7cXn1ar2AxKvKXLteWuLSODg1ZNsYgRfUc0TWz831xQcR4GYkZweBxmBBHEmRz0x/Bm0AY6garpBofHfpgdfO47HebdbNizn98cdil5adjdy+wE=);lineShape=1;fontSize=6;" vertex="1" parent="1">
                    <mxGeometry x="221.511096414887" y="34.42291330388309" width="0.44116188425210057" height="0.44251522133396193" as="geometry"/>
                </mxCell>
                <mxCell id="81" value="" style="shape=stencil(lZbdUttADIWfxrdnpNX+XlN4D2YIjYc0YUKg5e3R1mOIlkSd3vnv88pHR8c7yc3L9v55MwV6OR0PT5vf88NpO8mPKYR5v90c55MeTXI7yc3j4bj5eTy87h+W8+f7/mQ/+nV462/4s3CNUEKnAr0vV2JCan+v3C3Abt6fAxmlGCAJWnWAhsoGyIKaXSCJAUoEeyUltGyAqis4QG2IFmiMFh1AVbIltYLE14FCyFYlJgLRdSITJNolGtiRKRGq7ZzqQE4jooBtI2oFO4BUkAVK84EMsrrmBhIHKGMjUkV1VIphXCGqW5zO6W1pFggITklaQK4G0CKzs0KuaMkCGSE53lARrZlU6OB8dG+TXUFbGfyBoGFG6V8zykPjCLFcB87c/OkNWoPh8hI6MBbQofJa3UdysGtbX3FZJh36YUg1GJySeqzYkr6i53KrBeXbjFYnBjQa6wBofHozmhCHoVZZHTN1QP4HkDima09Dx0whrm7+BBKyE0yc1rQ+i43ofHRBtW4tDHHaEMYwzrym7cXn1ar2AxKvKXLteWuLSODg1ZNsYgRfUc0TWz831xQcR4GYkZweBxmBBHEmRz0x/Bm0AY6garpBofHfpgdfO47HebdbNizn98cdil5adjdy+wE=);lineShape=1;fontSize=6;" vertex="1" parent="1">
                    <mxGeometry x="161.38477505729378" y="24.99133264324712" width="0.44116188425210057" height="0.44251522133396193" as="geometry"/>
                </mxCell>
                <mxCell id="82" value="" style="shape=stencil(lZbdUttADIWfxrdnpNX+XlN4D2YIjYc0YUKg5e3R1mOIlkSd3vnv88pHR8c7yc3L9v55MwV6OR0PT5vf88NpO8mPKYR5v90c55MeTXI7yc3j4bj5eTy87h+W8+f7/mQ/+nV462/4s3CNUEKnAr0vV2JCan+v3C3Abt6fAxmlGCAJWnWAhsoGyIKaXSCJAUoEeyUltGyAqis4QG2IFmiMFh1AVbIltYLE14FCyFYlJgLRdSITJNolGtiRKRGq7ZzqQE4jooBtI2oFO4BUkAVK84EMsrrmBhIHKGMjUkV1VIphXCGqW5zO6W1pFggITklaQK4G0CKzs0KuaMkCGSE53lARrZlU6OB8dG+TXUFbGfyBoGFG6V8zykPjCLFcB87c/OkNWoPh8hI6MBbQofJa3UdysGtbX3FZJh36YUg1GJySeqzYkr6i53KrBeXbjFYnBjQa6wBofHozmhCHoVZZHTN1QP4HkDima09Dx0whrm7+BBKyE0yc1rQ+i43ofHRBtW4tDHHaEMYwzrym7cXn1ar2AxKvKXLteWuLSODg1ZNsYgRfUc0TWz831xQcR4GYkZweBxmBBHEmRz0x/Bm0AY6garpBofHfpgdfO47HebdbNizn98cdil5adjdy+wE=);lineShape=1;fontSize=6;" vertex="1" parent="1">
                    <mxGeometry x="162.73214219339576" y="20.107122759406707" width="0.44116188425210057" height="0.44251522133396193" as="geometry"/>
                </mxCell>
                <mxCell id="83" value="" style="shape=stencil(lZbdUttADIWfxrdnpNX+XlN4D2YIjYc0YUKg5e3R1mOIlkSd3vnv88pHR8c7yc3L9v55MwV6OR0PT5vf88NpO8mPKYR5v90c55MeTXI7yc3j4bj5eTy87h+W8+f7/mQ/+nV462/4s3CNUEKnAr0vV2JCan+v3C3Abt6fAxmlGCAJWnWAhsoGyIKaXSCJAUoEeyUltGyAqis4QG2IFmiMFh1AVbIltYLE14FCyFYlJgLRdSITJNolGtiRKRGq7ZzqQE4jooBtI2oFO4BUkAVK84EMsrrmBhIHKGMjUkV1VIphXCGqW5zO6W1pFggITklaQK4G0CKzs0KuaMkCGSE53lARrZlU6OB8dG+TXUFbGfyBoGFG6V8zykPjCLFcB87c/OkNWoPh8hI6MBbQofJa3UdysGtbX3FZJh36YUg1GJySeqzYkr6i53KrBeXbjFYnBjQa6wBofHozmhCHoVZZHTN1QP4HkDima09Dx0whrm7+BBKyE0yc1rQ+i43ofHRBtW4tDHHaEMYwzrym7cXn1ar2AxKvKXLteWuLSODg1ZNsYgRfUc0TWz831xQcR4GYkZweBxmBBHEmRz0x/Bm0AY6garpBofHfpgdfO47HebdbNizn98cdil5adjdy+wE=);lineShape=1;fontSize=6;" vertex="1" parent="1">
                    <mxGeometry x="161.8900390718223" y="22.633437478088126" width="0.44116188425210057" height="0.44251522133396193" as="geometry"/>
                </mxCell>
                <mxCell id="84" value="" style="shape=stencil(lZbdUttADIWfxrdnpNX+XlN4D2YIjYc0YUKg5e3R1mOIlkSd3vnv88pHR8c7yc3L9v55MwV6OR0PT5vf88NpO8mPKYR5v90c55MeTXI7yc3j4bj5eTy87h+W8+f7/mQ/+nV462/4s3CNUEKnAr0vV2JCan+v3C3Abt6fAxmlGCAJWnWAhsoGyIKaXSCJAUoEeyUltGyAqis4QG2IFmiMFh1AVbIltYLE14FCyFYlJgLRdSITJNolGtiRKRGq7ZzqQE4jooBtI2oFO4BUkAVK84EMsrrmBhIHKGMjUkV1VIphXCGqW5zO6W1pFggITklaQK4G0CKzs0KuaMkCGSE53lARrZlU6OB8dG+TXUFbGfyBoGFG6V8zykPjCLFcB87c/OkNWoPh8hI6MBbQofJa3UdysGtbX3FZJh36YUg1GJySeqzYkr6i53KrBeXbjFYnBjQa6wBofHozmhCHoVZZHTN1QP4HkDima09Dx0whrm7+BBKyE0yc1rQ+i43ofHRBtW4tDHHaEMYwzrym7cXn1ar2AxKvKXLteWuLSODg1ZNsYgRfUc0TWz831xQcR4GYkZweBxmBBHEmRz0x/Bm0AY6garpBofHfpgdfO47HebdbNizn98cdil5adjdy+wE=);lineShape=1;fontSize=6;" vertex="1" parent="1">
                    <mxGeometry x="167.11109341666878" y="16.907121795693683" width="0.44116188425210057" height="0.44251522133396193" as="geometry"/>
                </mxCell>
                <mxCell id="85" value="" style="shape=stencil(lZbdUttADIWfxrdnpNX+XlN4D2YIjYc0YUKg5e3R1mOIlkSd3vnv88pHR8c7yc3L9v55MwV6OR0PT5vf88NpO8mPKYR5v90c55MeTXI7yc3j4bj5eTy87h+W8+f7/mQ/+nV462/4s3CNUEKnAr0vV2JCan+v3C3Abt6fAxmlGCAJWnWAhsoGyIKaXSCJAUoEeyUltGyAqis4QG2IFmiMFh1AVbIltYLE14FCyFYlJgLRdSITJNolGtiRKRGq7ZzqQE4jooBtI2oFO4BUkAVK84EMsrrmBhIHKGMjUkV1VIphXCGqW5zO6W1pFggITklaQK4G0CKzs0KuaMkCGSE53lARrZlU6OB8dG+TXUFbGfyBoGFG6V8zykPjCLFcB87c/OkNWoPh8hI6MBbQofJa3UdysGtbX3FZJh36YUg1GJySeqzYkr6i53KrBeXbjFYnBjQa6wBofHozmhCHoVZZHTN1QP4HkDima09Dx0whrm7+BBKyE0yc1rQ+i43ofHRBtW4tDHHaEMYwzrym7cXn1ar2AxKvKXLteWuLSODg1ZNsYgRfUc0TWz831xQcR4GYkZweBxmBBHEmRz0x/Bm0AY6garpBofHfpgdfO47HebdbNizn98cdil5adjdy+wE=);lineShape=1;fontSize=6;" vertex="1" parent="1">
                    <mxGeometry x="169.46898858182777" y="15.728174213114244" width="0.44116188425210057" height="0.44251522133396193" as="geometry"/>
                </mxCell>
                <mxCell id="86" value="" style="shape=stencil(lZbdUttADIWfxrdnpNX+XlN4D2YIjYc0YUKg5e3R1mOIlkSd3vnv88pHR8c7yc3L9v55MwV6OR0PT5vf88NpO8mPKYR5v90c55MeTXI7yc3j4bj5eTy87h+W8+f7/mQ/+nV462/4s3CNUEKnAr0vV2JCan+v3C3Abt6fAxmlGCAJWnWAhsoGyIKaXSCJAUoEeyUltGyAqis4QG2IFmiMFh1AVbIltYLE14FCyFYlJgLRdSITJNolGtiRKRGq7ZzqQE4jooBtI2oFO4BUkAVK84EMsrrmBhIHKGMjUkV1VIphXCGqW5zO6W1pFggITklaQK4G0CKzs0KuaMkCGSE53lARrZlU6OB8dG+TXUFbGfyBoGFG6V8zykPjCLFcB87c/OkNWoPh8hI6MBbQofJa3UdysGtbX3FZJh36YUg1GJySeqzYkr6i53KrBeXbjFYnBjQa6wBofHozmhCHoVZZHTN1QP4HkDima09Dx0whrm7+BBKyE0yc1rQ+i43ofHRBtW4tDHHaEMYwzrym7cXn1ar2AxKvKXLteWuLSODg1ZNsYgRfUc0TWz831xQcR4GYkZweBxmBBHEmRz0x/Bm0AY6garpBofHfpgdfO47HebdbNizn98cdil5adjdy+wE=);lineShape=1;fontSize=6;" vertex="1" parent="1">
                    <mxGeometry x="177.7216163059232" y="13.201856817452267" width="0.44116188425210057" height="0.44251522133396193" as="geometry"/>
                </mxCell>
                <mxCell id="87" value="" style="shape=stencil(lVbLUuNADPwaX1Uzo3loziz7H6kibFwbEipkd+HvkXFskCBN7c2ZdFuPbskz8M3TbvO4HVJ4Op+Ov7f/xrvzbuAfQ0rjYbc9jWd9Gvh24Jv742n763T8c7ibfz9uJuT09HD8O73heeZVpsoTK4WXywmF+Hbwc8bvx8NHfKeUDT5R6NfxrZBYfKCYruMlUSsOzwHgNR92+VTw/p6pRlevMMALsX1/TJTlOiGGQCFYRl9Ovg7RKbuWFqqgp71SszVwJKmAkCjalLhCgqgJxBCyygYIrS8qrYRIGfS1aReLj1CAcLVSaraGRgVEqJHY1sDqLaBcUaltW9UbrQFC8xG+MbdGuOi6WoNx0etwLYRGFZRQm58GpgSs1zS8rUBFyMAXgXJ1eGRtaYtr1oLxdCbqNp+yrJuv8c1LFjVDIJnOmlegQlMoQazttKUZDWfzCy916mCjdiZx01yI0TQrIf0XoXrVshaN2qqzZlNS52ZcQ3RbtUOjyifhdIN05NRO0eogAvewJuCsp6sf6aDTLHYj6e5Hn4ZclozfzYfHgTOF5EMg5fRjJuKLQBF0n0TrvmkE0dJb4q86CCVg708ft7q27YLXh/fLxv243893lY//+8uJHs0XG759BQ==);lineShape=1;fontSize=6;" vertex="1" parent="1">
                    <mxGeometry x="179.8249321646299" y="13.079430815137016" width="0.6088329511623924" height="0.6263447746515707" as="geometry"/>
                </mxCell>
                <mxCell id="88" value="" style="shape=stencil(lZbdUttADIWfxrdnpNX+XlN4D2YIjYc0YUKg5e3R1mOIlkSd3vnv88pHR8c7yc3L9v55MwV6OR0PT5vf88NpO8mPKYR5v90c55MeTXI7yc3j4bj5eTy87h+W8+f7/mQ/+nV462/4s3CNUEKnAr0vV2JCan+v3C3Abt6fAxmlGCAJWnWAhsoGyIKaXSCJAUoEeyUltGyAqis4QG2IFmiMFh1AVbIltYLE14FCyFYlJgLRdSITJNolGtiRKRGq7ZzqQE4jooBtI2oFO4BUkAVK84EMsrrmBhIHKGMjUkV1VIphXCGqW5zO6W1pFggITklaQK4G0CKzs0KuaMkCGSE53lARrZlU6OB8dG+TXUFbGfyBoGFG6V8zykPjCLFcB87c/OkNWoPh8hI6MBbQofJa3UdysGtbX3FZJh36YUg1GJySeqzYkr6i53KrBeXbjFYnBjQa6wBofHozmhCHoVZZHTN1QP4HkDima09Dx0whrm7+BBKyE0yc1rQ+i43ofHRBtW4tDHHaEMYwzrym7cXn1ar2AxKvKXLteWuLSODg1ZNsYgRfUc0TWz831xQcR4GYkZweBxmBBHEmRz0x/Bm0AY6garpBofHfpgdfO47HebdbNizn98cdil5adjdy+wE=);lineShape=1;fontSize=6;" vertex="1" parent="1">
                    <mxGeometry x="181.42688931510628" y="12.359751018898237" width="0.44116188425210057" height="0.44251522133396193" as="geometry"/>
                </mxCell>
                <mxCell id="89" value="" style="shape=stencil(lZbdUttADIWfxrdnpNX+XlN4D2YIjYc0YUKg5e3R1mOIlkSd3vnv88pHR8c7yc3L9v55MwV6OR0PT5vf88NpO8mPKYR5v90c55MeTXI7yc3j4bj5eTy87h+W8+f7/mQ/+nV462/4s3CNUEKnAr0vV2JCan+v3C3Abt6fAxmlGCAJWnWAhsoGyIKaXSCJAUoEeyUltGyAqis4QG2IFmiMFh1AVbIltYLE14FCyFYlJgLRdSITJNolGtiRKRGq7ZzqQE4jooBtI2oFO4BUkAVK84EMsrrmBhIHKGMjUkV1VIphXCGqW5zO6W1pFggITklaQK4G0CKzs0KuaMkCGSE53lARrZlU6OB8dG+TXUFbGfyBoGFG6V8zykPjCLFcB87c/OkNWoPh8hI6MBbQofJa3UdysGtbX3FZJh36YUg1GJySeqzYkr6i53KrBeXbjFYnBjQa6wBofHozmhCHoVZZHTN1QP4HkDima09Dx0whrm7+BBKyE0yc1rQ+i43ofHRBtW4tDHHaEMYwzrym7cXn1ar2AxKvKXLteWuLSODg1ZNsYgRfUc0TWz831xQcR4GYkZweBxmBBHEmRz0x/Bm0AY6garpBofHfpgdfO47HebdbNizn98cdil5adjdy+wE=);lineShape=1;fontSize=6;" vertex="1" parent="1">
                    <mxGeometry x="185.13214090844514" y="12.359751018898237" width="0.44116188425210057" height="0.44251522133396193" as="geometry"/>
                </mxCell>
                <mxCell id="90" value="" style="shape=stencil(lVbZcsIwDPyavGpsy4f8TNv/YIZQMqXAAL3+vnIzSZGTqOUthzb2rrQbN7i67NantnHmcj0fX9qPbnPdNfjQONcddu25u/JVg48NrrbHc/t8Pr4dNv39aV0qy9Xr8b184bPHpQDRFZQzX/0TA8b+PHjq6/fd4aaeELyst5BxuT4b8EbUJwhOqQ9AKL8fwSYFkMEGAXARcl4GWMMM5ZaQgLyyBAFKQGBWyhLZg5MkooFkFFUJnJUAGnSeBxigJGV1g3CzAH6dSQK4k4quMQBWKxhwtAwIo4gjB4SgqBQ8mChl9WAVlYKFIFfwTPouALJuGofJlmyGcBdpa1QORVbZB26D4rfSt1z50/0xGFTVk9Lm6eQFtcvT0bY42Omf5mHGGoM5f3qgqEdANRcRkiLqNGQCp5KeYii7EDmVFJlo7OroHgtJ4TDNYfZnVNxzN4AThaSs5CFrozohnRFQkZVTkSoAp1hYBngGyOy+af4sovhXGjQn1dH8e/LVnpw+fljPK/cSlb8Dj5rkUDqtkHa1gThDrPL9iRs8+0fpM+ePJOxoCLWF/SRZXxRQ9p8gSrPVHeOL39PGttvv+8PK7fv6dMKP+pMNPn4D);lineShape=1;fontSize=6;" vertex="1" parent="1">
                    <mxGeometry x="190.14700454713176" y="12.758284518075811" width="0.5697868063637208" height="0.3775208263706238" as="geometry"/>
                </mxCell>
                <mxCell id="91" value="" style="shape=stencil(lZbdUttADIWfxrdnpNX+XlN4D2YIjYc0YUKg5e3R1mOIlkSd3vnv88pHR8c7yc3L9v55MwV6OR0PT5vf88NpO8mPKYR5v90c55MeTXI7yc3j4bj5eTy87h+W8+f7/mQ/+nV462/4s3CNUEKnAr0vV2JCan+v3C3Abt6fAxmlGCAJWnWAhsoGyIKaXSCJAUoEeyUltGyAqis4QG2IFmiMFh1AVbIltYLE14FCyFYlJgLRdSITJNolGtiRKRGq7ZzqQE4jooBtI2oFO4BUkAVK84EMsrrmBhIHKGMjUkV1VIphXCGqW5zO6W1pFggITklaQK4G0CKzs0KuaMkCGSE53lARrZlU6OB8dG+TXUFbGfyBoGFG6V8zykPjCLFcB87c/OkNWoPh8hI6MBbQofJa3UdysGtbX3FZJh36YUg1GJySeqzYkr6i53KrBeXbjFYnBjQa6wBofHozmhCHoVZZHTN1QP4HkDima09Dx0whrm7+BBKyE0yc1rQ+i43ofHRBtW4tDHHaEMYwzrym7cXn1ar2AxKvKXLteWuLSODg1ZNsYgRfUc0TWz831xQcR4GYkZweBxmBBHEmRz0x/Bm0AY6garpBofHfpgdfO47HebdbNizn98cdil5adjdy+wE=);lineShape=1;fontSize=6;" vertex="1" parent="1">
                    <mxGeometry x="193.04792952549553" y="12.696595479904204" width="0.44116188425210057" height="0.44251522133396193" as="geometry"/>
                </mxCell>
                <mxCell id="92" value="" style="shape=stencil(lZbdUttADIWfxrdnpNX+XlN4D2YIjYc0YUKg5e3R1mOIlkSd3vnv88pHR8c7yc3L9v55MwV6OR0PT5vf88NpO8mPKYR5v90c55MeTXI7yc3j4bj5eTy87h+W8+f7/mQ/+nV462/4s3CNUEKnAr0vV2JCan+v3C3Abt6fAxmlGCAJWnWAhsoGyIKaXSCJAUoEeyUltGyAqis4QG2IFmiMFh1AVbIltYLE14FCyFYlJgLRdSITJNolGtiRKRGq7ZzqQE4jooBtI2oFO4BUkAVK84EMsrrmBhIHKGMjUkV1VIphXCGqW5zO6W1pFggITklaQK4G0CKzs0KuaMkCGSE53lARrZlU6OB8dG+TXUFbGfyBoGFG6V8zykPjCLFcB87c/OkNWoPh8hI6MBbQofJa3UdysGtbX3FZJh36YUg1GJySeqzYkr6i53KrBeXbjFYnBjQa6wBofHozmhCHoVZZHTN1QP4HkDima09Dx0whrm7+BBKyE0yc1rQ+i43ofHRBtW4tDHHaEMYwzrym7cXn1ar2AxKvKXLteWuLSODg1ZNsYgRfUc0TWz831xQcR4GYkZweBxmBBHEmRz0x/Bm0AY6garpBofHfpgdfO47HebdbNizn98cdil5adjdy+wE=);lineShape=1;fontSize=6;" vertex="1" parent="1">
                    <mxGeometry x="172.5005619610767" y="49.580812323894065" width="0.44116188425210057" height="0.44251522133396193" as="geometry"/>
                </mxCell>
                <mxCell id="93" value="" style="shape=stencil(lZbdbtswDIWfxrcEJUoidd1171Gg6WIsS4o029q3Hz1DmaU0B9idf/RZJM8hrUke3vZPr7sp8tvlfPq++z0/X/aTfJlinI/73Xm++NUkj5M8vJzOu2/n08/j83r/+rSsXK5+nH4tX3hfuaoU0kJF/lifaCGpf598XYHDfNwClZJ0gDFZgUCtPZBJMwCsvW5AZcoJALkFcAUSKQICldADSgaStkJp2KFSUQAw1TgCle8DmqlwDxhlUCUNxL1wXgYFOhQl7YXzMlgEQCHuQzI3CwhpAXrhLFIEOnhIg3CqlIEOnnQc3CqkuKzWh6SujAHhAoXeraXCHdwaGscdOEDzjSEF3EBlVNqzYmA+d864QyUBOQTmG6kTBZSEf7BXzqy1+b0khilQhRLqUWleuwIFK2ejNzxI5D43p2oHbOrwuZuUJIxbBKCExpbjJgkT0BHWxsqmTPG/AZB19kFj47CsoKtTvBmWAv0qTHEAvKxg0IQ6AiZUwA6Bb8ZAbr+xz0NqRb82tecMdGOS3ntZ2vC8s35oHy8aA69Gsn6916yg/0+bim2974hcEZS4TzgEOAGiUumBRAlIJj4UexeNneMX/84cL/PhsB5Ztu/HM4o/Ws838vgH);lineShape=1;fontSize=6;" vertex="1" parent="1">
                    <mxGeometry x="174.1864762130025" y="50.77434560824861" width="0.6752642535829771" height="0.7606831093359863" as="geometry"/>
                </mxCell>
                <mxCell id="94" value="" style="shape=stencil(fVbZUsMwDPyavGpsyeczx38wQ6EZSsuUcv09KhmbyoR9S9NVJO2uZE9y9bq9e9lM7F5Px8PT5mO+P20nuZ6Y5/12c5xP+jTJzSRXD4fj5vF4eNvfL79f7s7I89Pz4f38hc8lLjjK4RzF7mt545lK/HlzuwTs5v1lQCL2JiBR5v/xUahYPJMAfGLK0eAdeYDPTK4MeAH1F0dFhnpqAfhCrhp8bgWu4quMeB/IBxAQSQaCPEUHAgJFtgGVHMrgRgkkUq2gZ81gNQieEigpJwo2Q+hdraucia0K6qsMAmJuFV9kSAn4tFKyxg5MDIQOKlyyLCWqoGkpVG0GUauCHiS3FrtwDGmV2ozQvRTJZ9BDaLPSAgpFIHT0o1mFIiA1KqnjsKHvpzKq5sghH5Vm5N4wXEYlUrHfV2Oj4fSjAl4TAEJ11uqgQIGjo9M8KKD7EVFaua2rLoFQRhlWA4Cxa6aU7SQIBaCCd12lTqumQDRVYhuQAjGmSSxNOeC1rUa2zitCAkrKtf3dAn7X4H9eZeu9qkcdKCnG8SRRGgRtmH6ydjM5PA+6UNzQRD+O1qXTJiyveh6h46qMSpe+mVfxf5yhI1sNXh9+LxsP82633FUu/x8vJ/pqudjIzTc=);lineShape=1;fontSize=6;" vertex="1" parent="1">
                    <mxGeometry x="210.37519409427432" y="53.32491841794001" width="0.4754412042329772" height="0.5862160301906746" as="geometry"/>
                </mxCell>
                <mxCell id="95" value="" style="shape=stencil(lZbdUttADIWfxrdnpNX+XlN4D2YIjYc0YUKg5e3R1mOIlkSd3vnv88pHR8c7yc3L9v55MwV6OR0PT5vf88NpO8mPKYR5v90c55MeTXI7yc3j4bj5eTy87h+W8+f7/mQ/+nV462/4s3CNUEKnAr0vV2JCan+v3C3Abt6fAxmlGCAJWnWAhsoGyIKaXSCJAUoEeyUltGyAqis4QG2IFmiMFh1AVbIltYLE14FCyFYlJgLRdSITJNolGtiRKRGq7ZzqQE4jooBtI2oFO4BUkAVK84EMsrrmBhIHKGMjUkV1VIphXCGqW5zO6W1pFggITklaQK4G0CKzs0KuaMkCGSE53lARrZlU6OB8dG+TXUFbGfyBoGFG6V8zykPjCLFcB87c/OkNWoPh8hI6MBbQofJa3UdysGtbX3FZJh36YUg1GJySeqzYkr6i53KrBeXbjFYnBjQa6wBofHozmhCHoVZZHTN1QP4HkDima09Dx0whrm7+BBKyE0yc1rQ+i43ofHRBtW4tDHHaEMYwzrym7cXn1ar2AxKvKXLteWuLSODg1ZNsYgRfUc0TWz831xQcR4GYkZweBxmBBHEmRz0x/Bm0AY6garpBofHfpgdfO47HebdbNizn98cdil5adjdy+wE=);lineShape=1;fontSize=6;" vertex="1" parent="1">
                    <mxGeometry x="212.24792995381245" y="52.61238570314299" width="0.44116188425210057" height="0.44251522133396193" as="geometry"/>
                </mxCell>
                <mxCell id="96" value="" style="shape=stencil(lZbdUttADIWfxrdnpNX+XlN4D2YIjYc0YUKg5e3R1mOIlkSd3vnv88pHR8c7yc3L9v55MwV6OR0PT5vf88NpO8mPKYR5v90c55MeTXI7yc3j4bj5eTy87h+W8+f7/mQ/+nV462/4s3CNUEKnAr0vV2JCan+v3C3Abt6fAxmlGCAJWnWAhsoGyIKaXSCJAUoEeyUltGyAqis4QG2IFmiMFh1AVbIltYLE14FCyFYlJgLRdSITJNolGtiRKRGq7ZzqQE4jooBtI2oFO4BUkAVK84EMsrrmBhIHKGMjUkV1VIphXCGqW5zO6W1pFggITklaQK4G0CKzs0KuaMkCGSE53lARrZlU6OB8dG+TXUFbGfyBoGFG6V8zykPjCLFcB87c/OkNWoPh8hI6MBbQofJa3UdysGtbX3FZJh36YUg1GJySeqzYkr6i53KrBeXbjFYnBjQa6wBofHozmhCHoVZZHTN1QP4HkDima09Dx0whrm7+BBKyE0yc1rQ+i43ofHRBtW4tDHHaEMYwzrym7cXn1ar2AxKvKXLteWuLSODg1ZNsYgRfUc0TWz831xQcR4GYkZweBxmBBHEmRz0x/Bm0AY6garpBofHfpgdfO47HebdbNizn98cdil5adjdy+wE=);lineShape=1;fontSize=6;" vertex="1" parent="1">
                    <mxGeometry x="212.41635486129599" y="52.443966149620564" width="0.44116188425210057" height="0.44251522133396193" as="geometry"/>
                </mxCell>
                <mxCell id="98" value="" style="shape=stencil(lZbdUttADIWfxrdnpNX+XlN4D2YIjYc0YUKg5e3R1mOIlkSd3vnv88pHR8c7yc3L9v55MwV6OR0PT5vf88NpO8mPKYR5v90c55MeTXI7yc3j4bj5eTy87h+W8+f7/mQ/+nV462/4s3CNUEKnAr0vV2JCan+v3C3Abt6fAxmlGCAJWnWAhsoGyIKaXSCJAUoEeyUltGyAqis4QG2IFmiMFh1AVbIltYLE14FCyFYlJgLRdSITJNolGtiRKRGq7ZzqQE4jooBtI2oFO4BUkAVK84EMsrrmBhIHKGMjUkV1VIphXCGqW5zO6W1pFggITklaQK4G0CKzs0KuaMkCGSE53lARrZlU6OB8dG+TXUFbGfyBoGFG6V8zykPjCLFcB87c/OkNWoPh8hI6MBbQofJa3UdysGtbX3FZJh36YUg1GJySeqzYkr6i53KrBeXbjFYnBjQa6wBofHozmhCHoVZZHTN1QP4HkDima09Dx0whrm7+BBKyE0yc1rQ+i43ofHRBtW4tDHHaEMYwzrym7cXn1ar2AxKvKXLteWuLSODg1ZNsYgRfUc0TWz831xQcR4GYkZweBxmBBHEmRz0x/Bm0AY6garpBofHfpgdfO47HebdbNizn98cdil5adjdy+wE=);lineShape=1;fontSize=6;" vertex="1" parent="1">
                    <mxGeometry x="213.59529708991442" y="51.43343812056355" width="0.44116188425210057" height="0.44251522133396193" as="geometry"/>
                </mxCell>
                <mxCell id="99" value="" style="shape=stencil(lVbLbhsxDPyavRKSSL3OefxHgDj1oo4dOE7a/n25XUg11e4Yua1ljkRxZkhNfPe+f3rbTcG9X86n77sf8/NlP/H9FMJ83O/O80W/Jn6Y+O7ldN59O58+js/r77enJXL5ej19Ljv8XHGBSllAwf1aF7iQyJ+VxzX+MB+v4n0mZgsQimUbwJE4G0DI5PM2IDK5ZAC+UkrbgCzk7AmRMsioZhJn4h05B+ILBW8TIh9hfI0mXqii/StFW1LvqIAKKaBUC1DSGJDm+g07CQnXSI8QS3NstGwBxAIkEFdYpWJvLYVcgICRZk8MpKo8B8tDDOQ8ACQSqzypVBERKjSbkkQSdIc4pqR2K+gO0hLoAEcVnSCj+NTigniI5AcxCewACkg2pUwJyTs1lnpGlFBC2h7CYM+AbpypyhAvSKmFsrUzE2MrsK1oaQXYtI71mr/Rj1RklgHNCMpOAUMPDq3JbgGSTUkceeSESm5oYQkXqYxjITqK6IQ8Nr3FnFgWXwPoWBCro4iJ08HDtkqZqQAlaUtM9oSiswtUSYdntFKtff7+/wTyg5QcnlWhsdQPqJA336zY4zPc37f79XiGTVtFYPcv2ixAc1GrW5KLpwDy0WrY+OUxACj7Zw6mdCMfP4yQCp3mxgmiIkWa6838ymcVPb8oDkYObWVDD34YH9oKgC2/+hy8Ha8ff9+eL/PhsD5dr/8f36q6tL5z+eE3);lineShape=1;fontSize=6;" vertex="1" parent="1">
                    <mxGeometry x="169.39775847554336" y="23.665873514954683" width="0.9828071441926935" height="0.09575393338378663" as="geometry"/>
                </mxCell>
                <mxCell id="100" value="" style="shape=stencil(lZzZkt7GDYWfZm5ZvS/XjvMerrIcTUWRXLKcxG9vdE2R8/OA/0fpbhYekr0AOAdA8yX/9MfHX37/8JLCH9++fvn3h/+9/vrt40v+x0tKr58/fvj6+s1+esk/v+Sffvvy9cO/vn758/Ovb7///su6cv30ny//XXf4/xsujy3PhUrhr7e/tLKlt7/88w3w6fXzI2BuIZwBfcsVATmfAD1sJSKgljMgbZUBLZ0BdYsJAUWeMLbAT4j1BBhhGwMAY2vxDMhbbwDoWz/P0mg86KaDHrYyGQB1y+eFm3HLNEvHGx+AvN/iGpB0a8zCsxR0Wmfbb3EJSLZMDkDTmuo2ZQwdB53yNpMCOr1S3If4ABj9OSDOrVcHgJWOfWtFAQ0sLtatuleiQcesFremFZxAjFvrbuFg881tyhvVLZTn15tXkhfK+yRcXt+2IasWtwmLUHcPdFwf8H3KFs/jHbZm5PS2KOZvT6Rtt6XzeEfaOm2irZy9dp843qCbtLdtwp4zDy0+25wBWLIZ8tnMlo/H68N5Pi2IkMc+Vue4PuMGDeonmr0P+Al3/9q3hPMZzvNTLWry/c+esdoKwv5x81MsoPD8n/dDMXvE+SlneylmX2C/Qe2rxC3C9XHnEPv1KyDC/MR9Nx7XN7THtDW5f2YSsj/9uD7s8faJvcv9zSMRZ2m6vvYX2g9dWZc9ke4/tinXJw4yYQ8pByDigGPa7ekBECkEFHUpa9HpCeajiwJwTxxb/mHQ9IS1q89Wb+tOtO79fg/LEMHM7H5D1rniGOzf+oS+x9prgLE+GcPcY+01wOjJ2TSzGRNzKLU123tE68LuSg5A38PPNSDqoMsNW05qDqVsGQZt1l6dfyR/YUMU0mUOmAKsseUpEcH4M42hb+HsYurYSc8ziaAxLTG9Hvu6HoCK9mCqpTupRlzWlqmcp7UH5OMWBdJ585lUo7hjgCHEpaCJFpN+5zGYtpv0hOyoSEd7MIDYg3GpRq/k9tKIO129BtQLMYiz1HQdRkEnYLs/n12l8VOyh+pc5RhIkKqtw3mlTW5WAtgsCYUPSKmMccWgAApZde4C+YH0015q9u+kAIpxZpAqpCJ671bUppcOAV5iFlxFn6Y9AFwD+j7EB2VEIasNpfIGGDSGuQ0BlN0Gr7mMc/cm7iKstGmJ2RVANm0mX89ew+Qm7SUz+RQUQDGuD/VL87DBa0IWNP1iAJolE3Rp/MgrDeeXDECcezivYQtH02omr4mFhKrWTF4zQhFD1rLg87TaLWjQdr/hhHYiQNrt69FVwqCnM1Hz3hSnV6bCxQcKuwYQsWRiu8JeWhtB0pEZ1bwBhAmYDeK0dtVj5hZIzxtAaGhjQfmeknpQ6I1fSdi9uecIm28BzmMwglV5DEJ/6pEN/F5AxrzZBSDsAuE7x2CRG7e3B1SkcGvhBMDxwQDCBIwF3kyravuOMc4A8RwfMseHtb3PW2MJBAhZK1sp0nKinF4WJ7KsYUp1NtVAK1FMgOpeKWIG0AAyrXEimzFH1s9+yRQ2aVGL+zKtpuFxe2cddExbpHVIexLvAIQ9EfrM3UuebuzFomcBaIiXQRVnEU50Yt2V5vX1fc/aHMaArt5ijeQ08pYogEZ9f3aSxjKCvk9kGhOHXD+IWDXlSeYhYby96P05OpsaFE4/UFqZ3BRXYRso3LDb8wLEiLF28WfZ03mf42cMfZyXwKyGzMw0QD/vObNL2tQrlX3eFHHssvqZLJGwk0xasfDRbGBCZ9SCEoybjWRaTLOBHXe2xW7N4AaUViYPi6RwMyql2vY5ecgpU+g0xSq1wvfC8jUgqzWXhKJhiWhJW3FSqbq6Sj0qM9eJgKl02AAdxmAAoWEGoMqQAXJ3ABiDATQxFvYa67NkRnev1Cm/MlREv6c3ngEk/K+JphyR65IokzNpQ3frmjcetOSICqcP7d+6+cbdSseiAMrgGECZ4UATLa6yXQZWbW3Wgxv0oKRSUJteoyKLC1t2AHQzV4DJgHTmPOsW5DV87TBg7W1Nq7M4mqW1cN5EKX04L9wMsdu1TP6VyGuMfYgPANx8zoDeJ/r7TZTyXOsJSQHlxs1UBRA5+WHAmnXxGlxWtoAifQmFVUbN2gSUB7YZWVCUToPMFS/T2JJUysw1atPtbeIt0xO6KyQ2fsJwtc2M6fTqCicm3gKxyqDdW0bhKhEsx8iMJCIgXYg3Svm0ollZE2/EvY3oNse9qca8WjYko4lJ2eaK2B0zdT1qdOD8Z3dNN2XPhTzLKicVb9SD0rsWWbjQ2qeWrgKmn0bUeBtYrGZ181ysG3VvkXi4nsVw1OspRzIcpeeWgxmUkGQkYav2omK4U3IhaStfw5Azy4VYhf0w60W2gyKOTyKZ9kyUamtOe9a9OPM0mSfac6DAMIAUGRJH/jn2BMeDLyXHNYfW0FZrDD9BX2ly6nk6oZfQkOdRgzgAhQc9Nan63q77DKBMOPA6TBXcJWMBNwbXUnaXGZ7qfu9yzw5wl912XZ6LbvA0SSFwZegpMzyVIFVOKC3AOai1iDTSAGJyjRu311LLExpK9OlkVZu75ngGkIrVarIgwHAN9OWu2qPtoR1zKwaQ/sQR7jL04ustehGzXc7V9cNjdCg7tT4ArCVXeJCSb+RXikpUV1MyrYProrVRYY14XrS3UxJgdNe4PbCjYVQ36ME14uLK1uYMKSWeVFa9m9SzHLc41wff9izLPZSp3iC6m9iJXGxxQz8KsIjuyNiaJ1g6Y7eiMVYcozG43MdkfmJ8W5viO3pXI/S6X/ncQHNtspON1FSMrkNFd1zd4aFV9roRh0MBmIOqSgYWD6S2I9cpa24A5Wdw/TEJ0/Wrl9F1QmFHWtPi+5joaEpVIx3HyZprQHENZhzljL5Ic5Z5EsyYJj1SYp6EmkZXK6FEiHjXrKhxlH1fcV3y69QEdZlOVRydO3DW2TgJvFyNykOLvp1F+kWX6eDm3a5HbxrXBHPTooYxJlqH7Lq5Vr4FDGj1JwvraxjlclZXWRM64xy1bFIGVkFy0LLJquRQX/d06Uk+oWTiU7IZeeCRl3UG6rwOmbvqVuu6tFnwIav3fMoBiJi5NmkovjUdwugakJy6ZD6TXANBYsYUp9ZZEs+SCWjhlaunn45etIuzHXj0orj0JPdlRF/OLXjaKgat2d2MwSmOlWHF4yxSsUscTprmiO2Jg0KoxoZlsHC9m9HMM1p0F+WGnDW7WvTE40dJda4ZP3m85AoH3CWfXNsK98cmTUQV9i3RyW4+vhbd4QmuY0RV6bXfXe+P9+FxMT2znrGinNTmV9sInanRTPJqZMH5l0xmZzWcdX8aEaGmvqye/Y7paBeNUSkinE4drWZlPJ6rx+cb+ofu7t/x/q6eb/yXApM/gh0xxRgddZwJM7fRq+CMO8KCgJ5NyEh/VybYCR1KMUbnpCd3SluolDAzC+a3V76/KACPomXX11+wn2+d23ZjQMP3kjZj5LCtEZ26I2KXg56/mzdfq0juCRH3Us4XR2+oEJOLphYGfzAgVweoGO+zP6DEtRsDSARZaR9SFc4F9I45zOyO1K4cDq2DEzqdz9yvVxIvHPiVmgtTN6cUj6j9oL1QSjVNLTQ+KJabMgUD4PZuWjRsh6d6ujXkqAHH2vUhEwegitKa1qQAahjIrlBtAKJH63yr+9wAxmd3EKDdeI2uDMkAKMuHJtDXtPJp0eSm9eY86g9+CegeYD+8f3jot9dPn96+W/T4f/1Qkf3p7SNH+ee/AQ==);lineShape=1;fontSize=6;" vertex="1" parent="1">
                    <mxGeometry x="171.86364643257414" y="21.6508291067056" width="3.2699061791254715" height="2.583204495803026" as="geometry"/>
                </mxCell>
                <mxCell id="102" value="" style="shape=stencil(lVfLbhsxDPwaXwlKlCjpnKb/ESBObdSNA8d9/X25NbSxuLtT9OYonBU5HD60k4f3w9Pbfhf5/Xo5f93/PD5fDzv5tIvx+HrYX45X+7WTx508vJwv+y+X8/fX59vfb0+T5fTr2/nH9IVfN1ylGidQ5N+3A6ZQ/x58vpmfjq935hKolsFeKOu2fVJKdbBXUmCfG+Xx+4EpyzagBCptBGRKeRtQIwUdANFi4m1AmxmZAY0kAEAmHV0S7U6uAyqVNABSIgEuBWZiHhDZeAB5a404j4BGEflkiZMxcUoCEtEiychridQSSEShNt5QjIcIAHOIHVCFEhBTScQjr3anghjUMjfe0AJkSSwGB2hd8OuA7IM2QAVyFSENriDm5G+VaMz+igb0anIOwQMU3BALpQWAAU1W9DJ2GZN8AtqIRtMoplagNqYbqgcgliyG7GLQLuAtlqJzKVMFAMtDih6AeqWl2unbAAmpTzvrdwDUXaUuMq29RNYBrdfLHQBJI7Hv95aHCArCANkBKjFQq7nUFlpC0rCgs0tc63LcolUXBVRQjSZK7AENdYFIHBeAAsXnpWEnoJOZvNuiRFEeprkcPK2KXFI/gizTDRWQ+sE7SQPHwA6gsIBsmdHoAbAJrAKA+HLy0qjz7F6fKOJZqtYEAKBwz+sMCJDWUiiMLtlJBZm279Wxa9igFjSoM5VxJ7M52dCKVf0EsmUjgBiqjY9R3hkHbXPcsWQbE8pDtcSNq4CN7gxYKubxKA1huFfaIiojS9NqDMSnoffqebJb4kA9ZHPA7cZCgvrScrDDJdEq1D0GFCpJfOuWXh3rn+9b84d5Qkuun7dWSqAfcSd7pr/vchvm7LIFe9Fi3w69JjbMo3uUwInDfqTZAWSmqjNHLUX86s+d2fWJ7NcW7sW5rsru6p058L2QNG8OeP/P5+k/ze3Hx0v45Xg63R7S9//3L2c7ur265fEP);lineShape=1;fontSize=6;" vertex="1" parent="1">
                    <mxGeometry x="176.53041303305466" y="24.02395460074024" width="0.45429616176213694" height="1.4752168843153326" as="geometry"/>
                </mxCell>
                <mxCell id="104" value="" style="shape=stencil(7Vnbjhs3DP0avxLUhbo85/IfAbLpGt3uBptN2v59qRqajijPkd23AHmzZ3hGokgeUuQpvPv2+Onrw8nzt7fXl98f/jx/fns8hfcn78/Pjw+v5zf9dQofTuHdl5fXh99eX74/f778//qpSbZff7z8aF/464ILTCk2lOe/L0+Ycv73wceL/NP5eZT3aZAPFPyxvC8Uxu/rgwDkhaIM8i5SBBvS9V0ZAYUqAwBTdAPAR3LpGOAy+XEFXykXAIjE4wpBKIAtOabCAyDqMcsxoBD7UV4PKR7LC6U8ymcqQOXQfaDLi3oFOlOK4wmJp4q8gnh0IomUgL6TjSVBfSeLSaaETOzIj14qpfv5dUCiUiwgIY3jpHLpn7iusicJI6ASAxtER8VNAKCDuG7TPaAeA5IjKRbgHDADU43TCshu+j2ZTgnQRZH+egeI4JTqvKXcg+86QCMrWADSoaprjsEpQhVYuuZOP7toKMCXFGC3FEiQDtlSnsYn1CFbllcCQCysSufRNWIlDwx3BaC0DZxPASVbAMpUdTPTDiAgHprS0woBG04mAKJtBVS2AId02L63ByDDKQvdu0INkw7olNSu3gJgxFWb0Zsd0JYqJWcBGbmGAqp1PkYBVCmY/OaoYqXduILGNOJWBfBElbyww7hCClSQ0sUSWaqwEqvFOl+OlJG3FhtxSs+IjBtgtHSJPa8eAkbnK0rGC8DofMrnGdmh9O9tAK0lFjqMp1QFU6VyxEiVzbswwNQaChBEM6Xn/R0AxkO28aCAipTO3XO2GpoZFhvKxnVSYkHfpnZQAPTvRH5SIiP/Tr142Z8r1sGU6Y3bUEAoQCxgcUqGK+siZyVbSCsA+kaaAkLZGCc5w2QNgIsNk+TWK1R3lw5bhrr1lLYr5K12KJbvm6UxbczOJ6DSbTE6eysOOcszi3jINo2uIi7bG8cNQZ2nPUHeSL0+upWZkq3vV9ynITeZGrLrNQDfu8ICkAzhR6o4qM1dcZWDks3UqyyXuuvcmkenYnqVqZNN7a0WwGxsiGlVbaTuObfWMwowBdCiYkq2C7K4IM85q1V9WAfbB3GwF/Xr2tQBv65NP8W1qZruDEMddgln33jAezL1ugR856hT80RIsDOlqTcIb2ZiE4QUzJXOBkTjGdTNnQpRBSQQQXkjiY36mBywXGvEJQtAbfi51acAVCYq0RlnagCwQmtX8j0rtIboDEBN6XCn0i5Z12jHCizttrS8M1wBlk72rig4xwVLGup6qAx1vR27821ExWy5vrUqQXjO4Rx7ZX0gbzvMvrPajXMB7p3/g/MxFo4ZVoepj2E2+QDnFFvPpsuHCosY523iCRHSlxPr1B7Xt27KVG1YgwZqjoIZqJVepRyFjQn9Ns9CgNTDcCsm4TVDXxuvDv1OeiRvJiEMh0W+WAUYK1ysl/JqpFmSkYf7n7yIYQ5sHmD3w8jCtSe8nTw6/2oHRQzTfmDb9mCYMOcRMcP5qspHO4L24HxUXuz30TCwjbgn/wHn8z9G4gt5/fHf/P3L+enpMr7fv7fzen10mfWHD/8A);lineShape=1;fontSize=6;" vertex="1" parent="1">
                    <mxGeometry x="178.50293458392332" y="21.328070640121837" width="2.544378887250743" height="3.7925908592539295" as="geometry"/>
                </mxCell>
                <mxCell id="105" value="" style="shape=stencil(lVrbchs3DP0avWJIgiSI5zT9j8zEqTV17YzjtsnfF1sNZRHknrXedMHhkrgcXLgn/vTj8cv3h1MKP95eX/58+Pf89e3xxL+dUjo/Pz68nt/s04k/n/jTt5fXhz9eX/5+/nr5/v3LJrl9+uvln22FnxdczFRkQ6Xw6/JLoFD//+H3i/zT+flWvvW/Pyaf0kK+AflCodyzfiO5Z31OJNN5FchXkubkY9iXz4GqXz9GIJ+J/f6hvFCb5MF+SqSY7zhvyZSClxcgLxTYy2cgr6TT+mlfvpq91MsD/dRC1dsrAP3UtvB/oB+JlL18Bv4pZt/xvJES0I9UammQT1QYyKvXf4brt9jdpcvXfqC1PFMc96OUwHlboTjuJyaqBQDEPyBWKgigHmAmUOASan+PLmQkkwFHaPI+xDgINFMcnYIzVWA1LcRxBFztuAZUiuOWshkGaMkA6vxCoGOrUBm3VIzKgKUN0MYtFe7cugY0r6VS+zP3AHm0tLEHCn4D1DF5VAtXEP0GcGeoTBVpSafwKX2JPYDj0yqdAXcBI2FX7abcBYwZwThKAaUuAHz4hNFwUkiRpWfA8aEdQKndBTBik7vOYMxWD7TkAMYa2DXyaGmjtoxCVKmMzmfUlpF7q69FNEIyjuGa/K4Ihul2e4QDGJOBfGIR5NzVmAcVAEZ9xQGkh8gaECdAg2xsdhL2gAqeII24eUADT7CIrNEDFLCA8RZPZ0ARlFuvKj4IYGNj9wSFWkoGiB6QgGtE8TnLAIxKn8WOkBmi7xRu3HcJCL70Pwbk5nek4ARh8m2FZH9tPW7kBcuHSUPAZtdS+UYelUrB1/4bRwGSDMTs5RnEcqCiXj7B87ZZHvEXxbvWj1PQaD/Rjrzr1RQTcFyETEEhQ614eUSmsee8W/8B9o29QLv1T6jPPNlX4X7itL6CFBh8b3ockGUyAGK5sKAgVPqHqXnR3l7tBdi0vsD9zwFccMBPDo26r+Artc2hoXyZ9sOYQe8KyHvlhcTpv2EHtVKgeACq0rYnTADU21me9EdokCOWmTgBwDLXI0C9kvgHAVavpKn8iEBLVhGxs4PAAkfDxCyCG6ns+1MrA1Eq0+rbTSsMBVWm0+BLr6PL3XbTqZXhKNGe4FpmKz1R9Ojk3lsBj2pf8aXs1iKgM0jPRx9tQmbAQZszAw4aqQlw1KrNgINmcAYctJszgGFee3fmj7bM4juEijPnBnBdvOAh1cR8tRwBXDFYGQdQ9cy3DUcwoIwRt41f0KGrT8/bgAcD3BkKY18qfsBTLCUhLZXeBN2MweDcLPszZO5suwZwD/mbUR6a4GvyE2HOOOKCLws5dLbdnZCOgFRg52UslEY7bM0YmsEWP9WKFRZK2xh5DKCYenu4O6d27A2JT65Kf59ro2GkcZC7Z8pwTC2ZdJRnmHIl+VlNgu24hG6h93sClEpq8yk9wnug1b0IKuVX9y4HE47pXgdx9ureSIH+V/dSiLFX914o6azu1RrQz+reDo0GVveCSH5174j2s7rXROdd3ZuidLO6l0Uz49W9L1p/da+M1l/dWx/IO17H/mPy036QvSL7Xj/ATtPkJ38Q1IqzbxIC5CuTzz5+0ahoJY/4Z7UfNCpanTfh/Uz6jIBPVvZCWXjlD4if735P4lDePry/lPHt/PR0eafj9n//Eof9dHkBhD//Bw==);lineShape=1;fontSize=6;" vertex="1" parent="1">
                    <mxGeometry x="180.52767896295362" y="20.226007214057404" width="2.564875417533975" height="6.436361605057062" as="geometry"/>
                </mxCell>
                <mxCell id="106" value="" style="shape=stencil(lZbdUttADIWfxrdnpNX+XlN4D2YIjYc0YUKg5e3R1mOIlkSd3vnv88pHR8c7yc3L9v55MwV6OR0PT5vf88NpO8mPKYR5v90c55MeTXI7yc3j4bj5eTy87h+W8+f7/mQ/+nV462/4s3CNUEKnAr0vV2JCan+v3C3Abt6fAxmlGCAJWnWAhsoGyIKaXSCJAUoEeyUltGyAqis4QG2IFmiMFh1AVbIltYLE14FCyFYlJgLRdSITJNolGtiRKRGq7ZzqQE4jooBtI2oFO4BUkAVK84EMsrrmBhIHKGMjUkV1VIphXCGqW5zO6W1pFggITklaQK4G0CKzs0KuaMkCGSE53lARrZlU6OB8dG+TXUFbGfyBoGFG6V8zykPjCLFcB87c/OkNWoPh8hI6MBbQofJa3UdysGtbX3FZJh36YUg1GJySeqzYkr6i53KrBeXbjFYnBjQa6wBofHozmhCHoVZZHTN1QP4HkDima09Dx0whrm7+BBKyE0yc1rQ+i43ofHRBtW4tDHHaEMYwzrym7cXn1ar2AxKvKXLteWuLSODg1ZNsYgRfUc0TWz831xQcR4GYkZweBxmBBHEmRz0x/Bm0AY6garpBofHfpgdfO47HebdbNizn98cdil5adjdy+wE=);lineShape=1;fontSize=6;" vertex="1" parent="1">
                    <mxGeometry x="223.58515375507687" y="9.786415201339764" width="0.42985004106614927" height="0.4311686771971937" as="geometry"/>
                </mxCell>
                <mxCell id="107" value="" style="shape=stencil(fZbdctsgEIWfRrdngOX3Ok3fIzNxak1dO+M4bfP2WVWDo8X1uUOCD/bn7MIkD2/7p9fdFNzb5Xz6ufszP1/2k3ybQpiP+915vuhoksdJHl5O592P8+n9+Lx+vz4tK5fRr9PvZYe/K5cjpCxUcB/rn1qR/b8/31fgMB+3gEMLBmgCafeBlJCyBQo8OSFW1GSBhugI4BGbAbxzcISQiDDYpIfm+0AoaM4CGa4SQOCsTc2jMcBBbFxrRiv3Ad9Gk6pHIkDw3cUOlAxhTic060PRLYgPcp3uQFYxsTxo1O0JOdM8xIxwC0SiPhnDqialRICGIDdOs4KQLs5NWAPJQ04joImLHHDWpMqjlAPEj+KrrEYLkj1hkXcggIcf5K2pJECULuZNUTdikuSunG0XEKLWhjqcoH2G1UNEtGrVTsbyoCU61IP2ykLkrSVahuYqvd3ePcG2vlLhiLz/DxB5e9/3uwKORin2RnqtH4dCeoBDsAYlh0gMcuP+okEj2paxc2vehciijZfJkhRiv06LVYWGLDODPMR6kKhOY0SzxcmrP11l39fzu63cZMzT67YWVLs+ohD7N3fr13WLbFKsg68Hx8t8OKzvle38+EDRX+vjRh4/AQ==);lineShape=1;fontSize=6;" vertex="1" parent="1">
                    <mxGeometry x="221.9822128128376" y="10.152333502779811" width="0.5297740951923943" height="0.7262106601760584" as="geometry"/>
                </mxCell>
                <mxCell id="108" value="" style="shape=stencil(lZbdUttADIWfxrdnpNX+XlN4D2YIjYc0YUKg5e3R1mOIlkSd3vnv88pHR8c7yc3L9v55MwV6OR0PT5vf88NpO8mPKYR5v90c55MeTXI7yc3j4bj5eTy87h+W8+f7/mQ/+nV462/4s3CNUEKnAr0vV2JCan+v3C3Abt6fAxmlGCAJWnWAhsoGyIKaXSCJAUoEeyUltGyAqis4QG2IFmiMFh1AVbIltYLE14FCyFYlJgLRdSITJNolGtiRKRGq7ZzqQE4jooBtI2oFO4BUkAVK84EMsrrmBhIHKGMjUkV1VIphXCGqW5zO6W1pFggITklaQK4G0CKzs0KuaMkCGSE53lARrZlU6OB8dG+TXUFbGfyBoGFG6V8zykPjCLFcB87c/OkNWoPh8hI6MBbQofJa3UdysGtbX3FZJh36YUg1GJySeqzYkr6i53KrBeXbjFYnBjQa6wBofHozmhCHoVZZHTN1QP4HkDima09Dx0whrm7+BBKyE0yc1rQ+i43ofHRBtW4tDHHaEMYwzrym7cXn1ar2AxKvKXLteWuLSODg1ZNsYgRfUc0TWz831xQcR4GYkZweBxmBBHEmRz0x/Bm0AY6garpBofHfpgdfO47HebdbNizn98cdil5adjdy+wE=);lineShape=1;fontSize=6;" vertex="1" parent="1">
                    <mxGeometry x="221.2877174403066" y="11.755644092565717" width="0.42985004106614927" height="0.4311686771971937" as="geometry"/>
                </mxCell>
                <mxCell id="109" value="" style="shape=stencil(lZbbbtswEES/Rq8Dksvrc5r+R4A4tVDXDhynl7/vqgIVLQMP0DdJ1CGXuzNLTvLwdnx6PUzBvd2ul++HX/Pz7TjJlymE+Xw8XOebPk3yOMnDy+V6+Ha9vJ+f1/fXp+XP5enH5ecyw++VyxFSFiq4P+uXWpH9vy9fV+A0n/eAQwsGaAJp94GUkLIFCjxZIVbUZIGG6AjgEZsBvHNwhJCIMCyhi+b7QChozgIZrhJA+vAGeDQGOIjNa81o5T7g2xhS9UgECL5vsQMlQ9imE5rNa9EpyB5kG+5AVjGxOmjW7Qo50zrEjPAZiER9MqZVQ0qJAA1BPm2aGUK6OHdpDaQOOY2AFi5ywNmQKs9SDhA/iq8yjxYku8Ii70AAD2/rsBiIAFG6mHembiQkyV05+y4gRK0NdVhB+wzzQ0QcLCq0DmrRwQ/aKwuRt1q0DM1Veru9u4LtS6XCEXn/N+B9H94AB88c1xvp5h+HQnqAGztrcojEb26cXzRpJB5BsE1M6y5EFm08TJaikPh1WKwqNGWZBeQhdgeJ6jRGNGtO7v60yb7/z8+2ohUb52fHbS2oNv6IQuLfna0fxy2yKbE+fFw4XubTab2v7MfHC4p+Wi838vgX);lineShape=1;fontSize=6;" vertex="1" parent="1">
                    <mxGeometry x="220.8334921294633" y="12.121570001990108" width="0.5297717867644803" height="0.7262057807553288" as="geometry"/>
                </mxCell>
                <mxCell id="110" value="" style="shape=stencil(lVbLcsIwDPyaXDW2ZFv2mdL/YAYomVJggL7+vqIZA3aIEm5JrI2k9WrthmanzeKwatCczsf9++q7XZ43Db00iO1uszq2Z3lqaN7QbL0/rt6O+8/dsns/LC6Rl6eP/dflDz8dLiXwdEGh+e2+WAsR/7+8doBtu7sHMKQSQAzGDAOsMXk9I2JUEZKCYgFIUhMNA2KCWGZIHpCHASwFhBIgbflhQCAgLgFCXBwGOAZMJa83Hh4iyIJLdQobFGIZAtVNaIDr6jXegU1KArBVz0bt2dQtxwBB+b+DgGU8qptgCbjcZk7Aii4wgC8rYs77+LgiC6ksiQNYJYOPYM0zACZw1CtJIVU4JPtM0yL9anpGaBWZcZlBcrI2nzFP40RhJIToauWhkkEqpt58atIOEXzlAPrweMzSnDyfImZbp9C6lvlJvflMTnPKPI4TbQx7Fek+2TdiKUgZ0GeNG8GUhjFyNBhwZfzI2SOEVkKFpNAjk1iqLmSDevx37J1s2Q2G9jeWIpX+lXhCcGU9RrdHB4aqeI1N7zMb0+IDg6/jtXrk0Kz41PsVcZlY86kZF9V86vslNmSq80aVw/NXnXGAPNxuVut2u+0uZvfr9U1MPnW3OJr/AQ==);lineShape=1;fontSize=6;" vertex="1" parent="1">
                    <mxGeometry x="220.0340454518016" y="14.2798912450761" width="0.2703704261911586" height="1.1245008313901645" as="geometry"/>
                </mxCell>
                <mxCell id="111" value="" style="shape=stencil(lVbRbtswDPwavx4k0qKk5677jwJNF2NZUqTptv59aRhpSiWm4zdF5kU88nhSxw9v26fXTUfh7XQ8/N78G55P245/dETDfrs5DidddfzY8cPL4bj5dTy875+n369PY+S4+nP4O/7D/wlXC0RGFIWPaScKyrTzcwLshv03QAwBIRhEIaQyj6gZXCygIKZ5QKko9oTKiP08IBcES0LPDDQPEAZnC6jgOg/oM6jaMl3qcBPBEb1FaKmzc0TMELaAhJId1ogN6YjkxEdEy7kImOfjQ0u5BIhXIwiZ+JxATpsjI9s25+AKiQTJZiRfNbidUUS1KUkCO4CkwgxrAJnR85qUxprHNaRVBM30LJRVlZztCQt9U10Wy2FBGJVQ+ivlORzUILiRqkrbAUhBahzAH55EZ4p3z6dAbJkWLEDnpzbz6ZtMDIiNA6iNOXWlNqPRJx3bu2nEjgGsNe4Itm1euBoIOdl4cpsmqA1fVM+/+JztOT5BnA7TlerIFR1f5R9Qnfi+P3fnEu8pLn3Z+X3x6iQkK/LJeoGkFXx1yhvv8uup6g3NheD2S8eDrvRQvAPWvkXuAOji8vR5GXa76eX0/Xv7VNKt6ZnFj58=);lineShape=1;fontSize=6;" vertex="1" parent="1">
                    <mxGeometry x="220.03707812883084" y="16.090279178243463" width="0.26430507213270676" height="0.7573870320716858" as="geometry"/>
                </mxCell>
                <mxCell id="112" value="" style="shape=stencil(lVbLcoMwDPwarhrbsi37nKb/kZmQhmkaMiR9/X3NUEisgqhvBLSytFptXOHmetxd6sqo661rX+vPZn87VvhUGdOcj3XX3NJThdsKN4e2q1+69v28H35fdn1k//TWfvQZvgacVgqU6mFGff++smCHN88D4tScHxAxQPAZIDgITgB4wPyEqABpGRDSCTEHpJLMMoBo/DwBCFxYBngERTkgghOatgTocpbuxM0iUEPU/AillwE6jKRMAA9e4DWAxjweQQvxBkzI5zbxPF8Q2Dx/sIBCAw58rguKcn4LLj+APGiBUkOg8zETAgq6sGbMNwH0KN75FogPbQVAhkt1paS0KzaUNJ2kz5SXaI3yfrpcR/3chJLSrlDedBKGeILmDtArT2ApaPBsP2Vp+zCzn0rowRnwuZZW99NDNPwIyQLS/jBeV0xGa66+FRtDoCKfTPntHyO2hfHCFEr/GZJhcI+EiJJhENv/0UHm05uR7jHeAgn8p3p8Xr8BK+THZJD5gJVIp0WIgcVLinMeFBbEe+L8yPVQAKsL+g3EDV7mM6mX8SPPqzeiIj2U30X+g0gP98vPoTmdhrvT43d+WUqvhosWbn8A);lineShape=1;fontSize=6;" vertex="1" parent="1">
                    <mxGeometry x="220.04629185470196" y="17.572839513907297" width="0.24587762039048427" height="0.847472141560393" as="geometry"/>
                </mxCell>
                <mxCell id="113" value="" style="shape=stencil(fZbLctswDEW/RlsMCYCvdZr+R2bi1J66dsZx+vj7QtVQFWj77mRZhyBwL0BO8vSxf3nfTRw+rpfz992vw+t1P8mXiflw2u8uh6s9TfI8ydPb+bL7djl/nl6X3+8v85fz04/zz3mF3wvXCkWZKQ5/ljc5Uyz/3nxdgOPhtAUaVXZAEdIIgRwcUAO1BoBMaQAqRQZAoJoc0JSCPgaqEPukm0VIj4GipD5CDIFCeEzk1IuyhmiwTKlQqB7IpAKAQOKFaJEE1FUTVZ91VaogB1WKXohSSDKMwM2bydwChNB2AwhULiXKvkpWtwy2ZOuVAVBi4O/CVLIHVrfcN1PsG9hEyAholAagkoCkW+rrbarUcI+yeuGs5cCWNm5eiUpaQYjShV3NlHoX3geY2uBvJgaArdd8BIsZQAeZOXUAbPSACLn2ftkAFSSdGhUet5SBEIm7sCsg0H1auv3XshY4++4DQGpRKrdTAJSVZZx9Nr8DmDNRRmvYCYGUtjlXvL21d/n9AFT899ZwSLYbb9tgQ5M1don69yKwexIlP+qtZOiAizwmHBNFkMCc8SABBaQx97m+7qj30qNB33wjBGJ8Vg1H+ngY2sP/G8fb4XhcLizb/8cbir1abjfy/Bc=);lineShape=1;fontSize=6;" vertex="1" parent="1">
                    <mxGeometry x="220.24771227510166" y="20.892543388387594" width="0.4773317007605399" height="0.5703986022608583" as="geometry"/>
                </mxCell>
                <mxCell id="114" value="" style="shape=stencil(lZbdUttADIWfxrdnpNX+XlN4D2YIjYc0YUKg5e3R1mOIlkSd3vnv88pHR8c7yc3L9v55MwV6OR0PT5vf88NpO8mPKYR5v90c55MeTXI7yc3j4bj5eTy87h+W8+f7/mQ/+nV462/4s3CNUEKnAr0vV2JCan+v3C3Abt6fAxmlGCAJWnWAhsoGyIKaXSCJAUoEeyUltGyAqis4QG2IFmiMFh1AVbIltYLE14FCyFYlJgLRdSITJNolGtiRKRGq7ZzqQE4jooBtI2oFO4BUkAVK84EMsrrmBhIHKGMjUkV1VIphXCGqW5zO6W1pFggITklaQK4G0CKzs0KuaMkCGSE53lARrZlU6OB8dG+TXUFbGfyBoGFG6V8zykPjCLFcB87c/OkNWoPh8hI6MBbQofJa3UdysGtbX3FZJh36YUg1GJySeqzYkr6i53KrBeXbjFYnBjQa6wBofHozmhCHoVZZHTN1QP4HkDima09Dx0whrm7+BBKyE0yc1rQ+i43ofHRBtW4tDHHaEMYwzrym7cXn1ar2AxKvKXLteWuLSODg1ZNsYgRfUc0TWz831xQcR4GYkZweBxmBBHEmRz0x/Bm0AY6garpBofHfpgdfO47HebdbNizn98cdil5adjdy+wE=);lineShape=1;fontSize=6;" vertex="1" parent="1">
                    <mxGeometry x="220.9595152334423" y="23.07872456298503" width="0.42985004106614927" height="0.4311686771971937" as="geometry"/>
                </mxCell>
                <mxCell id="115" value="" style="shape=stencil(fZbZUsMwDEW/Jq8aW5K3Z5b/YIZCM5SWKWX7exQyDrHb3rc0zbEs3SvZg9y8bx/eNgO799Px8LL5Gh9P20FuB+Zxv90cx5M9DXI3yM3T4bh5Ph4+9o/z77eH6cvp6fXwOa3wPXMlkZeJYvczv4mRfPp7cz8Du3G/BgplboAkpB4C0TVAdlQKACKFDsjkGQCOcmiAouT0OpCFuE26WIRwHUhK2kbwzpFz14kYalGWEAWWKSRyuQUiqQDAkXQRPAmoqwbKbdZZKYMcVMm3QqREEmEELq2ZzC1ACC1ngEDlQqDYVsnqFsGWbL3UAUoM/J2YUmwBcwtwX/Z1A6sIEQiXC4UOyCQg6RLqeqsqFdyjrK1w1nJgSys3L0QmzSBEqsIuZgq1Cy8DTKXzNxMDwNYrbQSL6UAHmTm1A2z0gAgx135ZARkkHQol7rcUgRCBq7ALINB9mqr9l7ImOPsuA0BqUUrnUwCUlaWffTa/HZgzXnpr2AmBlLY5l1p7a+3yywEotd9bwyHZzrxtgw1NVl8lqt+LwO4JFNpBbCVDB5znPmEfyIMEpow7CcghjbnO9WVHtZeuDfquNx0xPqu6I70/DO3h/8bxNO5284Vl/X9/Q7FX8+1G7n4B);lineShape=1;fontSize=6;" vertex="1" parent="1">
                    <mxGeometry x="220.90413137660374" y="23.025882848877245" width="0.4773280915680952" height="0.5703887227582138" as="geometry"/>
                </mxCell>
                <mxCell id="117" value="" style="shape=stencil(lZbdUttADIWfxrdnpNX+XlN4D2YIjYc0YUKg5e3R1mOIlkSd3vnv88pHR8c7yc3L9v55MwV6OR0PT5vf88NpO8mPKYR5v90c55MeTXI7yc3j4bj5eTy87h+W8+f7/mQ/+nV462/4s3CNUEKnAr0vV2JCan+v3C3Abt6fAxmlGCAJWnWAhsoGyIKaXSCJAUoEeyUltGyAqis4QG2IFmiMFh1AVbIltYLE14FCyFYlJgLRdSITJNolGtiRKRGq7ZzqQE4jooBtI2oFO4BUkAVK84EMsrrmBhIHKGMjUkV1VIphXCGqW5zO6W1pFggITklaQK4G0CKzs0KuaMkCGSE53lARrZlU6OB8dG+TXUFbGfyBoGFG6V8zykPjCLFcB87c/OkNWoPh8hI6MBbQofJa3UdysGtbX3FZJh36YUg1GJySeqzYkr6i53KrBeXbjFYnBjQa6wBofHozmhCHoVZZHTN1QP4HkDima09Dx0whrm7+BBKyE0yc1rQ+i43ofHRBtW4tDHHaEMYwzrym7cXn1ar2AxKvKXLteWuLSODg1ZNsYgRfUc0TWz831xQcR4GYkZweBxmBBHEmRz0x/Bm0AY6garpBofHfpgdfO47HebdbNizn98cdil5adjdy+wE=);lineShape=1;fontSize=6;" vertex="1" parent="1">
                    <mxGeometry x="222.7646430212361" y="26.688980138572674" width="0.42985004106614927" height="0.4311686771971937" as="geometry"/>
                </mxCell>
                <mxCell id="118" value="" style="shape=stencil(fZbZUsMwDEW/Jq8aW5K3Z5b/YIZCM5SWKWX7exQyDrHb3rc0zbEs3SvZg9y8bx/eNgO799Px8LL5Gh9P20FuB+Zxv90cx5M9DXI3yM3T4bh5Ph4+9o/z77eH6cvp6fXwOa3wPXMlkZeJYvczv4mRfPp7cz8Du3G/BgplboAkpB4C0TVAdlQKACKFDsjkGQCOcmiAouT0OpCFuE26WIRwHUhK2kbwzpFz14kYalGWEAWWKSRyuQUiqQDAkXQRPAmoqwbKbdZZKYMcVMm3QqREEmEELq2ZzC1ACC1ngEDlQqDYVsnqFsGWbL3UAUoM/J2YUmwBcwtwX/Z1A6sIEQiXC4UOyCQg6RLqeqsqFdyjrK1w1nJgSys3L0QmzSBEqsIuZgq1Cy8DTKXzNxMDwNYrbQSL6UAHmTm1A2z0gAgx135ZARkkHQol7rcUgRCBq7ALINB9mqr9l7ImOPsuA0BqUUrnUwCUlaWffTa/HZgzXnpr2AmBlLY5l1p7a+3yywEotd9bwyHZzrxtgw1NVl8lqt+LwO4JFNpBbCVDB5znPmEfyIMEpow7CcghjbnO9WVHtZeuDfquNx0xPqu6I70/DO3h/8bxNO5284Vl/X9/Q7FX8+1G7n4B);lineShape=1;fontSize=6;" vertex="1" parent="1">
                    <mxGeometry x="224.3502806320792" y="28.60537253237078" width="0.4773280915680952" height="0.5703887227582138" as="geometry"/>
                </mxCell>
                <mxCell id="119" value="" style="shape=stencil(lVbLbtswEPwaXQdLLl865/EfAeLUQl07cJy0/ftSFZRoSWeC3ChyRkvO7g456M3L/uF5N3h5uZxPP3e/p8fLftDbwfvpuN+dp0sdDXo36M3T6bz7cT69Hh+X7+eHGTmPfp3e5j/8WXjFI40zy8vfZUYg7v/E/YI/TMctvmBe2+AdIsGPClcMPqJEgs+QYP/vEQshjFB7gLojkc8JTmRdXxkq66GuhyjINoSO8JkQIkYbIWQewSFZVaNSQkkIzhISEtG1CEpDyHCEkGMXISCRQ2dBTvbQIwIhpAzNluAhJNUprpXwngeFklT3BB8gRNZ+Sy7CB35oS8go6Tuq+i/TZgtD4Iimc120+MS6pxae2hzAsXbuKtvVDfHeKQ2hQIhCV9qzakpDdA6gCUqS1ntMCMjMlHoTcwhE1t4lY7U9JQS/pmnTnsoMoPPtLwg5typlzw2gJtbmoQQEQkgO3tZS1S2S9qwiqlXpw2mvEoJgtBE21XKVUZ09WVOak08aqF4ertlT1YHVq18b/l3Xkfpkrc1o8ClRq3cYm8oQRCJSf7vpWiqf4GOjafUQgtcW32agDj5eG0/T4bA8Vrbr7eukTi0vG737Bw==);lineShape=1;fontSize=6;" vertex="1" parent="1">
                    <mxGeometry x="227.4096758868322" y="29.714448848190045" width="0.7151724780287156" height="0.4326762066178077" as="geometry"/>
                </mxCell>
                <mxCell id="120" value="" style="shape=stencil(lVbRUuMwDPyavO7YsmXZz8D9BzMUmqG0TOnB3d+fciGATKoOb46za1taae0hXb1sb583A4WX0/HwuHkb707bIV0PRON+uzmOJx0N6WZIV/eH4+bhePi9v5u/n28n5DR6OrxOK/yZeYKWJxKFv/NEIeTyf+bXjN+N+6/4CImWgCAOXn8XgyfEdB5fI2I1+ICYHXwB5w5P7Ty+RXDrzsMeniG1i/d9Yh1fUez6URNK5wkxBIRgGRXNSVFrYHskYhRniybIlpAianAICc2KnApqdFRoIDaEfEE23cGmKUdkJ2jRvEq/A7NDSKj2SEmWvK0TVIeOQMsSq4QiKJagteESCppVeipWRwfdoSPEhOIQNAYmQxCII4NksN0ggTx8W2r5s9vY6f6aIdLhg3N+raNmKzW68TY9vy1URvS6WVC79QOyU9jaa2I1jmUxwHOEZjOkKfX6Xw0jdQbZUB0N1JHIOl5iJO9I3DfnBQJlRKua5o2c1lFViy0jTYNX2FMSpdPBrwx10fZti+K5JMjqoImOTtC8eO4HnsHO+tooHZ4W/1gPAGQjruKaReg1UMv0SvvbLaKOmZwyChBbdmqYXivT0icf92BbbupVfO7ttzCyZ10/fYhcxOvg89VzP+5286Pp6//+laRT8wsr3fwD);lineShape=1;fontSize=6;" vertex="1" parent="1">
                    <mxGeometry x="231.5249780518085" y="28.987794632835175" width="0.818708256376775" height="0.6541612341750138" as="geometry"/>
                </mxCell>
                <mxCell id="121" value="" style="shape=stencil(hVbLcsIwDPyaXDW2ZVv2mdL/YAYomVJggL7+vkozSZFptzcnWdmSdldxx4vLbnXadMFdrufj8+a9X193HT90IfSH3ebcX3XV8bLjxfZ43jydj6+H9fh8Wg3IYfVyfBt2+BjjJBPXISq4z/FNoJK/XzyO+H1/uMEXN32e8I6SAHwiSQ3e+b/xVbeLBu8pJICPJBYfyUeAFyq23jI14Hd8pSw2H6aEEqpUnQ2o5AoIKNN+MwORogMB2lJLgdZQAWfVUwkmgAMFRJqQtylxJAdSKrqfZYGZKuiSCKXapoR4EyZxbdECihZHtbRt9SClXNsTfKECpCqzkm+kEQDT4lvvFJiRJHJWewx5lkrcVAD3L9oQW4DDLKvMaoPPyGtMsVEF9n5uKctUsNUa1XkPNeHdXOAcIRQYHuEtBTofM5oXmjLbAJU6MidPCcxN8sQoJb7z2j8BcbLiPCIjcYAnNDpNgoekttUOmMFMIKAwZZuS/ldQgFrB26JLhVRnLdoSp8x4MPOSDhjLwzD6gfpimMb6rCWH/cNuks58hKoPBKi/Gm3oKI/AQar/ZgLoZK6gav3TWOIkEIO23vkna4pGSrr4uWts+/1+vKrcfm/vJvpqvNfw8gs=);lineShape=1;fontSize=6;" vertex="1" parent="1">
                    <mxGeometry x="234.7570305052227" y="27.40396861034253" width="0.7411782047056787" height="0.6579410519495865" as="geometry"/>
                </mxCell>
                <mxCell id="122" value="" style="shape=stencil(rVbLbttADPwaXQfL5T7PafofAeLUQl07cNw2+ftSVaSajMWiQG+yPKPd5cxwOfDdy/7heTfE8HI5n77ufo6Pl/3An4YYx+N+dx4v8jTw/cB3T6fz7sv59P34OP9+fpiQ09O304/pC68zjxDTRIrhbX7RKkL//ebzjD+Mx2t8RimKUBqobBNiR6qKkAnJIVTZEitCQo4OPoGzwkdE7/sNWeMDatjGNwY3gw8evoGTwb/X+Ca+R3RSeFoWvI0vKFHhZYNOfXpH0IpltOwoHNbzrZ5wCyQLsN4QEXJ1CBVkTpxAHoGRuyYUROfMrYO0h6gie6LJBrolNCcHVQ5NlsCOzGLTrnMgUXoXfisHRfuUGNURrnSUbnXwsiyEqAkN0SlSDUgan8FejRikkyNW90pUrVNpkfG2aISqVQ4+vqCSwQenoJ1s6wquYj0jkzlv8YLTkDRePOJ0Lgla0/upSwG28KY+FFA8QkMwpualuf4fQq62RFnuB8cTKVlP1IzorMDBitaT69L44T6QDstOlab+qWMgDa17BLGBvhFEGXLaF3XbgSfpnRWklZikXXXx2wzx9oclihdO6z3RvjpmTWhki5Sc8MRFpBUvk4ZzDYZl9RXPy2SygbclXdO9gSf9fblTvGv8nwepv+Ll4c/U9jQeDvPQd/2/nfLk1Twh8v0v);lineShape=1;fontSize=6;" vertex="1" parent="1">
                    <mxGeometry x="235.79494160396007" y="25.46150808410175" width="0.8082359919314754" height="1.3874384280840872" as="geometry"/>
                </mxCell>
                <mxCell id="123" value="" style="shape=stencil(lVbZbuMwDPwavxKSqIN67rb/UaDpxthsUqTp9fdLryEnYuIp+uZjhqLI4UgD371uH182Q3Cvp+Phz+ZjfDptB/41hDDut5vjeNKnge8Hvns+HDe/j4e3/dP8/vI4Iaenv4f3KcLnzHOUZSIF9zV/qJ5c/f/lYcbvxv0FPujv1BFyIS/rBM5UuCNEoZjXCdlRiB0hUfQAHyj4Ds8UE8Bncn18TwXsuHjiHq81A/mUQikZvAvreInt9xnv3Tq+arhi8MIAn8j1LQ7kI8ALJVtPAfXxThNypmGIUCvFHl+oooRUQUajJKCgNTS9LA1eWni7A7qAUUTABEecLaGAnhWmekWIgJCFfLV7iAUQmLJZYWnL2phJL1OBslC8GZsMZZq15mbumw5v4yMlK1NG8Wub8vMYIBUVdZGrMUM99iRi8KieouWz+SSkUqZkGkYZ2FZVW+nHnikAQeiUGd9NzSfX8NL3t3wX/0f4yRaNrXuq2NddX6DiKIKOxUi5r1BVTQEjijq0vVGo1aAacW3xFkKhDFJiFZ0hCDxs2LV4C6HCPWhXzZhd+PFtv9bGZbtERQYfrVKnnJA0rPKmTYMTPzXhX1YV7CBc5aNWBPK5rmlsWlzBm/NMTxQBsvjpHep7vD6cL2zP42433/cu/9sLnn6aL4d8/w8=);lineShape=1;fontSize=6;" vertex="1" parent="1">
                    <mxGeometry x="237.12261313546855" y="22.80073779431416" width="0.49969663608007825" height="1.5707602085048842" as="geometry"/>
                </mxCell>
                <mxCell id="124" value="" style="shape=stencil(lVbLctswDPwaXXdIgCSIc5r+R2bi1Jq4dsZx8/j7QtXEDakYjm40vSCxwC7EgW+et3dPm4HC8+l4eNy8jven7cA/BqJxv90cx5OtBr4d+ObhcNz8Oh7+7O/n3093E3Ja/T68TCe8zXEBIUxBFN7njUqQ+m/n54zfjftP+ISYGnzMqA6+IHf4gBov4yMjaRNQQOUy3hIiafCWP13Gs0C4wQdk5/xMfT7nin3Nt0BrSxjR4SuK0p7PECefqqAWLyhO/TVBWnw0RuIEZOQuwG5wGGhEobYDhOzcULmnYD2u7NQofmR8DlBocpomSLEtakT2VH3O+JsBVJHjmpRigYQFaUeoFVwXVXWEkXrKU9scoWZQ27VJF8755ltpL/CFZz7h9gJf2MwI3aRwjZMEuTeya0wC1Q7v1VMypM3HHyy19IrwB5fyR7m/ORnNmLULsB1dG+C0LIa1XwM1G+Q2wOafY2VdjGs11o5vqlm5ldF0hJOSVKSWgwqC04iy+CKoukrKBaGzTvC1lxgqqyKYFnXykzK3dGP7Cu24GHlXCpsXZfI7Z0N7lTTWau863hb/nz0P4243v5o+/98/k2xrfmLx7V8=);lineShape=1;fontSize=6;" vertex="1" parent="1">
                    <mxGeometry x="237.7699772761419" y="20.721314743208723" width="0.24465811965805748" height="0.7052613016131569" as="geometry"/>
                </mxCell>
                <mxCell id="125" value="" style="shape=stencil(lVbLctswDPwaXTEEwec5Tf8jM3FqTV074zht8/eBq5IVKHtnepOoBQUsFktO8vC2f3rdTd69Xc6n77tf8/NlP8mXyfv5uN+d54s+TfI4ycPL6bz7dj69H5+X99enK/L69OP087rD7yWOidM1yLuPZUFXav6z8nXBH+bjCu/IOYPnREnu45k8WzyTuPv4QCkafKIItq8t2Z4+FZSNJmvTcRRBtV6o5AHv+D5eeEMPcQX4TD4YvFAF+KDNsfQUYg/woTWn5yPEEQTETQGFIgoQcvYPWkJOoORC1bZAa/CgBtE/FMsRUyigaamV2AMEdkFLLGETAGShGq6ySQnoTjOSsWYOoARycSQ1gS64poJV1wLYX1VvC1ZZOIAX8nYMCjnQsv51pWoA50C+jlOD2Olkr6YSeIrmk+qATwAvkWSQKBU0lUqn3V9tBk1lH/KVKQZgK/8dEEsT/KrBAhSd1ZWt4jhTARwVT9kahVo3klzl5rRdFJjVminYlIKnBJyF3eZwinjwayVnc0rd8G8HBMpW2Tk0d7pNUx4bUaSdiLcbkUZrqY4yGP0U2gHZAxJ5EBB1P6tupSGgcdD9rAGvmP4boQ//bhgv8+GwXFDW38cbiS4ttxl5/AQ=);lineShape=1;fontSize=6;" vertex="1" parent="1">
                    <mxGeometry x="237.67669874932818" y="18.93173434229425" width="0.537176686876615" height="0.7255924550259091" as="geometry"/>
                </mxCell>
                <mxCell id="126" value="" style="shape=stencil(lVbZUsMwDPyavGps+X7m+A9mKDRDaZlSrr9HIZOAFLLQt8TW2tJqJbkLF8/bm6dNx+75dDw8bN7629O2C5cdc7/fbo79Sb66cNWFi7vDcXN/PLzsb8f/p5vBcvh6PLwOJ7yPuJIp84Bi9zGutEwhfa1cj4Bdv/8ByI5SUYDqqMV1QEzkqwLkSAXcEOS8pABJVngd4MlFZe8d1bJu78g5HQHFiszZa//JeeRN1t4EKg7QQ944TxWcXihqbiQdATjjiYOxd8Abn8hVY8+ASl8pNeN+AOfLdvSGHUSmbLOWp6ipQfuq+SlTOlbP1/yIdhwQwxCAdsjzXwxlHbEP1MANkgKv5TkkBclfcpwsgAFJoiFdwV4KMkOJZhsBKhipAOOPrABRLAqsQQ0tyjdTxd1BZzhSBIoQQejTmQKINRPbeqnAvNnWJsGATAnRlc+xl9S2M9zhRTPH0cp2iZZMwP259ompaSlEaYcg4Fym9jH3B8kISG/102iYG4SsAPG3Ms2eeVoUYgQQ9WqXapsk+HvS3ELRbR6Ba1cYGTUhDlwhAFPCLVIFNEnUWQtJngUJtLmWphKfARVG3YKty8FJoA3hxC8ABWhD8uRM33J4+tW4SIRcAYIQNZnpLQB0Q5FpYIIo08T6HXDu++wfAPn4fg7e9bvd+Jr8uW+fj7I0Pj3D1Sc=);lineShape=1;fontSize=6;" vertex="1" parent="1">
                    <mxGeometry x="236.7429589290677" y="16.509488382460972" width="0.9409473225261739" height="1.4699357828874036" as="geometry"/>
                </mxCell>
                <mxCell id="127" value="" style="shape=stencil(lVbLUiMxDPyauapsybbsM4//oIpApggJFQLs/v1qdsgQOaELbhO725ZaLcWDXL2u715WA4fXw373tPoY7w/rQa4H5nG7Xu3Hg30NcjPI1cNuv3rc79629/Pvl7sJOX09796nE/7MPGXKZWJx+DuvtEyh/V+5nQmbcXtCqJSDw0uhCvCJWDyeqebv8ZG4OTwrpfQ9PlDw8UwnMMInf35MMB4m9ee344UX4YVSdHDLX0G2sZcnUiwAX6hkhw8wHAs/xg7fIsArha5cpKC6Ysd5eSoJUFOEhHv5kd3Etj1hqiDwg9mrJU8opCBlS4E7RzMxckSh4FvGWiBVQDCRqidUasgVuTepNJh0DBS9LUShqzNlr6rpLCAis1HXZY0E+NQ07YpghYddHLs2KNTglFCvqCmA8+1snamAijXKPvxIDZh0GiFezgC72LZFOrwgA535gakIxtceD2ZiS1R8vqUcVy4TlNi3gFrG6Aabmj4iTXBMx3A22LXCPrYrPntqGUXLsLlMqMeiLgSFw86y7oZpi1RBnU3X5NvS/lwZ3bBM/4VgfQycYREn7ySTAc0i0yR5lU6UvshQa4bzK0AhNPfdYEkocNOv3yA/INjH15PnYdxs5hfT6X7/RLKl+XklN/8A);lineShape=1;fontSize=6;" vertex="1" parent="1">
                    <mxGeometry x="235.0914669627025" y="14.348424511089775" width="0.798426102133102" height="0.6884710384553892" as="geometry"/>
                </mxCell>
                <mxCell id="128" value="" style="shape=stencil(fVbLctswDPwaXTEk+AB5dtL/8EycWlPH9jhum/x9oWooG7S1Nz0WILGLBTmEzed+e94N7D6vl9Ov3d/x7bofwsvAPB73u8t41achvA5h83667H5eTr+Pb/P7eTshp6eP058pw9ccx1RkCmL3PX8IgUr4/+XHjD+Mxzu8I18MnjOlivDRGbyv5Pw6PlDq8J5KWcdX8sngE9W8DveZxNar6dM6XtMlm9+Rc2D7sbFxwyN6IlNlyz8lAfhK2fJfKAM6UyTf1ZuIQQFJ+bMCaIvkCFcQbyvQHgESJPcQkKFmMVKwHClrAWxJ83EXkEhAU7MQRxuw9MnzNiptA3crBBSgPugCPGVUdEt3R5KDvpRsZVOfgQ0tbbzgPSUGFDVNlz6KzXlP8ULOSiAkAK7ZXLd/qsA3+jtZvKMA8gffbHLDe1BudMTdnKMA6I/S1Gz4DDsucWv5hU+Gc+55ABA4q88fnO8BpZL7UaejuoLZUnLfE1PRQISqsy3Ypk7N2s8DCrENUJsh2bx76GsdaGig6hJil8gZGqdGinbCK3HoRCvSV10iFVCEaNVWiOqpIqmljfQlQJqd1oa8s26olQQfU/0x7vqDUB9ul4z38XCY7yj3//tLiX6aLzTh9R8=);lineShape=1;fontSize=6;" vertex="1" parent="1">
                    <mxGeometry x="234.2185459763948" y="12.942216679891203" width="0.4773317007605399" height="0.5703986022608583" as="geometry"/>
                </mxCell>
                <mxCell id="129" value="" style="shape=stencil(lZbdUttADIWfxrdnpNX+XlN4D2YIjYc0YUKg5e3R1mOIlkSd3vnv88pHR8c7yc3L9v55MwV6OR0PT5vf88NpO8mPKYR5v90c55MeTXI7yc3j4bj5eTy87h+W8+f7/mQ/+nV462/4s3CNUEKnAr0vV2JCan+v3C3Abt6fAxmlGCAJWnWAhsoGyIKaXSCJAUoEeyUltGyAqis4QG2IFmiMFh1AVbIltYLE14FCyFYlJgLRdSITJNolGtiRKRGq7ZzqQE4jooBtI2oFO4BUkAVK84EMsrrmBhIHKGMjUkV1VIphXCGqW5zO6W1pFggITklaQK4G0CKzs0KuaMkCGSE53lARrZlU6OB8dG+TXUFbGfyBoGFG6V8zykPjCLFcB87c/OkNWoPh8hI6MBbQofJa3UdysGtbX3FZJh36YUg1GJySeqzYkr6i53KrBeXbjFYnBjQa6wBofHozmhCHoVZZHTN1QP4HkDima09Dx0whrm7+BBKyE0yc1rQ+i43ofHRBtW4tDHHaEMYwzrym7cXn1ar2AxKvKXLteWuLSODg1ZNsYgRfUc0TWz831xQcR4GYkZweBxmBBHEmRz0x/Bm0AY6garpBofHfpgdfO47HebdbNizn98cdil5adjdy+wE=);lineShape=1;fontSize=6;" vertex="1" parent="1">
                    <mxGeometry x="234.08771827497543" y="12.74026114651872" width="0.42985004106614927" height="0.4311686771971937" as="geometry"/>
                </mxCell>
                <mxCell id="130" value="" style="shape=stencil(lZbdUttADIWfxrdnpNX+XlN4D2YIjYc0YUKg5e3R1mOIlkSd3vnv88pHR8c7yc3L9v55MwV6OR0PT5vf88NpO8mPKYR5v90c55MeTXI7yc3j4bj5eTy87h+W8+f7/mQ/+nV462/4s3CNUEKnAr0vV2JCan+v3C3Abt6fAxmlGCAJWnWAhsoGyIKaXSCJAUoEeyUltGyAqis4QG2IFmiMFh1AVbIltYLE14FCyFYlJgLRdSITJNolGtiRKRGq7ZzqQE4jooBtI2oFO4BUkAVK84EMsrrmBhIHKGMjUkV1VIphXCGqW5zO6W1pFggITklaQK4G0CKzs0KuaMkCGSE53lARrZlU6OB8dG+TXUFbGfyBoGFG6V8zykPjCLFcB87c/OkNWoPh8hI6MBbQofJa3UdysGtbX3FZJh36YUg1GJySeqzYkr6i53KrBeXbjFYnBjQa6wBofHozmhCHoVZZHTN1QP4HkDima09Dx0whrm7+BBKyE0yc1rQ+i43ofHRBtW4tDHHaEMYwzrym7cXn1ar2AxKvKXLteWuLSODg1ZNsYgRfUc0TWz831xQcR4GYkZweBxmBBHEmRz0x/Bm0AY6garpBofHfpgdfO47HebdbNizn98cdil5adjdy+wE=);lineShape=1;fontSize=6;" vertex="1" parent="1">
                    <mxGeometry x="233.9236223882233" y="12.74026114651872" width="0.42985004106614927" height="0.4311686771971937" as="geometry"/>
                </mxCell>
                <mxCell id="131" value="" style="shape=stencil(lZbdUttADIWfxrdnpNX+XlN4D2YIjYc0YUKg5e3R1mOIlkSd3vnv88pHR8c7yc3L9v55MwV6OR0PT5vf88NpO8mPKYR5v90c55MeTXI7yc3j4bj5eTy87h+W8+f7/mQ/+nV462/4s3CNUEKnAr0vV2JCan+v3C3Abt6fAxmlGCAJWnWAhsoGyIKaXSCJAUoEeyUltGyAqis4QG2IFmiMFh1AVbIltYLE14FCyFYlJgLRdSITJNolGtiRKRGq7ZzqQE4jooBtI2oFO4BUkAVK84EMsrrmBhIHKGMjUkV1VIphXCGqW5zO6W1pFggITklaQK4G0CKzs0KuaMkCGSE53lARrZlU6OB8dG+TXUFbGfyBoGFG6V8zykPjCLFcB87c/OkNWoPh8hI6MBbQofJa3UdysGtbX3FZJh36YUg1GJySeqzYkr6i53KrBeXbjFYnBjQa6wBofHozmhCHoVZZHTN1QP4HkDima09Dx0whrm7+BBKyE0yc1rQ+i43ofHRBtW4tDHHaEMYwzrym7cXn1ar2AxKvKXLteWuLSODg1ZNsYgRfUc0TWz831xQcR4GYkZweBxmBBHEmRz0x/Bm0AY6garpBofHfpgdfO47HebdbNizn98cdil5adjdy+wE=);lineShape=1;fontSize=6;" vertex="1" parent="1">
                    <mxGeometry x="229.00053711845828" y="10.606925935180584" width="0.42985004106614927" height="0.4311686771971937" as="geometry"/>
                </mxCell>
                <mxCell id="132" value="" style="shape=stencil(lZbdUttADIWfxrdnpNX+XlN4D2YIjYc0YUKg5e3R1mOIlkSd3vnv88pHR8c7yc3L9v55MwV6OR0PT5vf88NpO8mPKYR5v90c55MeTXI7yc3j4bj5eTy87h+W8+f7/mQ/+nV462/4s3CNUEKnAr0vV2JCan+v3C3Abt6fAxmlGCAJWnWAhsoGyIKaXSCJAUoEeyUltGyAqis4QG2IFmiMFh1AVbIltYLE14FCyFYlJgLRdSITJNolGtiRKRGq7ZzqQE4jooBtI2oFO4BUkAVK84EMsrrmBhIHKGMjUkV1VIphXCGqW5zO6W1pFggITklaQK4G0CKzs0KuaMkCGSE53lARrZlU6OB8dG+TXUFbGfyBoGFG6V8zykPjCLFcB87c/OkNWoPh8hI6MBbQofJa3UdysGtbX3FZJh36YUg1GJySeqzYkr6i53KrBeXbjFYnBjQa6wBofHozmhCHoVZZHTN1QP4HkDima09Dx0whrm7+BBKyE0yc1rQ+i43ofHRBtW4tDHHaEMYwzrym7cXn1ar2AxKvKXLteWuLSODg1ZNsYgRfUc0TWz831xQcR4GYkZweBxmBBHEmRz0x/Bm0AY6garpBofHfpgdfO47HebdbNizn98cdil5adjdy+wE=);lineShape=1;fontSize=6;" vertex="1" parent="1">
                    <mxGeometry x="228.50822859148184" y="10.114622624884078" width="0.42985004106614927" height="0.4311686771971937" as="geometry"/>
                </mxCell>
                <mxCell id="133" value="" style="shape=stencil(lZbdUttADIWfxrdnpNX+XlN4D2YIjYc0YUKg5e3R1mOIlkSd3vnv88pHR8c7yc3L9v55MwV6OR0PT5vf88NpO8mPKYR5v90c55MeTXI7yc3j4bj5eTy87h+W8+f7/mQ/+nV462/4s3CNUEKnAr0vV2JCan+v3C3Abt6fAxmlGCAJWnWAhsoGyIKaXSCJAUoEeyUltGyAqis4QG2IFmiMFh1AVbIltYLE14FCyFYlJgLRdSITJNolGtiRKRGq7ZzqQE4jooBtI2oFO4BUkAVK84EMsrrmBhIHKGMjUkV1VIphXCGqW5zO6W1pFggITklaQK4G0CKzs0KuaMkCGSE53lARrZlU6OB8dG+TXUFbGfyBoGFG6V8zykPjCLFcB87c/OkNWoPh8hI6MBbQofJa3UdysGtbX3FZJh36YUg1GJySeqzYkr6i53KrBeXbjFYnBjQa6wBofHozmhCHoVZZHTN1QP4HkDima09Dx0whrm7+BBKyE0yc1rQ+i43ofHRBtW4tDHHaEMYwzrym7cXn1ar2AxKvKXLteWuLSODg1ZNsYgRfUc0TWz831xQcR4GYkZweBxmBBHEmRz0x/Bm0AY6garpBofHfpgdfO47HebdbNizn98cdil5adjdy+wE=);lineShape=1;fontSize=6;" vertex="1" parent="1">
                    <mxGeometry x="228.3441327047297" y="9.950516304771895" width="0.42985004106614927" height="0.4311686771971937" as="geometry"/>
                </mxCell>
                <mxCell id="134" value="" style="shape=stencil(lZbdUttADIWfxrdnpNX+XlN4D2YIjYc0YUKg5e3R1mOIlkSd3vnv88pHR8c7yc3L9v55MwV6OR0PT5vf88NpO8mPKYR5v90c55MeTXI7yc3j4bj5eTy87h+W8+f7/mQ/+nV462/4s3CNUEKnAr0vV2JCan+v3C3Abt6fAxmlGCAJWnWAhsoGyIKaXSCJAUoEeyUltGyAqis4QG2IFmiMFh1AVbIltYLE14FCyFYlJgLRdSITJNolGtiRKRGq7ZzqQE4jooBtI2oFO4BUkAVK84EMsrrmBhIHKGMjUkV1VIphXCGqW5zO6W1pFggITklaQK4G0CKzs0KuaMkCGSE53lARrZlU6OB8dG+TXUFbGfyBoGFG6V8zykPjCLFcB87c/OkNWoPh8hI6MBbQofJa3UdysGtbX3FZJh36YUg1GJySeqzYkr6i53KrBeXbjFYnBjQa6wBofHozmhCHoVZZHTN1QP4HkDima09Dx0whrm7+BBKyE0yc1rQ+i43ofHRBtW4tDHHaEMYwzrym7cXn1ar2AxKvKXLteWuLSODg1ZNsYgRfUc0TWz831xQcR4GYkZweBxmBBHEmRz0x/Bm0AY6garpBofHfpgdfO47HebdbNizn98cdil5adjdy+wE=);lineShape=1;fontSize=6;" vertex="1" parent="1">
                    <mxGeometry x="223.58515375507687" y="9.458212994475389" width="0.42985004106614927" height="0.4311686771971937" as="geometry"/>
                </mxCell>
                <mxCell id="135" value="" style="shape=stencil(lZbdUttADIWfxrdnpNX+XlN4D2YIjYc0YUKg5e3R1mOIlkSd3vnv88pHR8c7yc3L9v55MwV6OR0PT5vf88NpO8mPKYR5v90c55MeTXI7yc3j4bj5eTy87h+W8+f7/mQ/+nV462/4s3CNUEKnAr0vV2JCan+v3C3Abt6fAxmlGCAJWnWAhsoGyIKaXSCJAUoEeyUltGyAqis4QG2IFmiMFh1AVbIltYLE14FCyFYlJgLRdSITJNolGtiRKRGq7ZzqQE4jooBtI2oFO4BUkAVK84EMsrrmBhIHKGMjUkV1VIphXCGqW5zO6W1pFggITklaQK4G0CKzs0KuaMkCGSE53lARrZlU6OB8dG+TXUFbGfyBoGFG6V8zykPjCLFcB87c/OkNWoPh8hI6MBbQofJa3UdysGtbX3FZJh36YUg1GJySeqzYkr6i53KrBeXbjFYnBjQa6wBofHozmhCHoVZZHTN1QP4HkDima09Dx0whrm7+BBKyE0yc1rQ+i43ofHRBtW4tDHHaEMYwzrym7cXn1ar2AxKvKXLteWuLSODg1ZNsYgRfUc0TWz831xQcR4GYkZweBxmBBHEmRz0x/Bm0AY6garpBofHfpgdfO47HebdbNizn98cdil5adjdy+wE=);lineShape=1;fontSize=6;" vertex="1" parent="1">
                    <mxGeometry x="270.6826347246282" y="33.581315166283616" width="0.42985004106614927" height="0.4311686771971937" as="geometry"/>
                </mxCell>
                <mxCell id="136" value="" style="shape=stencil(lVnJUhtBDP0aX1W9L2dC/oMqTHCFYArI9vdRx9Vjt+R5Pb4Zo+fR+rTMzt99PD+87XfOfHy+H7/vfx8eP593/svOucPr8/798Mmfdv5+5++eju/7b+/Hn6+Pp7/fHppk+/Tj+Kv9wp8TzlCMDeTM39MXlpL5/8XXk/jL4XUQr2UQL+TTurgjb8df92TBz3tKQj6R8+vykXwY5QuFsC6fKeZRvlKo6/LWkBvtZQ9koBDbJzRiH2SgERuY6giIlJFLWaUxYt5QAiqxU8v4BJ+oZgDIFNIACIESsIEVKGPYoqNSAIBVGr2ULPkIAInCGLhUyaFEKpRHL+VEBqgU2Ikis21X8jrAyTiU2EN5HeApjkaXQsYBQJA2lEoGGB0iVSMBAT0hdwUuAKj8Q1FG1+6364Aq+YUBGagUmWGUSqjiONWCVQAQuKjqYQaIPTe3AhIVbQMClM5yWwFV5RIGpIW2tgI4+7MEGARwVHV6g8Cl0JN5ASRYcSn2Cr6sOECVKalsDZ3argOy7D/Fk0MqVbIjVRYHazob5SWODGCN7DpXXwAcYO8cyVUJMIBbc5YVlytV4KWmsVUAYHRRzNcAgGY4EUTFzQAcB6VSAW6ttmf/VgBna70JwDYot0JAlSU6B0iaMT0dVwEqNSpIbwZUUUCO7AQgnsAjHUg+a4xiAaZbEOr2CMECCWZfAyhi8tgITX2ojbbIjVZXA6mvAYwEWPyEpBs16LtVN4hlIloDBBG5PDNaTIkcuDJ5ggAEsji/pUquu2Gr0XaWS9KthjwgVx24CfXp1GhsbG9KPjzeX0lv25XcWkC8lKGd5kqNhlkySRrgAX6ikyCaDAn/CpUtLWArWVa4o2g6bjWKjb4RoDrEDKB60AygutwEoPtoxS1Fd+oZQM0CDQBKTk8bDQACp+cZBqAjgp6YGODREOdkBdXljLI69Y3Ux5ExwOg2V4onOMhkbXIVbmVHo+k7ycsGZ1dGKkWVGrFX+ep8L+ohw509qVG3lq7k6o4ibKg9lBu3oAtu27hoTRFql5si1Lo4RaiNdIpQS+8UofbqKUKt7uc+sPE4cO5Nq+eHoACg8PSB49xf104owk9tRkA2BMX6Fe5nwcuppi5HlbVDk+SCCPeCdsoS0yVeSn3pa/RFu0Y2eGZ9tQyhYdH7ftNcALav2msnRdG5kofk0Y6Wo9FcJGjtdeoGyckSQPK1w+tYEMFCL7XT7mg0+y0igJcDQfMbAiyngAXAkQbdN1MUGrEJIG5R3u/90o1X7vdxLAZXYetVqc0aosXJyhDwExFhGKmPLXBtMrLHsYfRkLhcVpZKg0c1o86tnWPXxMeUTnBbV+IRvgtRysxcacbUcXCx157sjXRNfEwEA1lXvQPBMySPc16Io0ZmZOczcE81nTbO4jgJbnzjNhHnD+eXe0+Hl5fTu8HL/8uXgfzV6UWiv/8H);lineShape=1;fontSize=6;" vertex="1" parent="1">
                    <mxGeometry x="251.9018530910854" y="33.837094620087896" width="31.595169153636554" height="1.6663681937407246" as="geometry"/>
                </mxCell>
                <mxCell id="137" value="" style="shape=stencil(lVjZbttADPwavxJ7kHs8p+l/BIhTG3XjwHGvvy9VYxWTssbImyzP7HJ5DLna5If33dPbdpPC+/l0/L79vX8+7zb5yyal/etue9qf9WmTHzf54eV42n47HX++Pl9+vz1NyOnpx/HXtMKfC08oyERK4e/lRSDu/198vcAP+9creBSSaPCVUlzH6/rSDT5mSrxOyInYGhQL9bJO4ECSDCFF4goInaI9QiqUwzpBKgkbQg7DCzcJRahbkzJTzOuEmqk0S6gUwaFboFIsoVNKgDCvNwjqty7rhJ78DpwoNpAZIVAIllGpAzd1HiYPghSYTHqIYCNXdE9gU1UDbPYVDQTIjVKoOoL6FQRCmHK19SAUQSA4UrWhbpEyyI3UKFm3qhsKiJyM5Qa+d4hnkuDxHVUolbjAgyAkquLxFcQgUUgen0FWaLVbh/Y2UncF7/zZNUtA+d/CBySRQ0BnvMoLyAg9r4uXDDVY82f1eFT6Gq/F+gH4k72eTnhUApTZ4zPAl0V8hRo4b1nEt5BAfHH+qaNGV/Di8A0KXaHYPR7JnAxrr/IZtVj2EqT4BuzPY/e5YX4o8QrBJxzeII2GfX0A1AkWCdfuFVhZBAAWcFwGGAhcHOl4nUBw/bZMUOgfL6AC7fk0Xoa5cwfIsO3lNgpqbkpaFEAiRF3kCGEMSbdrII/15j6ZqQGfVia2SSENDl0t+ShIhrLYA1VL4AZ1t82NeiYU2Chr87Ms85gMbxPiOOLVDBVAr1cnOq3TUFbU65maba46aXYkLsUXj86yFXX7Smy9NAk42CHpwGRNmgQB7KD1wDa9Y8UNPA0DZkKEXtKObMMgcOIKPvMYpnbwtaNjLchTLSxrTIaluRiq07hbrMG7g6PZIHhpjFAZ1TPWmAAnv4Wq4GuThrU6OJrVFwJxr+sVbzuCs/cMNuaT1+i7cH34uLG/7A+Hy4X/+n9/w9dXl68D+fEf);lineShape=1;fontSize=6;" vertex="1" parent="1">
                    <mxGeometry x="281.1060258939572" y="33.34011096974132" width="3.3905233839309834" height="3.733335909038367" as="geometry"/>
                </mxCell>
                <mxCell id="138" value="" style="group" vertex="1" connectable="0" parent="1">
                    <mxGeometry x="290" y="10" width="70" height="63.92" as="geometry"/>
                </mxCell>
                <mxCell id="139" value="" style="group" vertex="1" connectable="0" parent="138">
                    <mxGeometry x="10" width="60" height="61.730000000000004" as="geometry"/>
                </mxCell>
                <mxCell id="140" value="4&lt;br style=&quot;font-size: 7px;&quot;&gt;" style="text;html=1;align=center;verticalAlign=middle;resizable=0;points=[];autosize=1;strokeColor=none;fillColor=none;fontSize=7;" vertex="1" parent="139">
                    <mxGeometry x="10" width="30" height="20" as="geometry"/>
                </mxCell>
                <mxCell id="141" value="3" style="text;html=1;align=center;verticalAlign=middle;resizable=0;points=[];autosize=1;strokeColor=none;fillColor=none;fontSize=7;" vertex="1" parent="139">
                    <mxGeometry x="20" y="35" width="30" height="20" as="geometry"/>
                </mxCell>
                <mxCell id="142" value="" style="group" vertex="1" connectable="0" parent="139">
                    <mxGeometry y="13.918021306431228" width="42.19624544701863" height="27.816055047083545" as="geometry"/>
                </mxCell>
                <mxCell id="143" value="2" style="text;html=1;align=center;verticalAlign=middle;resizable=0;points=[];autosize=1;strokeColor=none;fillColor=none;fontSize=7;" vertex="1" parent="142">
                    <mxGeometry y="1.0819786935687716" width="30" height="20" as="geometry"/>
                </mxCell>
                <mxCell id="144" value="" style="shape=stencil(lVhJchsxDHyNriiAC0ieHecfrrIcq+JYLtnZfh9MVByL4KgT37R0c7CjObt48/p497LfBX59Ox2/7n8e7t8ed/HTLoTD8+P+dHizT7t4u4s3D8fT/svp+P35/vz95W5BLp++HX8sJ/w681qjFhZW4N/nX5ia/v3h8xn/dHi+xBcqOuATxQzwiaQO+EpVAF6IZcBLoJCuE6pSzSNBSQMgCOlICEIFPKHk/vdKKJSAz9oojjGKkRIwSQNVHgmNEl8nZKXcxiwkahUQmOrog/3CgJDM6TgSEmkBBKHoCJUyiFIsPnEqPQzbhEw8+qCph2GbYGEda1sVRilOxWepFPCE0LxJRSiD9glWrWUkrA2yTbCojyYV7R27TQiUxoYrjQpInDU8jybVAPtBSs/rSsiUIyBY4sbyrhX2tLV8Hn1oTAVMDeE+hFZC6IHeHgIUx/6xOVWAC0pl9KApBZBn8bVtcxaNPaua5PENRYjCaI8w9yBvEqb+Xx4A6o4py+QAxIfp/ALKdCo6w2dovyshw6MEGH5KAEN7gvO3wmHElNTjFRSQ1W/z+AzsEZLk8QlMIun/Xp6PerKX46X9aHBN8ay9oq7gpU3xh+f7+NsSBQ1j50ePR9tGqE34AvE61U+DDRzDhAf5WlXW/zewTgFCe4A3DCqwgWU6P0M8zwkDAeXefhd4gf7KXHBgopu/xeMV2v8xfCZx9mdKoCBs0bsGiHDg1glvJQ78FdMqjmAhRh0f/YiotsjRE7SftxJSN3KbUP3SMCUhoCaWrTSaZFolIHET/RgyNRQRIfcpshIiLOtF2jv5ZK2KfDCl7lRpxapUvEmmSiNInF0e8jgr1EoJCWXtl4cLZY3Eflxn26rdC9x+dtuI4xNy7AN2m9D6BWi9sDTodLZ+c/fMRAEpNPESMOKNpqUHcSUEUpA4U+rBXRwVisbKfonbmkAixHR0GPvBpDOSgXUKq+D7hw2V7KQ4vH7YkGsuqlSByzZEeUwbw5tvq/71gAkxMJMM77LMcMIsKsjbw/h8p9PWPbeNb35G4i2+qNbi8SiezeeL+9i/hldvP7rALqrexxPN00V0eHxCO4Qn4W5CBlT0u2x6x6NJ9OH3V//E24f3l2UPh6en87u2y//9yzX76fxiLt7+AQ==);lineShape=1;fontSize=7;" vertex="1" parent="142">
                    <mxGeometry x="19.564740664598645" y="0.16814491020784317" width="4.077038719613128" height="5.973885570734757" as="geometry"/>
                </mxCell>
                <mxCell id="145" value="" style="shape=stencil(lVnJUhsxEP0aX7taa0tnQv6DKkxwhWDKkO3v0xOX5FHL84CbPdab3l5v8i7cvD7evex3nl/fTsfv+9+H+7fHXfiy8/7w/Lg/Hd700y7c7sLNw/G0/3Y6/ny+P39/uVtOLp9+HH8tb/hzxjFFWUCe/7YHXP8/+Ho+/nR4Xh13lPNw3FECxyN5Ho5HinH7eCGfhuOFsgPKOBKjjaOaASBTGAXoEw8Aal7xA0CfBA8AQtUAMlXeBgT1yAgIngQAoiMejQ6FIgIIxTIGIVAp24AUrJdioQIkJFVgVElf4UHgspo4SkjqpQAAmVwdAZUKklBs4FQmp22AcHtfBwSqgKviyccRkCiCXBB1q5GQoQ2i2WNsKMSAfJIsNXIlJxBQRmqoGxCXJJOMKkmvCNcBQtlI8DDSoik/FiR1g0NeqpOERB4YXZjyyCW1KgIJxU0qCSXApeIpj/RWqxJSKdh8WKwCbi2xObFXSuUvkqAJZAC+ses6QCxbVcmMareaaCQkcsgGzWBT7ZVdgBrV2XxQmciGqnEwAJUJUrRqyo9cUpkJSVCqGUAgB7xUs+23NTZ2XQcIyRgHfYUDKVqrzelaqCIJtdW5DqhwBlgAxQI8yAfHOlSwRUQUahVRLQCNAgsgWYBgq62bKmzUtdoGcfHDFsDUypUfthA5TCJACunPKVsAKgMLYAqEIL5W29qXV2AJMyBgNsWZTSjnqi00C1+xl7IxujS2bAKmFIJ1o3Pt4wBT+xaVcBzMXLkYjW2oMrkVkO96koZ3CseUpKgvXti8Zh8OdZ1yruBQl89mkOm8H0nSyYh36kCaKw2uZZ8ESNuqOkCIkUraQoyE1FrlVp+z3Ii4C4WpbXk4HevPZumojEPNluDa3NHSUSa36oyDNq0yr6PqNzwzsRmBIuxaOiGVkUsFL07L+8aU0+EU7XL6vmTGOG7FbWt2jWOkpfttazoOZpzWSRANitxa/2qcRvO3KhBHG3Rg90AlVcCqlGDgVIFgdoiAt5TcKuNqrckIkGzT0sUpoMUptr68Ws0ckhBsh9BtEZU+BRi2ZoEjk2ps6r0usBHFgW3G5QhVUo3NwK5LOBpFdeU2o2jm1lm3bh7S6NYkcDpOUxFIsS3+W7cnztyeaFMCgChtXe2A2EJ5HcB2eAgVXquF2IpKBwQ49XmxZWa510KAfg3YAR7S2/VK2vuu5iAaT/oi1gFKDVQqp44FN+ope/BljrPdysPlmC0nHLyX6Xewl+OonevxkdMMs4yb3y7HC6DbNBYyXFivHEcbNNsixHDmZHvDxTAZ2bIM11C2YxHDxYJtaWDISG43x6vjgPFsG3F31dbxz1zkv3tcP1z+M3g4PD2d/3JY/27/Y9BH5/8nwu0/);lineShape=1;fontSize=7;" vertex="1" parent="142">
                    <mxGeometry x="27.34329623413376" width="13.43037879425657" height="6.528432542546019" as="geometry"/>
                </mxCell>
                <mxCell id="146" value="" style="shape=stencil(lVfbctpADP0av2pW2vtzmv5HZkIKUwoZQtrm7yPXtfFq4bS8GXPk1eVIRzv4h7ft0+tmEPd2Ph2/b37tns/bwX8ZRHaH7ea0O+vT4B8H//ByPG2+nY7vh+fp9+vTiByffhx/jl/4PdnVSjWNVuI+pjeOsvvz4uuE3+8Oa3yhUhq8UEwAnyjUBh8pI7xQcA2eHRXgUCmUYmsQKQRg4Cm2JwhTktsGOZNIa1CoAoOkOQ2Ngc/EIOjEVNoYQiIHYojeZilGEnBCCJTasqUAg/aJfMuL7EnKbQPNSeLGoDA5BgY8E2ExyJRA0FpXk1YlSwEnMJO0LikbI+BSpthyVdlegUeOXBuBdlMCOVK8s/gIAlC8t3gP/eFo8VwR3nd4lxE+uS4/8PtmVox4wFKeu+Q/v88U+B7/ufMf50cZKvfkX/FdPlF91Z9q8Yg/TLH7fgFNzOQ7/lSP8H+zt8bD+ua2vuwWit8wiF3BakR46RwqgEDaAF2BMwjYzRNqXTDYAD0+wHh7fwQ2cB8vwwHR5xPN3K5gY4PBhrGEUDwkaE84pGPXCM2AD9caRmAD34dPVlY1Xg8arBP6GnGDLaK7kjDkkFbMeKQiiTKkGiatS0VJAlzyYa7oIvRYVcOyB6xWCQYkimJlLwZ4QtKgWxqFOCvzdYNCsU2rri8ZrXTRNoKuLwGcUMRKsXJL0FqarZbp+uIQlVQsW67q4utBWmuYqXbZrD3arPs1Fs4ipb60zenw98usjRe8AKYqPhSDR8yu3aLvoNiPN5UOjwpQ7bDDWjaOEus/mr2jVFSLR/HqLmD9Yex/EZt/7I/hj8OzbtkFLviAZrXr1l0HxfXuq+g/8fpwufe+7Pb76dq8/t/ek/XVdMf2j58=);lineShape=1;fontSize=7;" vertex="1" parent="142">
                    <mxGeometry x="8.538293097297753" y="16.56522440687911" width="4.592531380150672" height="7.765862021405667" as="geometry"/>
                </mxCell>
                <mxCell id="147" value="" style="shape=stencil(lVjbchoxDP0aXjXyXX5O0//ITEhhSkOGkF7+vtpSA5Z3D+Rt2dXBuuvIq/Dwvnl6W688vx8P++/rX9vn42YVvqy8375u1oftUZ9W4XEVHl72h/W3w/7j9fn0++1pkpyefux/Tv/w+4RjimUCef7TXjj378XXk/hu+3ol7im6TtyT5GXxRCV04rm9mBUXKrkTd0wM/t7p6b4HxGbPPKBQjT2gUgEAH4n7E9SE/29mAYFJ+hOCp5oAQMhJB4gMbYjq1NoDhDzwagoUekBKUKXMlHtADhQjABRKvZeK2sDLgBIoG4BmBnBrEZLUAcTDRJVArk89ye3MeUCm1J9QtRRAHKSS72uhaqQBoDryfa3VRCwA4K3RVZUEcaiarQagkQFemhQwNkjz2xJAxAISskHjGi2ggtSYNDaACitOP+dgTxBkQ7Vd6TZARgAyulId3ForBhRrNIqDY+2MbBEB+bU2Da4A8YYR2QIyyj5103ACaq4TYLBBMKAMAJhMqvF4AjY6jQBUQerEMHgJhzqIBSScfWGIQwBTcfYEh1UabWCskvWStIy/Nw7S5uS9kZY26+/NJYHUZCZbBU7F2XqA7Xuu4jwwer6oI7Z67BvpRqNxFoAo2UzvqzcjNwBu1OgnAaX1rQtNPDtuaQgZujEZgfyaGhu5DgSevOOIqMivwfJEBXgUOT+UUMEN3w2zPUGj5Zz/Z0BoVbhEmbxpNAzbgHI26dNV1AZQc0r7Ul9CcuZES8TSNMui2YK4biFvAI4c4rpsm2WOjcEv0W/DRFOGE0IJfuoBSvARsQy61fTZGl3jpktLSurjEHCkvX7uU2Pa5PCilfsTdLFMIPl0lTO0zyXyKFvt4qq7Isru1BrpOc4UQRB8WzzPHoJ9VVeFvjgZDh+2/85UQAqxXUJ1QcPiVpmElbHiqNWxbStMATQ6FY9GHIVVxasRRzyYW61exNGFAduVjeFqwba/4TGjjhiUAVXI9i6F2/a2JP6Zm5qb4vpwuRR62e52pzul6+/2EklfnS6gwuNf);lineShape=1;fontSize=7;" vertex="1" parent="142">
                    <mxGeometry x="15.15067034740025" y="16.73338759431124" width="14.4058144281356" height="8.47192522351325" as="geometry"/>
                </mxCell>
                <mxCell id="151" value="[-inf,inf]" style="text;html=1;align=center;verticalAlign=middle;resizable=0;points=[];autosize=1;strokeColor=none;fillColor=none;fontSize=6;" vertex="1" parent="139">
                    <mxGeometry x="15" y="-6.08" width="40" height="20" as="geometry"/>
                </mxCell>
                <mxCell id="154" value="[2,inf]" style="text;html=1;align=center;verticalAlign=middle;resizable=0;points=[];autosize=1;strokeColor=none;fillColor=none;fontSize=6;" vertex="1" parent="139">
                    <mxGeometry x="20" y="41.730000000000004" width="40" height="20" as="geometry"/>
                </mxCell>
                <mxCell id="148" value="" style="group" vertex="1" connectable="0" parent="138">
                    <mxGeometry y="15" width="70" height="48.92" as="geometry"/>
                </mxCell>
                <mxCell id="149" value="7" style="text;html=1;align=center;verticalAlign=middle;resizable=0;points=[];autosize=1;strokeColor=none;fillColor=none;fontSize=7;" vertex="1" parent="148">
                    <mxGeometry x="40" width="30" height="20" as="geometry"/>
                </mxCell>
                <mxCell id="150" value="1" style="text;html=1;align=center;verticalAlign=middle;resizable=0;points=[];autosize=1;strokeColor=none;fillColor=none;fontSize=7;" vertex="1" parent="148">
                    <mxGeometry y="20" width="30" height="20" as="geometry"/>
                </mxCell>
                <mxCell id="156" value="[-inf,2]" style="text;html=1;align=center;verticalAlign=middle;resizable=0;points=[];autosize=1;strokeColor=none;fillColor=none;fontSize=6;" vertex="1" parent="148">
                    <mxGeometry x="-5" y="28.92" width="40" height="20" as="geometry"/>
                </mxCell>
                <mxCell id="153" value="[-inf,4]" style="text;html=1;align=center;verticalAlign=middle;resizable=0;points=[];autosize=1;strokeColor=none;fillColor=none;fontSize=6;" vertex="1" parent="138">
                    <mxGeometry x="-10" y="15" width="40" height="20" as="geometry"/>
                </mxCell>
                <mxCell id="152" value="[4,inf]" style="text;html=1;align=center;verticalAlign=middle;resizable=0;points=[];autosize=1;strokeColor=none;fillColor=none;fontSize=6;" vertex="1" parent="1">
                    <mxGeometry x="340" y="21.23" width="40" height="20" as="geometry"/>
                </mxCell>
                <mxCell id="157" value="so when u move left&lt;br&gt;maxi=root-&amp;gt;val&lt;br&gt;and when u move right&lt;br&gt;mini=root-&amp;gt;val&amp;nbsp;" style="text;html=1;align=center;verticalAlign=middle;resizable=0;points=[];autosize=1;strokeColor=none;fillColor=none;fontSize=6;" vertex="1" parent="1">
                    <mxGeometry x="370" y="9.58" width="80" height="40" as="geometry"/>
                </mxCell>
            </root>
        </mxGraphModel>
    </diagram>
</mxfile>